SplineFontDB: 3.0
FontName: Gothica-BookOblique
FullName: Gothica Book Oblique
FamilyName: Gothica
Weight: Book
Copyright: Copyright (c) 2020-2024 by Wojciech Kalinowski "wmk69" with Reserved Font Name "Gothica-BookOblique".\nThis Font Software is licensed under the SIL Open Font License, Version 1.1.
Version: 2.1.0; 2021-05-14
ItalicAngle: -12
UnderlinePosition: -80
UnderlineWidth: 200
Ascent: 1638
Descent: 410
InvalidEm: 0
LayerCount: 2
Layer: 0 1 "Warstwa t+AUIA-a" 1
Layer: 1 1 "Plan pierwszy" 0
XUID: [1021 783 23647091 8360855]
StyleMap: 0x0001
FSType: 0
OS2Version: 3
OS2_WeightWidthSlopeOnly: 0
OS2_UseTypoMetrics: 1
CreationTime: 1260698820
ModificationTime: 1621007236
PfmFamily: 33
TTFWeight: 400
TTFWidth: 5
LineGap: 250
VLineGap: 0
Panose: 2 12 5 4 5 5 3 13 6 4
OS2TypoAscent: 2000
OS2TypoAOffset: 0
OS2TypoDescent: -500
OS2TypoDOffset: 0
OS2TypoLinegap: 250
OS2WinAscent: 2000
OS2WinAOffset: 0
OS2WinDescent: 500
OS2WinDOffset: 0
HheadAscent: 2000
HheadAOffset: 0
HheadDescent: -500
HheadDOffset: 0
OS2SubXSize: 1434
OS2SubYSize: 1331
OS2SubXOff: 0
OS2SubYOff: 287
OS2SupXSize: 1434
OS2SupYSize: 1331
OS2SupXOff: 0
OS2SupYOff: 977
OS2StrikeYSize: 102
OS2StrikeYPos: 512
OS2CapHeight: 1550
OS2XHeight: 1140
OS2Vendor: '    '
OS2CodePages: 20000093.00000000
OS2UnicodeRanges: 8000002f.4000204b.00000000.00000000
Lookup: 258 0 0 "'kern' Horizontal Kerning lookup 0" { "'kern' Horizontal Kerning lookup 0-1 subtable" [307,0,4] } ['kern' ('DFLT' <'dflt' > 'grek' <'dflt' > 'latn' <'dflt' > ) ]
MarkAttachClasses: 1
DEI: 91125
KernClass2: 65 52 "'kern' Horizontal Kerning lookup 0-1 subtable"
 185 H I U Igrave Iacute Icircumflex Idieresis Ugrave Uacute Ucircumflex Udieresis Hcircumflex Hbar Itilde Imacron Ibreve Iogonek Idotaccent Utilde Umacron Ubreve Uring Uhungarumlaut Uogonek
 84 A Agrave Aacute Acircumflex Atilde Adieresis Aring Amacron Abreve Aogonek Aringacute
 9 B uni1E02
 47 C Ccedilla Cacute Ccircumflex Cdotaccent Ccaron
 27 D Eth Dcaron Dcroat uni1E0A

StartChar: .notdef
Encoding: 65536 -1 0
Width: 954
Flags: W
HStem: 0 68<254 728> 1442 68<547 1021>
VStem: 130 694<0 694> 451 694<816 1510>
DStem2: 130 0 239.546 0 0.207912 0.978148<92.2951 1497.19> 713.546 0 824 0 0.207912 0.978148<69.5192 1474.41>
LayerCount: 2
Fore
SplineSet
130 0 m 1,0,-1
 451 1510 l 1,1,-1
 1145 1510 l 1,2,-1
 824 0 l 1,3,-1
 130 0 l 1,0,-1
254 68 m 1,4,-1
 728 68 l 1,5,-1
 1021 1442 l 1,6,-1
 547 1442 l 1,7,-1
 254 68 l 1,4,-1
EndSplineSet
Validated: 1
EndChar

StartChar: exclam
Encoding: 33 33 4
Width: 560
GlyphClass: 2
Flags: W
HStem: -20 21G<257.5 273> 1530 20G<680.886 719>
VStem: 176 253<53.8125 158.188>
LayerCount: 2
Fore
SplineSet
264 -20 m 0,0,1
 251 -20 251 -20 236 -14 c 0,2,3
 207 -2 207 -2 191 27 c 0,4,5
 176 55 176 55 176 83 c 0,6,7
 176 94 176 94 178 104 c 0,8,9
 184 133 184 133 211 152 c 2,10,-1
 303 218 l 2,11,12
 323 232 323 232 341 232 c 0,13,14
 354 232 354 232 369 226 c 0,15,16
 399 213 399 213 414 185 c 128,-1,17
 429 157 429 157 429 129 c 0,18,19
 429 118 429 118 427 108 c 0,20,21
 421 79 421 79 394 60 c 2,22,-1
 302 -6 l 2,23,24
 282 -20 282 -20 264 -20 c 0,0,1
719 1550 m 1,25,-1
 431 392 l 1,26,-1
 281 285 l 1,27,-1
 271 285 l 1,28,-1
 463 1375 l 1,29,-1
 709 1550 l 1,30,-1
 719 1550 l 1,25,-1
EndSplineSet
Validated: 1
EndChar

StartChar: quotedbl
Encoding: 34 34 5
Width: 430
GlyphClass: 2
Flags: W
HStem: 1045 505
VStem: 252 477
DStem2: 252 1045 388.469 1045 0.207912 0.978148<136.742 407.953> 486 1045 622.469 1045 0.207912 0.978148<136.742 407.953>
LayerCount: 2
Fore
SplineSet
719 1550 m 1,0,-1
 729 1550 l 1,1,-1
 645 1151 l 1,2,-1
 496 1045 l 1,3,-1
 486 1045 l 1,4,-1
 571 1444 l 1,5,-1
 719 1550 l 1,0,-1
485 1550 m 1,6,-1
 495 1550 l 1,7,-1
 411 1151 l 1,8,-1
 262 1045 l 1,9,-1
 252 1045 l 1,10,-1
 337 1444 l 1,11,-1
 485 1550 l 1,6,-1
EndSplineSet
Validated: 1
EndChar

StartChar: numbersign
Encoding: 35 35 6
Width: 1328
GlyphClass: 2
Flags: W
HStem: 558 121<367 585 731 860 1006 1224> 833 121<426 643 790 918 1065 1282>
DStem2: 513 222 634.232 222 0.207912 0.978148<120.283 343.627 492.338 624.677 773.596 996.732> 788 222 909.232 222 0.207912 0.978148<120.283 343.627 492.338 624.677 773.596 996.732>
LayerCount: 2
Fore
SplineSet
249 558 m 1,0,-1
 251 568 l 1,1,-1
 367 679 l 1,2,-1
 610 679 l 1,3,-1
 643 833 l 1,4,-1
 307 833 l 1,5,-1
 309 843 l 1,6,-1
 426 954 l 1,7,-1
 669 954 l 1,8,-1
 720 1197 l 1,9,-1
 851 1290 l 1,10,-1
 861 1290 l 1,11,-1
 790 954 l 1,12,-1
 944 954 l 1,13,-1
 995 1197 l 1,14,-1
 1126 1290 l 1,15,-1
 1136 1290 l 1,16,-1
 1065 954 l 1,17,-1
 1401 954 l 1,18,-1
 1399 944 l 1,19,-1
 1282 833 l 1,20,-1
 1039 833 l 1,21,-1
 1006 679 l 1,22,-1
 1342 679 l 1,23,-1
 1340 669 l 1,24,-1
 1224 558 l 1,25,-1
 981 558 l 1,26,-1
 929 315 l 1,27,-1
 798 222 l 1,28,-1
 788 222 l 1,29,-1
 860 558 l 1,30,-1
 706 558 l 1,31,-1
 654 315 l 1,32,-1
 523 222 l 1,33,-1
 513 222 l 1,34,-1
 585 558 l 1,35,-1
 249 558 l 1,0,-1
918 833 m 1,36,-1
 764 833 l 1,37,-1
 731 679 l 1,38,-1
 885 679 l 1,39,-1
 918 833 l 1,36,-1
EndSplineSet
Validated: 1
EndChar

StartChar: dollar
Encoding: 36 36 7
Width: 1253
GlyphClass: 2
Flags: W
HStem: 1109 21G<1063 1101.12>
VStem: 431 192<976.394 1182.16> 1038 202<413.68 665.5>
DStem2: 543.493 -140 642.846 -140 0.207912 0.978148<98.3544 122.681 329.396 900.733 1111.57 1527.37 1727.03 1752.33>
LayerCount: 2
Fore
SplineSet
569 -20 m 1,0,1
 536 -19 536 -19 508 -10 c 0,2,3
 374 32 374 32 284 162 c 0,4,5
 223 250 223 250 212 356 c 1,6,-1
 409 500 l 1,7,-1
 419 500 l 1,8,9
 409 454 409 454 409 413 c 0,10,11
 409 325 409 325 454 259 c 0,12,13
 513 173 513 173 607 158 c 1,14,-1
 731 741 l 1,15,16
 597 755 597 755 514 837 c 0,17,18
 431 920 431 920 431 1037 c 0,19,20
 431 1060 431 1060 434 1085 c 0,21,22
 441 1137 441 1137 471 1176 c 0,23,24
 496 1210 496 1210 541 1242 c 2,25,-1
 890 1491 l 1,26,-1
 908 1574 l 1,27,-1
 1014 1650 l 1,28,-1
 1024 1650 l 1,29,-1
 998 1529 l 1,30,31
 1027 1527 1027 1527 1051 1519 c 0,32,33
 1145 1487 1145 1487 1201 1407 c 0,34,35
 1253 1333 1253 1333 1260 1242 c 1,36,-1
 1073 1109 l 1,37,-1
 1063 1109 l 1,38,39
 1073 1156 1073 1156 1073 1194 c 0,40,41
 1073 1246 1073 1246 1054 1281 c 0,42,43
 1022 1338 1022 1338 961 1353 c 1,44,-1
 870 927 l 1,45,46
 1080 925 1080 925 1178 783 c 0,47,48
 1240 694 1240 694 1240 589 c 0,49,50
 1240 546 1240 546 1229 500 c 0,51,52
 1216 444 1216 444 1192 409 c 0,53,54
 1168 376 1168 376 1122 343 c 2,55,-1
 678 26 l 1,56,-1
 659 -64 l 1,57,-1
 553 -140 l 1,58,-1
 543 -140 l 1,59,-1
 569 -20 l 1,0,1
772 934 m 1,60,-1
 861 1354 l 1,61,62
 796 1340 796 1340 735 1292 c 0,63,64
 650 1224 650 1224 628 1121 c 0,65,66
 623 1097 623 1097 623 1076 c 0,67,68
 623 959 623 959 772 934 c 1,60,-1
829 736 m 1,69,-1
 707 162 l 1,70,71
 791 182 791 182 890 259 c 0,72,73
 1004 347 1004 347 1030 469 c 0,74,75
 1038 507 1038 507 1038 540 c 0,76,77
 1038 613 1038 613 998 662 c 0,78,79
 944 727 944 727 829 736 c 1,69,-1
EndSplineSet
Validated: 1
EndChar

StartChar: percent
Encoding: 37 37 8
Width: 1542
GlyphClass: 2
Flags: W
HStem: -40 21G<162.451 206.048> -20 158<1012.34 1145.63> 494 160<1166.36 1299.56> 856 158<566.341 699.631> 1370 160<720.361 853.562> 1530 20G<1655.95 1699.87>
VStem: 374 162<1067.13 1264.67> 820 162<191.127 388.667> 885 161<1121.33 1317.87> 1331 161<245.333 441.873>
DStem2: 111 62 185 -40 0.724919 0.688835<0 2145>
LayerCount: 2
Fore
SplineSet
1058 -20 m 0,0,1
 1037 -20 1037 -20 1016 -14 c 0,2,3
 923 12 923 12 863 102 c 0,4,5
 820 165 820 165 820 243 c 0,6,7
 820 277 820 277 829 317 c 0,8,9
 836 348 836 348 854 375 c 0,10,11
 871 400 871 400 899 420 c 2,12,-1
 1195 630 l 2,13,14
 1229 654 1229 654 1254 654 c 0,15,16
 1275 654 1275 654 1296 648 c 0,17,18
 1389 621 1389 621 1449 532 c 0,19,20
 1492 469 1492 469 1492 391 c 0,21,22
 1492 356 1492 356 1483 317 c 0,23,24
 1476 286 1476 286 1458 259 c 0,25,26
 1441 234 1441 234 1413 214 c 2,27,-1
 1117 4 l 2,28,29
 1083 -20 1083 -20 1058 -20 c 0,0,1
1193 494 m 128,-1,31
 1118 494 1118 494 1060 440 c 128,-1,32
 1002 386 1002 386 987 314 c 0,33,34
 982 290 982 290 982 272 c 0,35,36
 982 226 982 226 1006 190 c 0,37,38
 1040 138 1040 138 1118 138 c 128,-1,39
 1196 138 1196 138 1253 192 c 128,-1,40
 1310 246 1310 246 1326 319 c 0,41,42
 1331 341 1331 341 1331 361 c 0,43,44
 1331 407 1331 407 1305 443 c 0,45,30
 1268 494 1268 494 1193 494 c 128,-1,31
808 1530 m 0,46,47
 829 1530 829 1530 850 1524 c 0,48,49
 943 1498 943 1498 1003 1408 c 0,50,51
 1046 1345 1046 1345 1046 1267 c 0,52,53
 1046 1232 1046 1232 1037 1193 c 0,54,55
 1030 1162 1030 1162 1012 1135 c 0,56,57
 995 1110 995 1110 967 1090 c 2,58,-1
 671 880 l 2,59,60
 637 856 637 856 612 856 c 0,61,62
 591 856 591 856 570 862 c 0,63,64
 477 889 477 889 417 978 c 0,65,66
 374 1041 374 1041 374 1119 c 0,67,68
 374 1153 374 1153 383 1193 c 0,69,70
 390 1224 390 1224 408 1251 c 0,71,72
 425 1276 425 1276 453 1296 c 2,73,-1
 749 1506 l 2,74,75
 783 1530 783 1530 808 1530 c 0,46,47
747 1370 m 128,-1,77
 672 1370 672 1370 614 1316 c 128,-1,78
 556 1262 556 1262 541 1190 c 0,79,80
 536 1166 536 1166 536 1148 c 0,81,82
 536 1102 536 1102 560 1066 c 0,83,84
 594 1014 594 1014 672 1014 c 128,-1,85
 750 1014 750 1014 807 1068 c 128,-1,86
 864 1122 864 1122 880 1195 c 0,87,88
 885 1217 885 1217 885 1237 c 0,89,90
 885 1283 885 1283 859 1319 c 0,91,76
 822 1370 822 1370 747 1370 c 128,-1,77
185 -40 m 1,92,-1
 175 -40 l 1,93,-1
 111 62 l 1,94,-1
 1677 1550 l 1,95,-1
 1687 1550 l 1,96,-1
 1752 1449 l 1,97,-1
 185 -40 l 1,92,-1
EndSplineSet
Validated: 1
EndChar

StartChar: ampersand
Encoding: 38 38 9
Width: 1402
GlyphClass: 2
Flags: W
HStem: -40 21G<1224.49 1268.18> -20 180<506.161 672.344> 1361 169<877.223 1024.84>
VStem: 213 203<255.307 532.262> 447 189<988.031 1204.71>
DStem2: 812 927 739 756 0.53167 -0.846952<89.4622 565.722 663.999 1021.31> 996 346 661 16 0.813468 0.58161<-365.249 -4.91618> 1049.35 -40 1249.35 -40 0.207912 0.978148<570.602 855.645>
LayerCount: 2
Fore
SplineSet
577 -20 m 0,0,1
 537 -20 537 -20 505 -10 c 0,2,3
 366 33 366 33 282 157 c 0,4,5
 213 258 213 258 213 392 c 0,6,7
 213 440 213 440 222 476 c 16,8,9
 230 507 230 507 255 532 c 0,10,11
 280 558 280 558 318 585 c 2,12,-1
 627 804 l 1,13,14
 541 847 541 847 495 916 c 0,15,16
 447 990 447 990 447 1079 c 0,17,18
 447 1106 447 1106 451 1134 c 0,19,20
 457 1173 457 1173 488 1202 c 0,21,22
 516 1229 516 1229 551 1254 c 2,23,-1
 888 1494 l 2,24,25
 939 1530 939 1530 972 1530 c 128,-1,26
 1005 1530 1005 1530 1040 1519 c 0,27,28
 1132 1490 1132 1490 1196 1409 c 0,29,30
 1247 1345 1247 1345 1262 1269 c 1,31,-1
 1085 1142 l 1,32,-1
 1075 1142 l 1,33,34
 1081 1168 1081 1168 1081 1191 c 0,35,36
 1080 1252 1080 1252 1042 1298 c 0,37,38
 990 1361 990 1361 903 1361 c 0,39,40
 809 1361 809 1361 736 1298 c 0,41,42
 660 1233 660 1233 641 1142 c 0,43,44
 636 1118 636 1118 636 1096 c 0,45,46
 636 1037 636 1037 673 991 c 0,47,48
 726 927 726 927 812 927 c 1,49,-1
 1113 448 l 1,50,51
 1168 518 1168 518 1189 617 c 2,52,-1
 1227 797 l 1,53,-1
 1451 957 l 1,54,-1
 1461 957 l 1,55,-1
 1389 617 l 2,56,57
 1379 570 1379 570 1352 526 c 0,58,59
 1334 497 1334 497 1282 460 c 2,60,-1
 1160 373 l 1,61,-1
 1355 62 l 1,62,-1
 1247 -40 l 1,63,-1
 1237 -40 l 1,64,-1
 1035 283 l 1,65,-1
 661 16 l 2,66,67
 611 -20 611 -20 577 -20 c 0,0,1
739 756 m 1,68,69
 633 743 633 743 543 659 c 0,70,71
 446 569 446 569 423 459 c 0,72,73
 416 425 416 425 416 394 c 0,74,75
 416 320 416 320 456 259 c 0,76,77
 523 160 523 160 649 160 c 0,78,79
 737 160 737 160 889 270 c 2,80,-1
 996 346 l 1,81,-1
 739 756 l 1,68,69
EndSplineSet
Validated: 1
EndChar

StartChar: quotesingle
Encoding: 39 39 10
Width: 196
GlyphClass: 2
Flags: W
HStem: 1045 505
VStem: 252 243
DStem2: 252 1045 388.469 1045 0.207912 0.978148<136.742 407.953>
LayerCount: 2
Fore
SplineSet
485 1550 m 1,0,-1
 495 1550 l 1,1,-1
 411 1151 l 1,2,-1
 262 1045 l 1,3,-1
 252 1045 l 1,4,-1
 337 1444 l 1,5,-1
 485 1550 l 1,0,-1
EndSplineSet
Validated: 1
EndChar

StartChar: parenleft
Encoding: 40 40 11
Width: 795
GlyphClass: 2
Flags: W
HStem: -240 180<525.1 672>
VStem: 230 200<39.0132 344.546>
DStem2: 129.471 -240 329.471 -240 0.207912 0.978148<486.329 1644.46>
LayerCount: 2
Fore
SplineSet
601 -240 m 0,0,1
 561 -240 561 -240 529 -230 c 0,2,3
 404 -192 404 -192 305 -58 c 0,4,5
 230 44 230 44 230 185 c 0,6,7
 230 233 230 233 240 280 c 2,8,-1
 441 1230 l 2,9,10
 452 1284 452 1284 479 1321 c 0,11,12
 501 1352 501 1352 549 1387 c 2,13,-1
 1006 1714 l 2,14,15
 1057 1750 1057 1750 1091 1750 c 0,16,17
 1124 1750 1124 1750 1160 1743 c 1,18,-1
 1019 1570 l 1,19,20
 887 1570 887 1570 781 1471 c 0,21,22
 672 1370 672 1370 641 1230 c 2,23,-1
 440 280 l 2,24,25
 430 234 430 234 430 192 c 0,26,27
 430 105 430 105 474 39 c 0,28,29
 541 -60 541 -60 672 -60 c 1,30,-1
 685 -204 l 1,31,32
 634 -240 634 -240 601 -240 c 0,0,1
EndSplineSet
Validated: 1
EndChar

StartChar: parenright
Encoding: 41 41 12
Width: 795
GlyphClass: 2
Flags: W
HStem: 1570 180<444 587.994>
VStem: 686 201<1165.76 1470.99>
DStem2: 364.471 -240 564.471 -240 0.207912 0.978148<431.563 1589.52>
LayerCount: 2
Fore
SplineSet
516 1750 m 0,0,1
 556 1750 556 1750 588 1740 c 0,2,3
 713 1702 713 1702 812 1568 c 0,4,5
 887 1466 887 1466 887 1325 c 0,6,7
 887 1277 887 1277 877 1230 c 2,8,-1
 675 280 l 2,9,10
 663 226 663 226 637 189 c 0,11,12
 615 158 615 158 567 123 c 2,13,-1
 110 -204 l 2,14,15
 59 -240 59 -240 25 -240 c 0,16,17
 -8 -240 -8 -240 -45 -233 c 1,18,-1
 97 -60 l 1,19,20
 229 -60 229 -60 335 39 c 0,21,22
 444 140 444 140 475 280 c 2,23,-1
 676 1230 l 2,24,25
 686 1276 686 1276 686 1318 c 0,26,27
 686 1405 686 1405 642 1471 c 0,28,29
 575 1570 575 1570 444 1570 c 1,30,-1
 431 1714 l 1,31,32
 482 1750 482 1750 516 1750 c 0,0,1
EndSplineSet
Validated: 1
EndChar

StartChar: asterisk
Encoding: 42 42 13
Width: 1046
GlyphClass: 2
Flags: W
HStem: 1530 20G<874.258 912>
DStem2: 337 973 464 915 0.889473 0.456988<86.4577 330.656 571.126 815.324> 486 1392 474 1242 0.835435 -0.549589<72.4132 274.606 475.66 678.688> 614 711 734.232 711 0.207912 0.978148<120.075 323.025 559.599 762.756>
LayerCount: 2
Fore
SplineSet
902 1550 m 1,0,-1
 912 1550 l 1,1,-1
 845 1234 l 1,2,-1
 1062 1346 l 1,3,-1
 1187 1297 l 1,4,-1
 1190 1288 l 1,5,-1
 883 1130 l 1,6,-1
 1053 1019 l 1,7,-1
 1047 877 l 1,8,-1
 1041 869 l 1,9,-1
 801 1027 l 1,10,-1
 754 804 l 1,11,-1
 624 711 l 1,12,-1
 614 711 l 1,13,-1
 681 1027 l 1,14,-1
 464 915 l 1,15,-1
 340 964 l 1,16,-1
 337 973 l 1,17,-1
 643 1131 l 1,18,-1
 474 1242 l 1,19,-1
 479 1384 l 1,20,-1
 486 1392 l 1,21,-1
 725 1234 l 1,22,-1
 773 1457 l 1,23,-1
 902 1550 l 1,0,-1
EndSplineSet
Validated: 1
EndChar

StartChar: plus
Encoding: 43 43 14
Width: 1174
GlyphClass: 2
Flags: W
HStem: 679 151<425 656 838 1070>
DStem2: 575 298 724.918 298 0.207912 0.978148<151.806 389.515 575.055 813.95>
LayerCount: 2
Fore
SplineSet
910 1212 m 1,0,-1
 920 1212 l 1,1,-1
 838 830 l 1,2,-1
 1220 830 l 1,3,-1
 1218 820 l 1,4,-1
 1070 679 l 1,5,-1
 806 679 l 1,6,-1
 750 416 l 1,7,-1
 585 298 l 1,8,-1
 575 298 l 1,9,-1
 656 679 l 1,10,-1
 274 679 l 1,11,-1
 276 689 l 1,12,-1
 425 830 l 1,13,-1
 688 830 l 1,14,-1
 745 1094 l 1,15,-1
 910 1212 l 1,0,-1
EndSplineSet
Validated: 1
EndChar

StartChar: comma
Encoding: 44 44 15
Width: 321
GlyphClass: 2
Flags: W
HStem: -252 472
VStem: 138 166<-54.7402 86>
LayerCount: 2
Fore
SplineSet
238 220 m 1,0,-1
 248 220 l 1,1,2
 304 163 304 163 304 86 c 0,3,4
 304 61 304 61 298 35 c 0,5,6
 264 -123 264 -123 16 -252 c 1,7,-1
 6 -252 l 1,8,-1
 -30 -215 l 1,9,10
 111 -131 111 -131 135 -21 c 0,11,12
 138 -6 138 -6 138 8 c 0,13,14
 138 74 138 74 62 95 c 1,15,-1
 238 220 l 1,0,-1
EndSplineSet
Validated: 1
EndChar

StartChar: hyphen
Encoding: 45 45 16
Width: 1174
GlyphClass: 2
Flags: W
HStem: 679 151<425 1070>
LayerCount: 2
Fore
SplineSet
274 679 m 1,0,-1
 276 689 l 1,1,-1
 425 830 l 1,2,-1
 1220 830 l 1,3,-1
 1218 820 l 1,4,-1
 1070 679 l 1,5,-1
 274 679 l 1,0,-1
EndSplineSet
Validated: 1
EndChar

StartChar: period
Encoding: 46 46 17
Width: 308
GlyphClass: 2
Flags: W
HStem: -20 252<133.875 219.125>
VStem: 50 253<53.8125 158.188>
LayerCount: 2
Fore
SplineSet
138 -20 m 0,0,1
 125 -20 125 -20 110 -14 c 0,2,3
 81 -2 81 -2 65 27 c 0,4,5
 50 55 50 55 50 83 c 0,6,7
 50 94 50 94 52 104 c 0,8,9
 58 133 58 133 85 152 c 2,10,-1
 177 218 l 2,11,12
 197 232 197 232 215 232 c 0,13,14
 228 232 228 232 243 226 c 0,15,16
 273 213 273 213 288 185 c 128,-1,17
 303 157 303 157 303 129 c 0,18,19
 303 118 303 118 301 108 c 0,20,21
 295 79 295 79 268 60 c 2,22,-1
 176 -6 l 2,23,24
 156 -20 156 -20 138 -20 c 0,0,1
EndSplineSet
Validated: 1
EndChar

StartChar: slash
Encoding: 47 47 18
Width: 1035
GlyphClass: 2
Flags: W
DStem2: -19 -135 95 -240 0.56237 0.826886<0 2256.63>
LayerCount: 2
Fore
SplineSet
1273 1750 m 1,0,-1
 1375 1646 l 1,1,-1
 95 -240 l 1,2,-1
 85 -240 l 1,3,-1
 -19 -135 l 1,4,-1
 1263 1750 l 1,5,-1
 1273 1750 l 1,0,-1
EndSplineSet
Validated: 1
EndChar

StartChar: zero
Encoding: 48 48 19
Width: 1310
GlyphClass: 2
Flags: W
HStem: -20 180<543.433 710.839> 1350 180<920.161 1087.57>
VStem: 246 200<262.445 561.44> 1185 200<948.56 1248.33>
DStem2: 145.471 -20 345.471 -20 0.207912 0.978148<487.276 1194.46> 955.471 -20 1155.47 -20 0.207912 0.978148<431.513 1139.06>
LayerCount: 2
Fore
SplineSet
617 -20 m 0,0,1
 577 -20 577 -20 545 -10 c 0,2,3
 420 28 420 28 321 162 c 0,4,5
 246 264 246 264 246 405 c 0,6,7
 246 452 246 452 256 500 c 2,8,-1
 365 1010 l 2,9,10
 377 1066 377 1066 402 1101 c 0,11,12
 426 1134 426 1134 472 1167 c 2,13,-1
 930 1494 l 2,14,15
 980 1530 980 1530 1014 1530 c 0,16,17
 1054 1530 1054 1530 1086 1520 c 0,18,19
 1219 1480 1219 1480 1310 1348 c 0,20,21
 1385 1240 1385 1240 1385 1105 c 0,22,23
 1385 1058 1385 1058 1375 1010 c 2,24,-1
 1266 500 l 2,25,26
 1254 444 1254 444 1229 409 c 0,27,28
 1205 376 1205 376 1159 343 c 2,29,-1
 701 16 l 2,30,31
 651 -20 651 -20 617 -20 c 0,0,1
689 160 m 0,32,33
 821 160 821 160 927 259 c 0,34,35
 1036 360 1036 360 1066 500 c 2,36,-1
 1175 1010 l 2,37,38
 1185 1056 1185 1056 1185 1097 c 0,39,40
 1185 1185 1185 1185 1140 1251 c 0,41,42
 1073 1350 1073 1350 942 1350 c 0,43,44
 810 1350 810 1350 704 1251 c 0,45,46
 595 1150 595 1150 565 1010 c 2,47,-1
 456 500 l 2,48,49
 446 454 446 454 446 413 c 0,50,51
 446 325 446 325 491 259 c 0,52,53
 558 160 558 160 689 160 c 0,32,33
EndSplineSet
Validated: 1
EndChar

StartChar: one
Encoding: 49 49 20
Width: 649
GlyphClass: 2
Flags: W
HStem: -40 21G<265 303.312> 1530 20G<759.866 798>
VStem: 252 546
DStem2: 265 -40 460.266 -40 0.207912 0.978148<198.039 1326.04> 283 1191 252 1046 0.81504 0.579405<0 248.521>
LayerCount: 2
Fore
SplineSet
265 -40 m 1,0,-1
 541 1257 l 1,1,-1
 252 1046 l 1,2,-1
 283 1191 l 1,3,-1
 788 1550 l 1,4,-1
 798 1550 l 1,5,-1
 493 114 l 1,6,-1
 275 -40 l 1,7,-1
 265 -40 l 1,0,-1
EndSplineSet
Validated: 1
EndChar

StartChar: two
Encoding: 50 50 21
Width: 1262
GlyphClass: 2
Flags: W
HStem: 0 130<372 1031> 1350 180<902.702 1066.84>
VStem: 349 201<777.33 1106.48> 1159 198<925.562 1252.25>
LayerCount: 2
Fore
SplineSet
110 0 m 1,0,-1
 112 10 l 1,1,2
 494 463 494 463 878 688 c 0,3,4
 1106 822 1106 822 1149 1021 c 0,5,6
 1159 1066 1159 1066 1159 1107 c 0,7,8
 1159 1190 1159 1190 1117 1251 c 0,9,10
 1050 1350 1050 1350 924 1350 c 0,11,12
 797 1350 797 1350 691 1251 c 0,13,14
 588 1156 588 1156 559 1021 c 0,15,16
 550 977 550 977 550 938 c 0,17,18
 550 862 550 862 584 804 c 1,19,-1
 427 693 l 1,20,-1
 417 693 l 1,21,22
 349 794 349 794 349 926 c 0,23,24
 349 973 349 973 359 1021 c 16,25,26
 371 1076 371 1076 396 1111 c 0,27,28
 418 1143 418 1143 466 1177 c 2,29,-1
 912 1494 l 2,30,31
 963 1530 963 1530 996 1530 c 0,32,33
 1036 1530 1036 1530 1068 1520 c 0,34,35
 1217 1473 1217 1473 1292 1348 c 0,36,37
 1357 1240 1357 1240 1357 1106 c 0,38,39
 1357 1065 1357 1065 1349 1021 c 0,40,41
 1292 702 1292 702 919 529 c 0,42,43
 600 379 600 379 372 130 c 1,44,-1
 1160 130 l 1,45,-1
 1158 120 l 1,46,-1
 1031 0 l 1,47,-1
 110 0 l 1,0,-1
EndSplineSet
Validated: 1
EndChar

StartChar: three
Encoding: 51 51 22
Width: 1233
GlyphClass: 2
Flags: W
HStem: -20 180<499.161 663.298> 1380 130<641 1073>
VStem: 1017 200<403.519 720.943>
DStem2: 608 796 940 972 0.622896 0.782304<344.487 746.513>
LayerCount: 2
Fore
SplineSet
570 -20 m 0,0,1
 530 -20 530 -20 498 -10 c 0,2,3
 364 32 364 32 274 162 c 0,4,5
 213 250 213 250 202 356 c 1,6,-1
 409 500 l 1,7,-1
 419 500 l 1,8,9
 408 449 408 449 408 405 c 0,10,11
 408 319 408 319 449 259 c 0,12,13
 516 160 516 160 642 160 c 0,14,15
 769 160 769 160 875 259 c 0,16,17
 978 354 978 354 1007 489 c 16,18,19
 1017 534 1017 534 1017 575 c 0,20,21
 1017 658 1017 658 975 719 c 0,22,23
 908 818 908 818 782 818 c 0,24,25
 703 818 703 818 633 780 c 1,26,-1
 608 796 l 1,27,-1
 1073 1380 l 1,28,-1
 512 1380 l 1,29,-1
 514 1390 l 1,30,-1
 641 1510 l 1,31,-1
 1375 1510 l 1,32,-1
 1373 1500 l 1,33,-1
 940 972 l 1,34,35
 1067 936 1067 936 1142 827 c 0,36,37
 1217 719 1217 719 1217 584 c 0,38,39
 1217 537 1217 537 1207 489 c 24,40,41
 1195 434 1195 434 1170 399 c 0,42,43
 1148 367 1148 367 1100 333 c 2,44,-1
 654 16 l 2,45,46
 603 -20 603 -20 570 -20 c 0,0,1
EndSplineSet
Validated: 1
EndChar

StartChar: four
Encoding: 52 52 23
Width: 1168
GlyphClass: 2
Flags: W
HStem: -40 21G<729 767.267> 372 130<407 817 1035 1066> 1530 20G<1099.5 1157>
DStem2: 729 -40 919.117 -40 0.207912 0.978148<192.879 421.293 593.777 750.602>
LayerCount: 2
Fore
SplineSet
739 -40 m 1,0,-1
 729 -40 l 1,1,-1
 817 372 l 1,2,-1
 84 372 l 1,3,-1
 86 382 l 1,4,5
 707 760 707 760 811 1247 c 0,6,7
 819 1283 819 1283 824 1320 c 1,8,-1
 1147 1550 l 1,9,-1
 1157 1550 l 1,10,11
 1042 940 1042 940 407 502 c 1,12,-1
 845 502 l 1,13,-1
 886 694 l 1,14,-1
 1097 844 l 1,15,-1
 1107 844 l 1,16,-1
 1035 502 l 1,17,-1
 1195 502 l 1,18,-1
 1193 492 l 1,19,-1
 1066 372 l 1,20,-1
 1007 372 l 1,21,-1
 951 110 l 1,22,-1
 739 -40 l 1,0,-1
EndSplineSet
Validated: 1
EndChar

StartChar: five
Encoding: 53 53 24
Width: 1233
GlyphClass: 2
Flags: W
HStem: -20 180<499.161 663.298> 818 180<758.256 924.836> 1380 130<775 1243>
VStem: 1017 200<403.519 722.222>
DStem2: 356 874 558 920 0.418846 0.908057<126.377 596.879>
LayerCount: 2
Fore
SplineSet
570 -20 m 0,0,1
 530 -20 530 -20 498 -10 c 0,2,3
 364 32 364 32 274 162 c 0,4,5
 213 250 213 250 202 356 c 1,6,-1
 409 500 l 1,7,-1
 419 500 l 1,8,9
 408 449 408 449 408 405 c 0,10,11
 408 319 408 319 449 259 c 0,12,13
 516 160 516 160 642 160 c 0,14,15
 769 160 769 160 875 259 c 0,16,17
 978 354 978 354 1007 489 c 16,18,19
 1017 534 1017 534 1017 575 c 0,20,21
 1017 658 1017 658 975 719 c 0,22,23
 908 818 908 818 782 818 c 0,24,25
 655 818 655 818 549 719 c 1,26,-1
 356 874 l 1,27,-1
 606 1416 l 1,28,-1
 738 1510 l 1,29,-1
 1372 1510 l 1,30,-1
 1370 1500 l 1,31,-1
 1243 1380 l 1,32,-1
 775 1380 l 1,33,-1
 558 920 l 1,34,-1
 630 863 l 1,35,-1
 769 962 l 2,36,37
 820 998 820 998 853 998 c 0,38,39
 893 998 893 998 925 988 c 0,40,41
 1061 945 1061 945 1149 816 c 0,42,43
 1217 716 1217 716 1217 584 c 0,44,45
 1217 537 1217 537 1207 489 c 24,46,47
 1195 434 1195 434 1170 399 c 0,48,49
 1145 365 1145 365 1100 333 c 2,50,-1
 654 16 l 2,51,52
 603 -20 603 -20 570 -20 c 0,0,1
EndSplineSet
Validated: 1
EndChar

StartChar: six
Encoding: 54 54 25
Width: 1250
GlyphClass: 2
Flags: W
HStem: -20 180<537.165 700.298> 818 180<796.061 960.335> 1350 180<910.702 1072.08>
VStem: 242 202<257.5 550.014> 1054 200<404.713 721.119>
DStem2: 145.809 -20 345.809 -20 0.207912 0.978148<477.009 751.954 829.871 1205.49>
LayerCount: 2
Fore
SplineSet
606 -20 m 0,0,1
 578 -20 578 -20 538 -11 c 0,2,3
 402 19 402 19 314 147 c 0,4,5
 242 251 242 251 242 381 c 0,6,7
 242 433 242 433 254 489 c 2,8,-1
 367 1021 l 2,9,10
 380 1081 380 1081 404 1111 c 0,11,12
 433 1148 433 1148 474 1177 c 2,13,-1
 920 1494 l 2,14,15
 971 1530 971 1530 1004 1530 c 0,16,17
 1031 1530 1031 1530 1073 1521 c 0,18,19
 1211 1490 1211 1490 1301 1352 c 0,20,21
 1316 1329 1316 1329 1317 1326 c 1,22,-1
 1157 1212 l 1,23,-1
 1147 1212 l 1,24,25
 1141 1229 1141 1229 1125 1251 c 0,26,27
 1053 1350 1053 1350 932 1350 c 0,28,29
 805 1350 805 1350 699 1251 c 0,30,31
 595 1155 595 1155 567 1021 c 2,32,-1
 510 751 l 1,33,-1
 806 962 l 2,34,35
 857 998 857 998 890 998 c 0,36,37
 918 998 918 998 959 989 c 0,38,39
 1097 959 1097 959 1185 827 c 0,40,41
 1254 724 1254 724 1254 595 c 0,42,43
 1254 546 1254 546 1243 489 c 128,-1,44
 1232 432 1232 432 1207 399 c 0,45,46
 1181 364 1181 364 1137 333 c 2,47,-1
 691 16 l 2,48,49
 640 -20 640 -20 606 -20 c 0,0,1
679 160 m 0,50,51
 806 160 806 160 912 259 c 0,52,53
 1015 354 1015 354 1044 489 c 0,54,55
 1054 534 1054 534 1054 575 c 0,56,57
 1054 658 1054 658 1012 719 c 0,58,59
 945 818 945 818 819 818 c 0,60,61
 692 818 692 818 586 719 c 0,62,63
 483 624 483 624 454 489 c 0,64,65
 444 444 444 444 444 403 c 0,66,67
 444 320 444 320 486 259 c 0,68,69
 553 160 553 160 679 160 c 0,50,51
EndSplineSet
Validated: 1
EndChar

StartChar: seven
Encoding: 55 55 26
Width: 959
GlyphClass: 2
Flags: W
HStem: -40 21G<312 360.173> 1380 130<452 952>
VStem: 302 272<128.438 488.531>
LayerCount: 2
Fore
SplineSet
332 -40 m 1,0,-1
 322 -40 l 1,1,2
 302 50 302 50 302 154 c 0,3,4
 302 265 302 265 325 392 c 0,5,6
 430 978 430 978 952 1380 c 1,7,-1
 323 1380 l 1,8,-1
 325 1390 l 1,9,-1
 452 1510 l 1,10,-1
 1275 1510 l 1,11,-1
 1273 1500 l 1,12,13
 690 1110 690 1110 597 675 c 0,14,15
 574 566 574 566 574 462 c 0,16,17
 574 309 574 309 625 168 c 1,18,-1
 332 -40 l 1,0,-1
EndSplineSet
Validated: 1
EndChar

StartChar: eight
Encoding: 56 56 27
Width: 1230
GlyphClass: 2
Flags: W
HStem: -20 180<506.161 670.298> 758 169<692.223 918.679> 1361 169<877.223 1024.84>
VStem: 213 203<255.307 532.262> 447 189<988.031 1204.77> 1010 206<388.966 662.07> 1081 188<1081.49 1300.52>
LayerCount: 2
Fore
SplineSet
577 -20 m 0,0,1
 537 -20 537 -20 505 -10 c 0,2,3
 367 32 367 32 282 157 c 0,4,5
 213 258 213 258 213 392 c 0,6,7
 213 440 213 440 222 476 c 16,8,9
 230 507 230 507 255 532 c 0,10,11
 280 558 280 558 318 585 c 2,12,-1
 627 804 l 1,13,14
 541 847 541 847 495 916 c 0,15,16
 447 990 447 990 447 1079 c 0,17,18
 447 1106 447 1106 451 1134 c 0,19,20
 457 1173 457 1173 488 1202 c 0,21,22
 517 1230 517 1230 551 1254 c 2,23,-1
 888 1494 l 2,24,25
 939 1530 939 1530 972 1530 c 128,-1,26
 1005 1530 1005 1530 1040 1519 c 0,27,28
 1134 1489 1134 1489 1196 1409 c 0,29,30
 1269 1317 1269 1317 1269 1201 c 0,31,32
 1269 1179 1269 1179 1266 1157 c 0,33,34
 1262 1127 1262 1127 1240 1098 c 0,35,36
 1219 1072 1219 1072 1166 1035 c 2,37,-1
 975 900 l 1,38,39
 1095 844 1095 844 1160 737 c 0,40,41
 1216 644 1216 644 1216 540 c 0,42,43
 1216 500 1216 500 1208 459 c 0,44,45
 1201 424 1201 424 1177 395 c 0,46,47
 1155 367 1155 367 1107 333 c 2,48,-1
 661 16 l 2,49,50
 610 -20 610 -20 577 -20 c 0,0,1
813 927 m 0,51,52
 905 927 905 927 980.5 990 c 128,-1,53
 1056 1053 1056 1053 1075 1142 c 0,54,55
 1081 1168 1081 1168 1081 1191 c 0,56,57
 1080 1252 1080 1252 1042 1298 c 0,58,59
 990 1361 990 1361 903 1361 c 0,60,61
 809 1361 809 1361 736 1298 c 0,62,63
 660 1233 660 1233 641 1142 c 0,64,65
 636 1118 636 1118 636 1096 c 0,66,67
 636 1037 636 1037 673 991 c 0,68,69
 726 927 726 927 813 927 c 0,51,52
649 160 m 0,70,71
 776 160 776 160 882 259 c 0,72,73
 979 349 979 349 1003 459 c 0,74,75
 1010 492 1010 492 1010 523 c 0,76,77
 1010 598 1010 598 969 659 c 0,78,79
 902 758 902 758 776 758 c 0,80,81
 649 758 649 758 543 659 c 0,82,83
 446 569 446 569 423 459 c 0,84,85
 416 425 416 425 416 394 c 0,86,87
 416 320 416 320 456 259 c 0,88,89
 523 160 523 160 649 160 c 0,70,71
EndSplineSet
Validated: 1
EndChar

StartChar: nine
Encoding: 57 57 28
Width: 1250
GlyphClass: 2
Flags: W
HStem: -20 180<498.917 660.298> 512 180<610.665 774.939> 1350 180<870.702 1033.84>
VStem: 317 200<787.93 1105.29> 1127 202<921.442 1254.27>
DStem2: 895.809 -20 1095.81 -20 0.207912 0.978148<420.706 796.322 874.239 1149.19>
LayerCount: 2
Fore
SplineSet
567 -20 m 0,0,1
 540 -20 540 -20 498 -11 c 0,2,3
 360 20 360 20 270 158 c 0,4,5
 255 181 255 181 254 184 c 1,6,-1
 414 298 l 1,7,-1
 424 298 l 1,8,9
 430 281 430 281 446 259 c 0,10,11
 518 160 518 160 639 160 c 0,12,13
 766 160 766 160 872 259 c 0,14,15
 976 355 976 355 1004 489 c 2,16,-1
 1061 759 l 1,17,-1
 765 548 l 2,18,19
 714 512 714 512 681 512 c 0,20,21
 653 512 653 512 612 521 c 0,22,23
 475 552 475 552 385 684 c 0,24,25
 317 783 317 783 317 915 c 0,26,27
 317 964 317 964 328 1021 c 128,-1,28
 339 1078 339 1078 364 1111 c 0,29,30
 391 1147 391 1147 434 1177 c 2,31,-1
 880 1494 l 2,32,33
 931 1530 931 1530 965 1530 c 0,34,35
 993 1530 993 1530 1033 1521 c 0,36,37
 1176 1489 1176 1489 1262 1353 c 0,38,39
 1329 1247 1329 1247 1329 1129 c 0,40,41
 1329 1077 1329 1077 1317 1021 c 2,42,-1
 1204 489 l 2,43,44
 1191 429 1191 429 1167 399 c 0,45,46
 1138 362 1138 362 1097 333 c 2,47,-1
 651 16 l 2,48,49
 600 -20 600 -20 567 -20 c 0,0,1
892 1350 m 0,50,51
 765 1350 765 1350 659 1251 c 0,52,53
 556 1156 556 1156 527 1021 c 0,54,55
 517 976 517 976 517 935 c 0,56,57
 517 852 517 852 559 791 c 0,58,59
 626 692 626 692 752 692 c 0,60,61
 879 692 879 692 985 791 c 0,62,63
 1088 886 1088 886 1117 1021 c 0,64,65
 1127 1066 1127 1066 1127 1107 c 0,66,67
 1127 1190 1127 1190 1085 1251 c 0,68,69
 1018 1350 1018 1350 892 1350 c 0,50,51
EndSplineSet
Validated: 1
EndChar

StartChar: colon
Encoding: 58 58 29
Width: 308
GlyphClass: 2
Flags: W
HStem: -20 21G<131.5 147>
VStem: 50 253<53.8125 158.188> 187 254<701 805>
LayerCount: 2
Fore
SplineSet
138 -20 m 0,0,1
 125 -20 125 -20 110 -14 c 0,2,3
 81 -2 81 -2 65 27 c 0,4,5
 50 55 50 55 50 83 c 0,6,7
 50 94 50 94 52 104 c 0,8,9
 58 133 58 133 85 152 c 2,10,-1
 177 218 l 2,11,12
 197 232 197 232 215 232 c 0,13,14
 228 232 228 232 243 226 c 0,15,16
 273 213 273 213 288 185 c 128,-1,17
 303 157 303 157 303 129 c 0,18,19
 303 118 303 118 301 108 c 0,20,21
 295 79 295 79 268 60 c 2,22,-1
 176 -6 l 2,23,24
 156 -20 156 -20 138 -20 c 0,0,1
353 879 m 0,25,26
 366 879 366 879 381 873 c 0,27,28
 411 860 411 860 426 832 c 0,29,30
 441 805 441 805 441 778 c 0,31,32
 441 766 441 766 438 755 c 0,33,34
 432 726 432 726 405 707 c 2,35,-1
 313 641 l 2,36,37
 293 627 293 627 275 627 c 0,38,39
 262 627 262 627 248 633 c 0,40,41
 219 645 219 645 202 674 c 0,42,43
 187 701 187 701 187 728 c 0,44,45
 187 740 187 740 190 751 c 0,46,47
 196 780 196 780 223 799 c 2,48,-1
 315 865 l 2,49,50
 335 879 335 879 353 879 c 0,25,26
EndSplineSet
Validated: 1
EndChar

StartChar: semicolon
Encoding: 59 59 30
Width: 321
GlyphClass: 2
Flags: W
VStem: 138 166<-54.7402 86> 187 254<701 805>
LayerCount: 2
Fore
SplineSet
238 220 m 1,0,-1
 248 220 l 1,1,2
 304 163 304 163 304 86 c 0,3,4
 304 61 304 61 298 35 c 0,5,6
 264 -123 264 -123 16 -252 c 1,7,-1
 6 -252 l 1,8,-1
 -30 -215 l 1,9,10
 111 -131 111 -131 135 -21 c 0,11,12
 138 -6 138 -6 138 8 c 0,13,14
 138 74 138 74 62 95 c 1,15,-1
 238 220 l 1,0,-1
353 879 m 0,16,17
 366 879 366 879 381 873 c 0,18,19
 411 860 411 860 426 832 c 0,20,21
 441 805 441 805 441 778 c 0,22,23
 441 766 441 766 438 755 c 0,24,25
 432 726 432 726 405 707 c 2,26,-1
 313 641 l 2,27,28
 293 627 293 627 275 627 c 0,29,30
 262 627 262 627 248 633 c 0,31,32
 219 645 219 645 202 674 c 0,33,34
 187 701 187 701 187 728 c 0,35,36
 187 740 187 740 190 751 c 0,37,38
 196 780 196 780 223 799 c 2,39,-1
 315 865 l 2,40,41
 335 879 335 879 353 879 c 0,16,17
EndSplineSet
Validated: 1
EndChar

StartChar: less
Encoding: 60 60 31
Width: 1236
GlyphClass: 2
Flags: W
DStem2: 518 772 281 709 0.887934 -0.459971<0 662.069> 401 832 518 772 0.920104 0.391673<84.1518 914.027>
LayerCount: 2
Fore
SplineSet
1242 1190 m 1,0,-1
 1292 1110 l 1,1,-1
 1290 1100 l 1,2,-1
 518 772 l 1,3,-1
 1150 444 l 1,4,-1
 1148 434 l 1,5,-1
 1030 321 l 1,6,-1
 281 709 l 1,7,-1
 283 719 l 1,8,-1
 401 832 l 1,9,-1
 1242 1190 l 1,0,-1
EndSplineSet
Validated: 1
EndChar

StartChar: equal
Encoding: 61 61 32
Width: 1174
GlyphClass: 2
Flags: W
HStem: 502 151<388 1033> 857 151<463 1108>
LayerCount: 2
Fore
SplineSet
237 502 m 1,0,-1
 239 512 l 1,1,-1
 388 653 l 1,2,-1
 1183 653 l 1,3,-1
 1181 643 l 1,4,-1
 1033 502 l 1,5,-1
 237 502 l 1,0,-1
312 857 m 1,6,-1
 314 867 l 1,7,-1
 463 1008 l 1,8,-1
 1258 1008 l 1,9,-1
 1256 998 l 1,10,-1
 1108 857 l 1,11,-1
 312 857 l 1,6,-1
EndSplineSet
Validated: 1
EndChar

StartChar: greater
Encoding: 62 62 33
Width: 1236
GlyphClass: 2
Flags: W
DStem2: 267 411 315 321 0.920104 0.391673<8.9144 838.789> 527 1190 407 1067 0.887934 -0.459971<0 662.069>
LayerCount: 2
Fore
SplineSet
527 1190 m 1,0,-1
 1276 802 l 1,1,-1
 1274 792 l 1,2,-1
 1156 679 l 1,3,-1
 315 321 l 1,4,-1
 265 401 l 1,5,-1
 267 411 l 1,6,-1
 1039 739 l 1,7,-1
 407 1067 l 1,8,-1
 409 1077 l 1,9,-1
 527 1190 l 1,0,-1
EndSplineSet
Validated: 1
EndChar

StartChar: question
Encoding: 63 63 34
Width: 1250
GlyphClass: 2
Flags: W
HStem: -20 21G<600.5 616> 1350 180<890.702 1054.84>
VStem: 337 201<777.33 1106.48> 519 253<53.8125 158.188> 1147 198<932.358 1252.25>
LayerCount: 2
Fore
SplineSet
984 1530 m 0,0,1
 1024 1530 1024 1530 1056 1520 c 0,2,3
 1205 1473 1205 1473 1280 1348 c 0,4,5
 1345 1240 1345 1240 1345 1106 c 0,6,7
 1345 1059 1345 1059 1335 1011 c 24,8,9
 1324 963 1324 963 1300 931 c 0,10,11
 1277 899 1277 899 1230 865 c 2,12,-1
 1032 724 l 2,13,14
 882 617 882 617 815 457 c 1,15,-1
 577 288 l 1,16,-1
 567 288 l 1,17,18
 617 523 617 523 833 666 c 0,19,20
 971 758 971 758 1005 791 c 0,21,22
 1110 893 1110 893 1137 1021 c 0,23,24
 1147 1066 1147 1066 1147 1107 c 0,25,26
 1147 1190 1147 1190 1105 1251 c 0,27,28
 1038 1350 1038 1350 912 1350 c 0,29,30
 785 1350 785 1350 679 1251 c 0,31,32
 576 1156 576 1156 547 1021 c 16,33,34
 538 977 538 977 538 938 c 0,35,36
 538 862 538 862 572 804 c 1,37,-1
 415 693 l 1,38,-1
 405 693 l 1,39,40
 337 794 337 794 337 926 c 0,41,42
 337 973 337 973 347 1021 c 16,43,44
 359 1076 359 1076 384 1111 c 0,45,46
 406 1143 406 1143 454 1177 c 2,47,-1
 900 1494 l 2,48,49
 951 1530 951 1530 984 1530 c 0,0,1
607 -20 m 0,50,51
 594 -20 594 -20 579 -14 c 0,52,53
 550 -2 550 -2 534 27 c 0,54,55
 519 55 519 55 519 83 c 0,56,57
 519 94 519 94 521 104 c 0,58,59
 527 133 527 133 554 152 c 2,60,-1
 646 218 l 2,61,62
 666 232 666 232 684 232 c 0,63,64
 697 232 697 232 712 226 c 0,65,66
 742 213 742 213 757 185 c 128,-1,67
 772 157 772 157 772 129 c 0,68,69
 772 118 772 118 770 108 c 0,70,71
 764 79 764 79 737 60 c 2,72,-1
 645 -6 l 2,73,74
 625 -20 625 -20 607 -20 c 0,50,51
EndSplineSet
Validated: 1
EndChar

StartChar: at
Encoding: 64 64 35
Width: 1270
GlyphClass: 2
Flags: W
HStem: -40 21G<951 989.112> -20 160<747.875 900.394> 960 160<812.174 989.677>
VStem: 138 181<-156.815 241.406> 507 182<198.887 353>
DStem2: 43.3594 -407 223.359 -407 0.207912 0.978148<457.679 1170.95> 582 377 691 353 0.814487 0.580182<56.0926 570.185> 873.717 -407 1053.6 -407 0.207912 0.978148<560.922 1070.27>
LayerCount: 2
Fore
SplineSet
961 -40 m 1,0,-1
 951 -40 l 1,1,-1
 977 79 l 1,2,-1
 888 16 l 2,3,4
 837 -20 837 -20 804 -20 c 0,5,6
 762 -20 762 -20 734 -13 c 0,7,8
 638 12 638 12 570 94 c 0,9,10
 507 169 507 169 507 263 c 0,11,12
 507 274 507 274 508 285 c 0,13,14
 510 310 510 310 531 334 c 0,15,16
 547 352 547 352 582 377 c 2,17,-1
 1093 741 l 1,18,19
 1083 802 1083 802 1049 854 c 0,20,21
 980 960 980 960 839 960 c 0,22,23
 703 960 703 960 587 854 c 0,24,25
 469 746 469 746 438 600 c 2,26,-1
 329 90 l 2,27,28
 319 43 319 43 319 1 c 0,29,30
 319 -93 319 -93 368 -164 c 0,31,32
 443 -273 443 -273 580 -273 c 1,33,-1
 391 -407 l 1,34,-1
 381 -407 l 1,35,36
 274 -348 274 -348 209 -249 c 0,37,38
 138 -138 138 -138 138 -12 c 0,39,40
 138 38 138 38 149 90 c 2,41,-1
 258 600 l 2,42,43
 270 657 270 657 295 691 c 0,44,45
 319 724 319 724 365 757 c 2,46,-1
 822 1084 l 2,47,48
 872 1120 872 1120 909 1120 c 128,-1,49
 946 1120 946 1120 980 1109 c 0,50,51
 1129 1063 1129 1063 1210 945 c 0,52,53
 1280 841 1280 841 1280 713 c 0,54,55
 1280 659 1280 659 1268 600 c 2,56,-1
 1162 103 l 1,57,-1
 961 -40 l 1,0,-1
997 173 m 1,58,-1
 1088 600 l 2,59,60
 1092 621 1092 621 1094 641 c 1,61,-1
 691 353 l 1,62,63
 689 338 689 338 689 323 c 0,64,65
 689 253 689 253 726 207 c 0,66,67
 781 140 781 140 871 140 c 0,68,69
 939 140 939 140 997 173 c 1,58,-1
EndSplineSet
Validated: 1
EndChar

StartChar: A
Encoding: 65 65 36
Width: 1365
GlyphClass: 2
Flags: W
HStem: -40 21G<126 271.5 1071 1156> 520 130<244 306 533 1096> 1350 180<955.872 1119.66>
VStem: 1024 207<69.3633 389.844> 1212 200<859.844 1254.33>
DStem2: 186.968 -40 386.533 -40 0.207912 0.978148<186.95 572.511 746.866 1226.02> 976.735 -40 1176.48 -40 0.207912 0.978148<287.224 572.559 705.332 1168.65>
LayerCount: 2
Fore
SplineSet
533 650 m 1,0,-1
 1123 650 l 1,1,-1
 1202 1020 l 2,2,3
 1212 1066 1212 1066 1212 1106 c 0,4,5
 1212 1190 1212 1190 1170 1251 c 0,6,7
 1103 1350 1103 1350 977 1350 c 0,8,9
 852 1350 852 1350 744 1251 c 0,10,11
 641 1156 641 1156 612 1020 c 2,12,-1
 533 650 l 1,0,-1
126 -40 m 1,13,14
 218 108 218 108 252 268 c 2,15,-1
 306 520 l 1,16,-1
 116 520 l 1,17,-1
 118 530 l 1,18,-1
 244 650 l 1,19,-1
 333 650 l 1,20,-1
 412 1020 l 2,21,22
 425 1082 425 1082 449 1111 c 0,23,24
 481 1150 481 1150 519 1177 c 2,25,-1
 965 1494 l 2,26,27
 1016 1530 1016 1530 1054 1530 c 0,28,29
 1091 1530 1091 1530 1111 1524 c 0,30,31
 1250 1483 1250 1483 1337 1358 c 0,32,33
 1412 1250 1412 1250 1412 1115 c 0,34,35
 1412 1067 1412 1067 1402 1020 c 2,36,-1
 1236 240 l 2,37,38
 1231 218 1231 218 1231 199 c 0,39,40
 1231 126 1231 126 1303 105 c 1,41,-1
 1128 -20 l 1,42,-1
 1118 -20 l 1,43,44
 1024 39 1024 39 1024 151 c 0,45,46
 1024 183 1024 183 1032 220 c 2,47,-1
 1096 520 l 1,48,-1
 506 520 l 1,49,-1
 452 268 l 2,50,51
 407 56 407 56 136 -40 c 1,52,-1
 126 -40 l 1,13,14
EndSplineSet
Validated: 1
EndChar

StartChar: B
Encoding: 66 66 37
Width: 1232
GlyphClass: 2
Flags: W
HStem: -40 21G<171 418.5> 1384 146<894.871 951.75> 1530 20G<670.95 709>
VStem: 1069 217<487.65 749.315> 1074 179<1100.46 1290.86>
DStem2: 171 -40 371.242 -40 0.207912 0.978148<184.76 1463.14>
LayerCount: 2
Fore
SplineSet
171 -40 m 1,0,-1
 476 1391 l 1,1,-1
 699 1550 l 1,2,-1
 709 1550 l 1,3,-1
 401 100 l 1,4,5
 675 146 675 146 840 263 c 0,6,7
 1025 394 1025 394 1062 570 c 0,8,9
 1069 601 1069 601 1069 629 c 0,10,11
 1069 737 1069 737 969 794 c 0,12,13
 890 839 890 839 722 847 c 1,14,15
 1032 974 1032 974 1069 1148 c 0,16,17
 1074 1169 1074 1169 1074 1189 c 0,18,19
 1074 1267 1074 1267 999 1316 c 0,20,21
 901 1379 901 1379 710 1384 c 1,22,-1
 915 1530 l 1,23,24
 1065 1522 1065 1522 1167 1433 c 0,25,26
 1253 1357 1253 1357 1253 1247 c 0,27,28
 1253 1229 1253 1229 1251 1211 c 0,29,30
 1234 1067 1234 1067 1055 965 c 1,31,32
 1138 946 1138 946 1195 887 c 0,33,34
 1286 793 1286 793 1286 667 c 0,35,36
 1286 643 1286 643 1283 618 c 0,37,38
 1250 384 1250 384 959 202 c 0,39,40
 656 13 656 13 181 -40 c 1,41,-1
 171 -40 l 1,0,-1
EndSplineSet
Validated: 1
EndChar

StartChar: C
Encoding: 67 67 38
Width: 1247
GlyphClass: 2
Flags: W
HStem: -20 180<524.964 690.04> 1350 180<900.608 1064.84>
VStem: 226 205<261.668 561.44>
DStem2: 125.471 -20 330.471 -20 0.207912 0.978148<488.316 1195.73> 907 259 681 16 0.813854 0.58107<-200.335 360.454>
LayerCount: 2
Fore
SplineSet
597 -20 m 0,0,1
 557 -20 557 -20 525 -10 c 0,2,3
 391 32 391 32 301 162 c 0,4,5
 226 270 226 270 226 405 c 0,6,7
 226 453 226 453 236 500 c 2,8,-1
 345 1010 l 2,9,10
 357 1065 357 1065 382 1101 c 0,11,12
 403 1132 403 1132 452 1167 c 2,13,-1
 910 1494 l 2,14,15
 960 1530 960 1530 994 1530 c 0,16,17
 1034 1530 1034 1530 1066 1520 c 0,18,19
 1200 1478 1200 1478 1290 1348 c 0,20,21
 1351 1260 1351 1260 1362 1154 c 1,22,-1
 1160 1010 l 1,23,-1
 1150 1010 l 1,24,25
 1159 1055 1159 1055 1159 1096 c 0,26,27
 1159 1184 1159 1184 1115 1251 c 0,28,29
 1048 1350 1048 1350 922 1350 c 0,30,31
 795 1350 795 1350 689 1251 c 0,32,33
 580 1150 580 1150 550 1010 c 2,34,-1
 441 500 l 2,35,36
 431 454 431 454 431 413 c 0,37,38
 431 325 431 325 476 259 c 0,39,40
 543 160 543 160 656 160 c 128,-1,41
 769 160 769 160 907 259 c 2,42,-1
 1243 500 l 1,43,44
 1230 439 1230 439 1209 409 c 0,45,46
 1185 376 1185 376 1139 343 c 2,47,-1
 681 16 l 2,48,49
 631 -20 631 -20 597 -20 c 0,0,1
EndSplineSet
Validated: 1
EndChar

StartChar: D
Encoding: 68 68 39
Width: 1293
GlyphClass: 2
Flags: W
HStem: -40 21G<171 377> 1530 20G<670.95 709 886.918 1039>
VStem: 1197 215<765.432 1144.14>
DStem2: 171 -40 371.242 -40 0.207912 0.978148<184.76 1463.14>
LayerCount: 2
Fore
SplineSet
171 -40 m 1,0,-1
 476 1391 l 1,1,-1
 699 1550 l 1,2,-1
 709 1550 l 1,3,-1
 401 100 l 1,4,5
 656 188 656 188 846 326 c 0,6,7
 1117 522 1117 522 1183 834 c 0,8,9
 1197 897 1197 897 1197 955 c 0,10,11
 1197 1118 1197 1118 1088 1233 c 0,12,13
 966 1362 966 1362 710 1384 c 1,14,-1
 915 1530 l 1,15,16
 1163 1508 1163 1508 1303 1324 c 0,17,18
 1412 1179 1412 1179 1412 999 c 0,19,20
 1412 945 1412 945 1402 888 c 0,21,22
 1330 485 1330 485 897 220 c 0,23,24
 573 22 573 22 181 -40 c 1,25,-1
 171 -40 l 1,0,-1
EndSplineSet
Validated: 1
EndChar

StartChar: E
Encoding: 69 69 40
Width: 1108
GlyphClass: 2
Flags: W
HStem: 0 130<135 223 423 977> 520 130<244 306 533 875> 1380 130<688 1127>
DStem2: 195.368 0 395.368 0 0.207912 0.978148<174.487 531.639 705.994 1419.9>
LayerCount: 2
Fore
SplineSet
5 0 m 1,0,-1
 7 8 l 1,1,-1
 135 130 l 1,2,-1
 223 130 l 1,3,-1
 306 520 l 1,4,-1
 116 520 l 1,5,-1
 118 530 l 1,6,-1
 244 650 l 1,7,-1
 333 650 l 1,8,-1
 490 1389 l 1,9,-1
 660 1510 l 1,10,-1
 1256 1510 l 1,11,-1
 1254 1500 l 1,12,-1
 1127 1380 l 1,13,-1
 688 1380 l 1,14,-1
 533 650 l 1,15,-1
 1003 650 l 1,16,-1
 1001 640 l 1,17,-1
 875 520 l 1,18,-1
 506 520 l 1,19,-1
 423 130 l 1,20,-1
 1106 130 l 1,21,-1
 1104 120 l 1,22,-1
 977 0 l 1,23,-1
 5 0 l 1,0,-1
EndSplineSet
Validated: 1
EndChar

StartChar: F
Encoding: 70 70 41
Width: 1035
GlyphClass: 2
Flags: W
HStem: -40 21G<186 224.176> 520 130<244 306 533 875> 1380 130<688 1127>
DStem2: 186 -40 386.204 -40 0.207912 0.978148<204.177 572.712 747.067 1460.98>
LayerCount: 2
Fore
SplineSet
186 -40 m 1,0,-1
 306 520 l 1,1,-1
 116 520 l 1,2,-1
 118 530 l 1,3,-1
 244 650 l 1,4,-1
 333 650 l 1,5,-1
 490 1389 l 1,6,-1
 660 1510 l 1,7,-1
 1256 1510 l 1,8,-1
 1254 1500 l 1,9,-1
 1127 1380 l 1,10,-1
 688 1380 l 1,11,-1
 533 650 l 1,12,-1
 1003 650 l 1,13,-1
 1001 640 l 1,14,-1
 875 520 l 1,15,-1
 506 520 l 1,16,-1
 420 119 l 1,17,-1
 196 -40 l 1,18,-1
 186 -40 l 1,0,-1
EndSplineSet
Validated: 1
EndChar

StartChar: G
Encoding: 71 71 42
Width: 1270
GlyphClass: 2
Flags: W
HStem: -20 180<526.161 690.392> 520 130<816 1046> 1350 180<900.608 1064.84>
VStem: 226 205<261.668 561.44>
DStem2: 125.471 -20 330.471 -20 0.207912 0.978148<488.316 1195.73>
LayerCount: 2
Fore
SplineSet
597 -20 m 0,0,1
 557 -20 557 -20 525 -10 c 0,2,3
 391 32 391 32 301 162 c 0,4,5
 226 270 226 270 226 405 c 0,6,7
 226 453 226 453 236 500 c 2,8,-1
 345 1010 l 2,9,10
 357 1065 357 1065 382 1101 c 0,11,12
 403 1132 403 1132 452 1167 c 2,13,-1
 910 1494 l 2,14,15
 960 1530 960 1530 994 1530 c 0,16,17
 1034 1530 1034 1530 1066 1520 c 0,18,19
 1200 1478 1200 1478 1290 1348 c 0,20,21
 1351 1260 1351 1260 1362 1154 c 1,22,-1
 1160 1010 l 1,23,-1
 1150 1010 l 1,24,25
 1159 1055 1159 1055 1159 1096 c 0,26,27
 1159 1184 1159 1184 1115 1251 c 0,28,29
 1048 1350 1048 1350 922 1350 c 0,30,31
 795 1350 795 1350 689 1251 c 0,32,33
 580 1150 580 1150 550 1010 c 2,34,-1
 441 500 l 2,35,36
 431 454 431 454 431 413 c 0,37,38
 431 325 431 325 476 259 c 0,39,40
 543 160 543 160 669 160 c 0,41,42
 796 160 796 160 902 259 c 0,43,44
 1005 355 1005 355 1041 500 c 2,45,-1
 1046 520 l 1,46,-1
 688 520 l 1,47,-1
 690 530 l 1,48,-1
 816 650 l 1,49,-1
 1278 650 l 1,50,-1
 1246 500 l 2,51,52
 1234 446 1234 446 1209 409 c 0,53,54
 1188 378 1188 378 1139 343 c 2,55,-1
 681 16 l 2,56,57
 631 -20 631 -20 597 -20 c 0,0,1
EndSplineSet
Validated: 1
EndChar

StartChar: H
Encoding: 72 72 43
Width: 1365
GlyphClass: 2
Flags: W
HStem: -40 21G<186 224.176 976 1014.18> 520 130<244 306 533 1096> 1530 20G<685.95 724 1475.95 1514>
DStem2: 186 -40 386.204 -40 0.207912 0.978148<204.177 572.712 747.067 1463.14> 976 -40 1176.2 -40 0.207912 0.978148<204.177 572.712 705.485 1463.14>
LayerCount: 2
Fore
SplineSet
186 -40 m 1,0,-1
 306 520 l 1,1,-1
 116 520 l 1,2,-1
 118 530 l 1,3,-1
 244 650 l 1,4,-1
 333 650 l 1,5,-1
 491 1391 l 1,6,-1
 714 1550 l 1,7,-1
 724 1550 l 1,8,-1
 533 650 l 1,9,-1
 1123 650 l 1,10,-1
 1281 1391 l 1,11,-1
 1504 1550 l 1,12,-1
 1514 1550 l 1,13,-1
 1210 119 l 1,14,-1
 986 -40 l 1,15,-1
 976 -40 l 1,16,-1
 1096 520 l 1,17,-1
 506 520 l 1,18,-1
 420 119 l 1,19,-1
 196 -40 l 1,20,-1
 186 -40 l 1,0,-1
EndSplineSet
Validated: 1
EndChar

StartChar: I
Encoding: 73 73 44
Width: 560
GlyphClass: 2
Flags: W
HStem: -40 21G<171 209.176> 1530 20G<670.95 709>
VStem: 171 538
DStem2: 171 -40 371.204 -40 0.207912 0.978148<204.177 1463.14>
LayerCount: 2
Fore
SplineSet
171 -40 m 1,0,-1
 476 1391 l 1,1,-1
 699 1550 l 1,2,-1
 709 1550 l 1,3,-1
 405 119 l 1,4,-1
 181 -40 l 1,5,-1
 171 -40 l 1,0,-1
EndSplineSet
Validated: 1
EndChar

StartChar: J
Encoding: 74 74 45
Width: 1162
GlyphClass: 2
Flags: W
HStem: -20 180<378.161 542.298> 1380 130<615 1075>
DStem2: 777.596 -20 977.596 -20 0.207912 0.978148<420.577 1431.24>
LayerCount: 2
Fore
SplineSet
449 -20 m 0,0,1
 409 -20 409 -20 377 -10 c 0,2,3
 243 32 243 32 153 162 c 0,4,5
 92 250 92 250 81 356 c 1,6,-1
 288 500 l 1,7,-1
 298 500 l 1,8,9
 287 449 287 449 287 405 c 0,10,11
 287 319 287 319 328 259 c 0,12,13
 395 160 395 160 521 160 c 0,14,15
 648 160 648 160 754 259 c 0,16,17
 857 354 857 354 886 490 c 2,18,-1
 1075 1380 l 1,19,-1
 486 1380 l 1,20,-1
 488 1390 l 1,21,-1
 615 1510 l 1,22,-1
 1303 1510 l 1,23,-1
 1086 490 l 2,24,25
 1074 435 1074 435 1049 399 c 0,26,27
 1026 366 1026 366 979 333 c 2,28,-1
 533 16 l 2,29,30
 482 -20 482 -20 449 -20 c 0,0,1
EndSplineSet
Validated: 1
EndChar

StartChar: K
Encoding: 75 75 46
Width: 1306
GlyphClass: 2
Flags: W
HStem: -40 21G<171 209.176 1007.25 1055.26> 1530 20G<670.95 709 1430.95 1469>
DStem2: 171 -40 371.204 -40 0.207912 0.978148<204.177 361.629 445.415 1463.14> 833 784 668 675 0.438646 -0.89866<25.5772 199.921 337.297 795.191> 931.102 -40 1131.25 -40 0.207912 0.978148<980.839 1463.12>
LayerCount: 2
Fore
SplineSet
171 -40 m 1,0,-1
 476 1391 l 1,1,-1
 699 1550 l 1,2,-1
 709 1550 l 1,3,-1
 455 355 l 1,4,5
 620 402 620 402 759 489 c 1,6,-1
 668 675 l 1,7,-1
 823 784 l 1,8,-1
 833 784 l 1,9,-1
 920 604 l 1,10,11
 1110 814 1110 814 1207 1258 c 2,12,-1
 1236 1391 l 1,13,-1
 1459 1550 l 1,14,-1
 1469 1550 l 1,15,-1
 1408 1262 l 2,16,17
 1297 740 1297 740 970 503 c 1,18,-1
 1181 69 l 1,19,-1
 1027 -40 l 1,20,-1
 1017 -40 l 1,21,-1
 805 395 l 1,22,23
 632 296 632 296 434 255 c 1,24,-1
 405 119 l 1,25,-1
 181 -40 l 1,26,-1
 171 -40 l 1,0,-1
EndSplineSet
Validated: 1
EndChar

StartChar: L
Encoding: 76 76 47
Width: 1083
GlyphClass: 2
Flags: W
HStem: 0 130<135 223 423 977> 1530 20G<685.95 724>
DStem2: 195.368 0 395.368 0 0.207912 0.978148<174.487 1422.07>
LayerCount: 2
Fore
SplineSet
5 0 m 1,0,-1
 7 8 l 1,1,-1
 135 130 l 1,2,-1
 223 130 l 1,3,-1
 491 1391 l 1,4,-1
 714 1550 l 1,5,-1
 724 1550 l 1,6,-1
 423 130 l 1,7,-1
 1106 130 l 1,8,-1
 1104 120 l 1,9,-1
 977 0 l 1,10,-1
 5 0 l 1,0,-1
EndSplineSet
Validated: 1
EndChar

StartChar: M
Encoding: 77 77 48
Width: 2180
GlyphClass: 2
Flags: W
HStem: -40 21G<171 209.176 981 1019.18 1791 1829.18> 1350 180<948.911 1117.57 1757.93 1927.57> 1530 20G<670.95 709>
VStem: 2025 200<946.133 1247.84>
DStem2: 171 -40 371.204 -40 0.207912 0.978148<204.177 1309.81 1384.11 1463.14> 981 -40 1181.2 -40 0.207912 0.978148<204.177 1159.55> 1791 -40 1991.2 -40 0.207912 0.978148<204.177 1159.55>
LayerCount: 2
Fore
SplineSet
171 -40 m 1,0,-1
 476 1391 l 1,1,-1
 699 1550 l 1,2,-1
 709 1550 l 1,3,-1
 651 1273 l 1,4,-1
 960 1494 l 2,5,6
 1010 1530 1010 1530 1044 1530 c 0,7,8
 1084 1530 1084 1530 1116 1520 c 0,9,10
 1249 1478 1249 1478 1340 1348 c 0,11,12
 1379 1292 1379 1292 1398 1229 c 1,13,-1
 1770 1494 l 2,14,15
 1821 1530 1821 1530 1854 1530 c 0,16,17
 1894 1530 1894 1530 1926 1520 c 0,18,19
 2059 1480 2059 1480 2150 1348 c 0,20,21
 2225 1239 2225 1239 2225 1105 c 0,22,23
 2225 1057 2225 1057 2215 1010 c 2,24,-1
 2025 119 l 1,25,-1
 1801 -40 l 1,26,-1
 1791 -40 l 1,27,-1
 2015 1010 l 2,28,29
 2025 1056 2025 1056 2025 1097 c 0,30,31
 2025 1185 2025 1185 1980 1251 c 0,32,33
 1913 1350 1913 1350 1782 1350 c 0,34,35
 1650 1350 1650 1350 1544 1251 c 0,36,37
 1435 1150 1435 1150 1405 1010 c 2,38,-1
 1215 119 l 1,39,-1
 991 -40 l 1,40,-1
 981 -40 l 1,41,-1
 1205 1010 l 2,42,43
 1215 1056 1215 1056 1215 1097 c 0,44,45
 1215 1185 1215 1185 1170 1251 c 0,46,47
 1103 1350 1103 1350 972 1350 c 0,48,49
 840 1350 840 1350 734 1251 c 0,50,51
 625 1150 625 1150 595 1010 c 2,52,-1
 405 119 l 1,53,-1
 181 -40 l 1,54,-1
 171 -40 l 1,0,-1
EndSplineSet
Validated: 1
EndChar

StartChar: N
Encoding: 78 78 49
Width: 1370
GlyphClass: 2
Flags: W
HStem: -40 21G<171 209.176 981 1019.18> 1350 180<948.911 1117.57> 1530 20G<670.95 709>
VStem: 1215 200<946.133 1248.33>
DStem2: 171 -40 371.204 -40 0.207912 0.978148<204.177 1309.81 1384.11 1463.14> 981 -40 1181.2 -40 0.207912 0.978148<204.177 1159.55>
LayerCount: 2
Fore
SplineSet
171 -40 m 1,0,-1
 476 1391 l 1,1,-1
 699 1550 l 1,2,-1
 709 1550 l 1,3,-1
 651 1273 l 1,4,-1
 960 1494 l 2,5,6
 1010 1530 1010 1530 1044 1530 c 0,7,8
 1084 1530 1084 1530 1116 1520 c 0,9,10
 1250 1478 1250 1478 1340 1348 c 0,11,12
 1415 1240 1415 1240 1415 1105 c 0,13,14
 1415 1057 1415 1057 1405 1010 c 2,15,16
 1215 119 l 1,17,-1
 991 -40 l 1,18,-1
 981 -40 l 1,19,-1
 1205 1010 l 2,20,21
 1215 1056 1215 1056 1215 1097 c 0,22,23
 1215 1185 1215 1185 1170 1251 c 0,24,25
 1103 1350 1103 1350 972 1350 c 0,26,27
 840 1350 840 1350 734 1251 c 0,28,29
 625 1150 625 1150 595 1010 c 2,30,-1
 405 119 l 1,31,-1
 181 -40 l 1,32,-1
 171 -40 l 1,0,-1
EndSplineSet
Validated: 1
EndChar

StartChar: O
Encoding: 79 79 50
Width: 1270
GlyphClass: 2
Flags: W
HStem: -20 180<526.161 690.392> 1350 180<900.608 1064.84>
VStem: 226 205<260.729 659.375> 1160 205<850.625 1249.41>
DStem2: 125.471 -20 330.471 -20 0.207912 0.978148<488.316 1191.62> 930.471 -20 1135.47 -20 0.207912 0.978148<431.666 1139.06>
LayerCount: 2
Fore
SplineSet
669 160 m 0,0,1
 796 160 796 160 902 259 c 0,2,3
 1011 360 1011 360 1041 500 c 2,4,-1
 1150 1010 l 2,5,6
 1160 1056 1160 1056 1160 1097 c 0,7,8
 1160 1185 1160 1185 1115 1251 c 0,9,10
 1048 1350 1048 1350 922 1350 c 0,11,12
 795 1350 795 1350 689 1251 c 0,13,14
 580 1150 580 1150 550 1010 c 2,15,-1
 441 500 l 2,16,17
 431 454 431 454 431 413 c 0,18,19
 431 325 431 325 476 259 c 0,20,21
 543 160 543 160 669 160 c 0,0,1
597 -20 m 0,22,23
 557 -20 557 -20 525 -10 c 0,24,25
 400 28 400 28 301 162 c 0,26,27
 226 264 226 264 226 405 c 0,28,29
 226 452 226 452 236 500 c 2,30,-1
 345 1010 l 2,31,32
 357 1066 357 1066 382 1101 c 0,33,34
 406 1134 406 1134 452 1167 c 2,35,-1
 910 1494 l 2,36,37
 960 1530 960 1530 994 1530 c 0,38,39
 1034 1530 1034 1530 1066 1520 c 0,40,41
 1199 1480 1199 1480 1290 1348 c 0,42,43
 1365 1239 1365 1239 1365 1105 c 0,44,45
 1365 1058 1365 1058 1355 1010 c 2,46,-1
 1246 500 l 2,47,48
 1234 444 1234 444 1209 409 c 0,49,50
 1185 376 1185 376 1139 343 c 2,51,-1
 681 16 l 2,52,53
 631 -20 631 -20 597 -20 c 0,22,23
EndSplineSet
Validated: 1
EndChar

StartChar: P
Encoding: 80 80 51
Width: 1234
GlyphClass: 2
Flags: W
HStem: -40 21G<171 209.176> 1384 146<894.871 948.711> 1530 20G<670.95 709>
VStem: 1161 211<868.817 1206.1>
DStem2: 171 -40 371.204 -40 0.207912 0.978148<204.177 366.798 445.415 1463.14>
LayerCount: 2
Fore
SplineSet
171 -40 m 1,0,-1
 476 1391 l 1,1,-1
 699 1550 l 1,2,-1
 709 1550 l 1,3,-1
 455 355 l 1,4,5
 704 434 704 434 872 555 c 0,6,7
 1101 720 1101 720 1150 948 c 0,8,9
 1161 998 1161 998 1161 1043 c 0,10,11
 1161 1172 1161 1172 1074 1260 c 0,12,13
 961 1376 961 1376 710 1384 c 1,14,-1
 915 1530 l 1,15,16
 1142 1512 1142 1512 1268 1361 c 0,17,18
 1372 1235 1372 1235 1372 1078 c 0,19,20
 1372 1039 1372 1039 1366 999 c 0,21,22
 1314 679 1314 679 914 454 c 0,23,24
 689 327 689 327 434 255 c 1,25,-1
 405 119 l 1,26,-1
 181 -40 l 1,27,-1
 171 -40 l 1,0,-1
EndSplineSet
Validated: 1
EndChar

StartChar: Q
Encoding: 81 81 52
Width: 1270
GlyphClass: 2
Flags: W
HStem: -40 21G<949.37 996.848> -20 180<527.164 692.125> 1350 180<900.608 1064.84>
VStem: 229 202<261.668 561.44> 1160 205<948.56 1248.33>
DStem2: 124.219 -40 326.219 -40 0.207912 0.978148<508.139 1215.68> 870 472 749 392 0.434691 -0.90058<19.4488 185.607 290.018 480.801> 926.219 -40 1131.22 -40 0.207912 0.978148<453.19 1159.5>
LayerCount: 2
Fore
SplineSet
600 -20 m 0,0,1
 560 -20 560 -20 528 -10 c 0,2,3
 395 30 395 30 304 162 c 0,4,5
 229 270 229 270 229 405 c 0,6,7
 229 452 229 452 239 500 c 2,8,-1
 345 1010 l 2,9,10
 356 1064 356 1064 382 1101 c 0,11,12
 404 1132 404 1132 452 1167 c 2,13,-1
 910 1494 l 2,14,15
 960 1530 960 1530 994 1530 c 0,16,17
 1034 1530 1034 1530 1066 1520 c 0,18,19
 1199 1480 1199 1480 1290 1348 c 0,20,21
 1365 1240 1365 1240 1365 1105 c 0,22,23
 1365 1057 1365 1057 1355 1010 c 2,24,-1
 1246 500 l 2,25,26
 1235 449 1235 449 1209 409 c 0,27,28
 1189 379 1189 379 1139 343 c 2,29,-1
 986 233 l 1,30,-1
 1079 39 l 1,31,-1
 969 -40 l 1,32,-1
 959 -40 l 1,33,-1
 868 149 l 1,34,-1
 681 16 l 2,35,36
 630 -20 630 -20 600 -20 c 0,0,1
749 392 m 1,37,-1
 860 472 l 1,38,-1
 870 472 l 1,39,-1
 951 305 l 1,40,41
 1017 383 1017 383 1041 500 c 2,42,-1
 1150 1010 l 2,43,44
 1160 1056 1160 1056 1160 1097 c 0,45,46
 1160 1185 1160 1185 1115 1251 c 0,47,48
 1048 1350 1048 1350 922 1350 c 0,49,50
 795 1350 795 1350 689 1251 c 0,51,52
 580 1150 580 1150 550 1010 c 2,53,-1
 441 500 l 2,54,55
 431 454 431 454 431 413 c 0,56,57
 431 325 431 325 476 259 c 0,58,59
 543 160 543 160 669 160 c 0,60,61
 760 160 760 160 839 207 c 1,62,-1
 749 392 l 1,37,-1
EndSplineSet
Validated: 1
EndChar

StartChar: R
Encoding: 82 82 53
Width: 1306
GlyphClass: 2
Flags: W
HStem: -40 21G<171 209.176 1007.23 1055.26> 1384 146<894.871 948.711> 1530 20G<670.95 709>
VStem: 1161 211<867.156 1206.1>
DStem2: 171 -40 371.204 -40 0.207912 0.978148<204.177 367.183 445.415 1463.14> 833 784 668 675 0.438646 -0.89866<25.5772 209.304 335.55 795.191>
LayerCount: 2
Fore
SplineSet
171 -40 m 1,0,-1
 476 1391 l 1,1,-1
 699 1550 l 1,2,-1
 709 1550 l 1,3,-1
 455 355 l 1,4,5
 627 410 627 410 761 485 c 1,6,-1
 668 675 l 1,7,-1
 823 784 l 1,8,-1
 833 784 l 1,9,-1
 925 596 l 1,10,11
 1107 748 1107 748 1150 948 c 0,12,13
 1161 998 1161 998 1161 1043 c 0,14,15
 1161 1172 1161 1172 1074 1260 c 0,16,17
 961 1376 961 1376 710 1384 c 1,18,-1
 915 1530 l 1,19,20
 1142 1512 1142 1512 1268 1361 c 0,21,22
 1372 1235 1372 1235 1372 1078 c 0,23,24
 1372 1039 1372 1039 1366 999 c 0,25,26
 1318 705 1318 705 976 491 c 1,27,-1
 1181 69 l 1,28,-1
 1027 -40 l 1,29,-1
 1017 -40 l 1,30,-1
 804 396 l 1,31,32
 628 310 628 310 434 255 c 1,33,-1
 405 119 l 1,34,-1
 181 -40 l 1,35,-1
 171 -40 l 1,0,-1
EndSplineSet
Validated: 1
EndChar

StartChar: S
Encoding: 83 83 54
Width: 1207
GlyphClass: 2
Flags: W
HStem: -20 180<480.379 647.223> 733 199<646.893 942.127> 1109 21G<1037 1075.12> 1354 176<857.741 1007.58>
VStem: 405 192<980.377 1182.01> 1012 202<416.91 665.5>
LayerCount: 2
Fore
SplineSet
554 -20 m 0,0,1
 514 -20 514 -20 482 -10 c 0,2,3
 348 32 348 32 258 162 c 0,4,5
 197 250 197 250 186 356 c 1,6,-1
 383 500 l 1,7,-1
 393 500 l 1,8,9
 383 454 383 454 383 413 c 0,10,11
 383 325 383 325 428 259 c 0,12,13
 495 160 495 160 625 160 c 0,14,15
 735 160 735 160 864 259 c 0,16,17
 977 346 977 346 1004 469 c 0,18,19
 1012 507 1012 507 1012 540 c 0,20,21
 1012 613 1012 613 972 662 c 0,22,23
 914 733 914 733 762 733 c 0,24,25
 593 733 593 733 488 837 c 0,26,27
 405 920 405 920 405 1037 c 0,28,29
 405 1060 405 1060 408 1085 c 0,30,31
 415 1137 415 1137 445 1176 c 0,32,33
 470 1210 470 1210 515 1242 c 2,34,-1
 869 1494 l 2,35,36
 920 1530 920 1530 953 1530 c 0,37,38
 993 1530 993 1530 1025 1519 c 0,39,40
 1121 1486 1121 1486 1175 1407 c 0,41,42
 1227 1333 1227 1333 1234 1242 c 1,43,-1
 1047 1109 l 1,44,-1
 1037 1109 l 1,45,46
 1047 1156 1047 1156 1047 1194 c 0,47,48
 1047 1246 1047 1246 1028 1281 c 0,49,50
 989 1354 989 1354 883 1354 c 0,51,52
 792 1354 792 1354 708 1289 c 128,-1,53
 624 1224 624 1224 602 1121 c 0,54,55
 597 1097 597 1097 597 1076 c 0,56,57
 597 932 597 932 840 932 c 0,58,59
 1048 932 1048 932 1152 783 c 0,60,61
 1214 694 1214 694 1214 589 c 0,62,63
 1214 546 1214 546 1203 500 c 0,64,65
 1190 444 1190 444 1166 409 c 0,66,67
 1142 376 1142 376 1096 343 c 2,68,-1
 638 16 l 2,69,70
 588 -20 588 -20 554 -20 c 0,0,1
EndSplineSet
Validated: 1
EndChar

StartChar: T
Encoding: 84 84 55
Width: 1066
GlyphClass: 2
Flags: W
HStem: -40 21G<424 462.176> 1380 130<427 726 926 1253>
DStem2: 424 -40 624.204 -40 0.207912 0.978148<204.177 1451.76>
LayerCount: 2
Fore
SplineSet
424 -40 m 1,0,-1
 726 1380 l 1,1,-1
 298 1380 l 1,2,-1
 300 1390 l 1,3,-1
 427 1510 l 1,4,-1
 1382 1510 l 1,5,-1
 1380 1500 l 1,6,-1
 1253 1380 l 1,7,-1
 926 1380 l 1,8,-1
 658 119 l 1,9,-1
 434 -40 l 1,10,-1
 424 -40 l 1,0,-1
EndSplineSet
Validated: 1
EndChar

StartChar: U
Encoding: 85 85 56
Width: 1370
GlyphClass: 2
Flags: W
HStem: -40 21G<981 1019.18> -20 180<573.433 742.089> 1530 20G<670.95 709 1480.95 1519>
VStem: 276 200<262.445 563.867>
DStem2: 171.219 -40 371.219 -40 0.207912 0.978148<507.723 1463.1> 981.122 -40 1181.2 -40 0.207912 0.978148<204.151 283.188 357.488 1463.12>
LayerCount: 2
Fore
SplineSet
647 -20 m 0,0,1
 607 -20 607 -20 575 -10 c 0,2,3
 448 30 448 30 351 162 c 0,4,5
 276 264 276 264 276 405 c 0,6,7
 276 453 276 453 286 500 c 2,8,-1
 476 1391 l 1,9,-1
 699 1550 l 1,10,-1
 709 1550 l 1,11,-1
 486 500 l 2,12,13
 476 454 476 454 476 413 c 0,14,15
 476 325 476 325 521 259 c 0,16,17
 588 160 588 160 719 160 c 0,18,19
 851 160 851 160 957 259 c 0,20,21
 1066 360 1066 360 1096 500 c 2,22,-1
 1286 1391 l 1,23,-1
 1509 1550 l 1,24,-1
 1519 1550 l 1,25,-1
 1215 119 l 1,26,-1
 991 -40 l 1,27,-1
 981 -40 l 1,28,-1
 1040 237 l 1,29,-1
 731 16 l 2,30,31
 681 -20 681 -20 647 -20 c 0,0,1
EndSplineSet
Validated: 1
EndChar

StartChar: V
Encoding: 86 86 57
Width: 1370
GlyphClass: 2
Flags: W
HStem: -20 180<573.433 740.839> 1510 20G<530 615 1434 1579>
VStem: 276 200<262.445 563.441> 455 207<1121.41 1440.64>
DStem2: 175.471 -20 375.471 -20 0.207912 0.978148<487.276 1359.45> 985.471 -20 1185.47 -20 0.207912 0.978148<431.513 1460.57>
LayerCount: 2
Fore
SplineSet
647 -20 m 0,0,1
 607 -20 607 -20 575 -10 c 0,2,3
 450 28 450 28 351 162 c 0,4,5
 276 264 276 264 276 405 c 0,6,7
 276 453 276 453 286 500 c 2,8,-1
 450 1270 l 2,9,10
 455 1292 455 1292 455 1311 c 0,11,12
 455 1384 455 1384 383 1405 c 1,13,-1
 558 1530 l 1,14,-1
 568 1530 l 1,15,16
 662 1471 662 1471 662 1359 c 0,17,18
 662 1327 662 1327 654 1290 c 2,19,-1
 486 500 l 2,20,21
 476 454 476 454 476 413 c 0,22,23
 476 325 476 325 521 259 c 0,24,25
 588 160 588 160 719 160 c 0,26,27
 851 160 851 160 957 259 c 0,28,29
 1066 360 1066 360 1096 500 c 2,30,-1
 1254 1242 l 2,31,32
 1299 1454 1299 1454 1569 1550 c 1,33,-1
 1579 1550 l 1,34,35
 1488 1404 1488 1404 1454 1242 c 2,36,-1
 1296 500 l 2,37,38
 1285 446 1285 446 1259 409 c 0,39,40
 1236 377 1236 377 1189 343 c 2,41,-1
 731 16 l 2,42,43
 681 -20 681 -20 647 -20 c 0,0,1
EndSplineSet
Validated: 1
EndChar

StartChar: W
Encoding: 87 87 58
Width: 2180
GlyphClass: 2
Flags: W
HStem: -20 180<573.433 743.073 1383.43 1550.84> 1510 40G<530 615 1480.95 1519 2244 2389>
VStem: 276 200<262.445 563.441> 455 207<1121.41 1440.64>
DStem2: 175.471 -20 375.471 -20 0.207912 0.978148<487.276 1359.45> 985.471 -20 1185.47 -20 0.207912 0.978148<487.276 1442.65> 1795.47 -20 1995.47 -20 0.207912 0.978148<431.513 1460.11>
LayerCount: 2
Fore
SplineSet
647 -20 m 0,0,1
 607 -20 607 -20 575 -10 c 0,2,3
 450 28 450 28 351 162 c 0,4,5
 276 264 276 264 276 405 c 0,6,7
 276 453 276 453 286 500 c 2,8,-1
 450 1270 l 2,9,10
 455 1292 455 1292 455 1311 c 0,11,12
 455 1384 455 1384 383 1405 c 1,13,-1
 558 1530 l 1,14,-1
 568 1530 l 1,15,16
 662 1471 662 1471 662 1359 c 0,17,18
 662 1327 662 1327 654 1290 c 2,19,-1
 486 500 l 2,20,21
 476 454 476 454 476 413 c 0,22,23
 476 325 476 325 521 259 c 0,24,25
 588 160 588 160 719 160 c 0,26,27
 851 160 851 160 957 259 c 0,28,29
 1066 360 1066 360 1096 500 c 2,30,-1
 1286 1391 l 1,31,-1
 1509 1550 l 1,32,-1
 1519 1550 l 1,33,-1
 1296 500 l 2,34,35
 1286 454 1286 454 1286 413 c 0,36,37
 1286 325 1286 325 1331 259 c 0,38,39
 1398 160 1398 160 1529 160 c 0,40,41
 1661 160 1661 160 1767 259 c 0,42,43
 1876 360 1876 360 1906 500 c 2,44,-1
 2064 1242 l 2,45,46
 2109 1454 2109 1454 2379 1550 c 1,47,-1
 2389 1550 l 1,48,49
 2298 1403 2298 1403 2264 1242 c 2,50,-1
 2106 500 l 2,51,52
 2095 446 2095 446 2069 409 c 0,53,54
 2048 378 2048 378 1999 343 c 2,55,-1
 1541 16 l 2,56,57
 1491 -20 1491 -20 1457 -20 c 0,58,59
 1417 -20 1417 -20 1385 -10 c 0,60,61
 1260 28 1260 28 1161 162 c 0,62,63
 1121 216 1121 216 1103 281 c 1,64,-1
 731 16 l 2,65,66
 681 -20 681 -20 647 -20 c 0,0,1
EndSplineSet
Validated: 1
EndChar

StartChar: X
Encoding: 88 88 59
Width: 1340
GlyphClass: 2
Flags: W
HStem: -40 21G<171 209.077 956 994.077> 665 180<707.581 953.419> 1530 20G<666.051 704 1451.05 1489>
VStem: 423 193<940.621 1345.32> 1045 193<169.133 569.379>
DStem2: 171 -40 366.841 -40 0.207912 0.978148<200.203 516.551 1199.17 1466.08> 956 -40 1151.84 -40 0.207912 0.978148<200.203 467.105 1149.73 1466.08>
LayerCount: 2
Fore
SplineSet
171 -40 m 1,0,-1
 250 329 l 2,1,2
 262 384 262 384 287 420 c 0,3,4
 312 454 312 454 357 486 c 2,5,-1
 662 704 l 1,6,7
 573 749 573 749 498 851 c 128,-1,8
 423 953 423 953 423 1094 c 0,9,10
 423 1141 423 1141 433 1189 c 2,11,-1
 476 1394 l 1,12,-1
 694 1550 l 1,13,-1
 704 1550 l 1,14,-1
 627 1185 l 2,15,16
 616 1134 616 1134 616 1090 c 0,17,18
 616 1004 616 1004 657 944 c 0,19,20
 724 845 724 845 850 845 c 0,21,22
 977 845 977 845 1083 944 c 0,23,24
 1186 1039 1186 1039 1217 1185 c 2,25,-1
 1261 1394 l 1,26,-1
 1479 1550 l 1,27,-1
 1489 1550 l 1,28,-1
 1411 1181 l 2,29,30
 1399 1126 1399 1126 1374 1090 c 0,31,32
 1352 1058 1352 1058 1304 1024 c 2,33,-1
 998 807 l 1,34,35
 1087 763 1087 763 1163 659 c 0,36,37
 1238 557 1238 557 1238 416 c 0,38,39
 1238 369 1238 369 1228 321 c 2,40,-1
 1185 116 l 1,41,-1
 966 -40 l 1,42,-1
 956 -40 l 1,43,-1
 1034 325 l 2,44,45
 1045 376 1045 376 1045 420 c 0,46,47
 1045 506 1045 506 1004 566 c 0,48,49
 937 665 937 665 811 665 c 0,50,51
 684 665 684 665 578 566 c 0,52,53
 475 471 475 471 444 325 c 2,54,-1
 400 116 l 1,55,-1
 181 -40 l 1,56,-1
 171 -40 l 1,0,-1
EndSplineSet
Validated: 1
EndChar

StartChar: Y
Encoding: 89 89 60
Width: 1370
GlyphClass: 2
Flags: W
HStem: -40 21G<581 619.212> 1530 20G<671 709 1481 1519>
VStem: 353 201<619.013 922.279>
DStem2: 171.699 -40 371.699 -40 0.207912 0.978148<876.952 1461.81> 581 -40 771.904 -40 0.207912 0.978148<194.065 400.188 627.511 755.701> 981.699 -40 1181.7 -40 0.207912 0.978148<823.797 1461.81>
LayerCount: 2
Fore
SplineSet
581 -40 m 1,0,-1
 663 346 l 1,1,2
 531 384 531 384 428 522 c 0,3,4
 353 624 353 624 353 765 c 0,5,6
 353 813 353 813 363 860 c 2,7,-1
 475 1390 l 1,8,-1
 699 1550 l 1,9,-1
 709 1550 l 1,10,-1
 563 860 l 2,11,12
 554 815 554 815 554 774 c 0,13,14
 554 686 554 686 598 619 c 0,15,16
 639 558 639 558 704 535 c 1,17,-1
 739 699 l 1,18,-1
 951 850 l 1,19,-1
 961 850 l 1,20,-1
 894 535 l 1,21,22
 969 558 969 558 1034 619 c 0,23,24
 1143 719 1143 719 1173 860 c 2,25,-1
 1285 1390 l 1,26,-1
 1509 1550 l 1,27,-1
 1519 1550 l 1,28,-1
 1373 860 l 2,29,30
 1361 805 1361 805 1335 769 c 0,31,32
 1311 736 1311 736 1265 703 c 2,33,-1
 869 420 l 1,34,-1
 804 111 l 1,35,-1
 591 -40 l 1,36,-1
 581 -40 l 1,0,-1
EndSplineSet
Validated: 1
EndChar

StartChar: Z
Encoding: 90 90 61
Width: 1217
GlyphClass: 2
Flags: W
HStem: 0 130<398 1006> 522 130<390 477 782 1097> 1380 130<622 1105>
DStem2: 102 10 398 130 0.592637 0.805469<272.077 634.639 920.105 1697.91>
LayerCount: 2
Fore
SplineSet
100 0 m 1,0,-1
 102 10 l 1,1,-1
 477 522 l 1,2,-1
 261 522 l 1,3,-1
 263 532 l 1,4,-1
 390 652 l 1,5,-1
 572 652 l 1,6,-1
 1105 1380 l 1,7,-1
 493 1380 l 1,8,-1
 495 1390 l 1,9,-1
 622 1510 l 1,10,-1
 1408 1510 l 1,11,-1
 1406 1500 l 1,12,-1
 782 652 l 1,13,-1
 1226 652 l 1,14,-1
 1223 642 l 1,15,-1
 1097 522 l 1,16,-1
 686 522 l 1,17,-1
 398 130 l 1,18,-1
 1135 130 l 1,19,-1
 1133 120 l 1,20,-1
 1006 0 l 1,21,-1
 100 0 l 1,0,-1
EndSplineSet
Validated: 1
EndChar

StartChar: bracketleft
Encoding: 91 91 62
Width: 824
GlyphClass: 2
Flags: W
HStem: -240 130<357 641> 1620 130<742 1036>
DStem2: 129 -240 329.368 -240 0.207912 0.978148<174.563 1870.89>
LayerCount: 2
Fore
SplineSet
129 -240 m 1,0,-1
 518 1590 l 1,1,-1
 742 1750 l 1,2,-1
 1166 1750 l 1,3,-1
 1164 1740 l 1,4,-1
 1036 1620 l 1,5,-1
 724 1620 l 1,6,-1
 357 -110 l 1,7,-1
 771 -110 l 1,8,-1
 768 -120 l 1,9,-1
 641 -240 l 1,10,-1
 129 -240 l 1,0,-1
EndSplineSet
Validated: 1
EndChar

StartChar: backslash
Encoding: 92 92 63
Width: 1023
GlyphClass: 2
Flags: W
VStem: 364 616
DStem2: 495 1750 364 1664 0.245888 -0.969298<51.1483 1963.83>
LayerCount: 2
Fore
SplineSet
485 1750 m 1,0,-1
 495 1750 l 1,1,-1
 980 -153 l 1,2,-1
 857 -240 l 1,3,-1
 847 -240 l 1,4,-1
 364 1664 l 1,5,-1
 485 1750 l 1,0,-1
EndSplineSet
Validated: 1
EndChar

StartChar: bracketright
Encoding: 93 93 64
Width: 824
GlyphClass: 2
Flags: W
HStem: -240 130<109 403> 1620 130<504 788>
DStem2: 393.368 -240 592.991 -240 0.207912 0.978148<205.079 1901.4>
LayerCount: 2
Fore
SplineSet
1016 1750 m 1,0,-1
 627 -80 l 1,1,-1
 403 -240 l 1,2,-1
 -21 -240 l 1,3,-1
 -19 -230 l 1,4,-1
 109 -110 l 1,5,-1
 421 -110 l 1,6,-1
 788 1620 l 1,7,-1
 374 1620 l 1,8,-1
 376 1630 l 1,9,-1
 504 1750 l 1,10,-1
 1016 1750 l 1,0,-1
EndSplineSet
Validated: 1
EndChar

StartChar: asciicircum
Encoding: 94 94 65
Width: 777
GlyphClass: 2
Flags: W
HStem: 1140 410
DStem2: 287 1208 362 1140 0.804969 0.593317<20.0271 416.242> 761 1550 681 1375 0.617382 -0.786664<88.2756 386.74>
LayerCount: 2
Fore
SplineSet
751 1550 m 1,0,-1
 761 1550 l 1,1,-1
 1009 1234 l 1,2,-1
 875 1140 l 1,3,-1
 865 1140 l 1,4,-1
 681 1375 l 1,5,-1
 362 1140 l 1,6,-1
 352 1140 l 1,7,-1
 287 1208 l 1,8,-1
 751 1550 l 1,0,-1
EndSplineSet
Validated: 1
EndChar

StartChar: underscore
Encoding: 95 95 66
Width: 1174
GlyphClass: 2
Flags: W
HStem: -410 151<194 839>
LayerCount: 2
Fore
SplineSet
43 -410 m 1,0,-1
 45 -400 l 1,1,-1
 194 -259 l 1,2,-1
 989 -259 l 1,3,-1
 987 -269 l 1,4,-1
 839 -410 l 1,5,-1
 43 -410 l 1,0,-1
EndSplineSet
Validated: 1
EndChar

StartChar: grave
Encoding: 96 96 67
Width: 353
GlyphClass: 2
Flags: W
HStem: 1211 339
VStem: 502 93<1270 1305.44>
LayerCount: 2
Fore
SplineSet
485 1550 m 1,0,1
 597 1465 597 1465 597 1306 c 0,2,3
 597 1288 597 1288 595 1270 c 1,4,-1
 512 1211 l 1,5,-1
 502 1211 l 1,6,7
 479 1407 479 1407 339 1453 c 1,8,-1
 475 1550 l 1,9,-1
 485 1550 l 1,0,1
EndSplineSet
Validated: 1
EndChar

StartChar: a
Encoding: 97 97 68
Width: 1020
GlyphClass: 2
Flags: W
HStem: -40 21G<701 739> -20 148<386.816 543.374> 612 149<583.197 739.532> 969 151<657.885 816.264>
VStem: 148 173<194.09 421.131> 875 164<677.172 910.343>
DStem2: 701.001 -40 871.305 -40 0.207912 0.978148<173.424 211.625 247.789 475.873 730.893 838.927>
LayerCount: 2
Fore
SplineSet
711 -40 m 1,0,-1
 701 -40 l 1,1,-1
 745 167 l 1,2,-1
 533 16 l 2,3,4
 482 -20 482 -20 449 -20 c 0,5,6
 414 -20 414 -20 377 -8 c 0,7,8
 293 20 293 20 225 93 c 0,9,10
 148 177 148 177 148 290 c 0,11,12
 148 309 148 309 150 328 c 0,13,14
 156 381 156 381 187 419 c 0,15,16
 219 458 219 458 257 485 c 2,17,-1
 594 725 l 2,18,19
 645 761 645 761 679 761 c 0,20,21
 712 761 712 761 748 748 c 0,22,23
 811 724 811 724 862 673 c 1,24,-1
 865 689 l 2,25,26
 875 740 875 740 875 782 c 0,27,28
 875 858 875 858 841 899 c 0,29,30
 784 969 784 969 690 969 c 0,31,32
 604 969 604 969 515 893 c 1,33,-1
 480 948 l 1,34,-1
 670 1084 l 2,35,36
 720 1120 720 1120 755 1120 c 0,37,38
 795 1120 795 1120 831 1107 c 0,39,40
 927 1071 927 1071 983 985.5 c 128,-1,41
 1039 900 1039 900 1039 791 c 0,42,43
 1039 747 1039 747 1029 700 c 2,44,-1
 900 95 l 1,45,-1
 711 -40 l 1,0,-1
513 128 m 0,46,47
 613 128 613 128 695 198 c 0,48,49
 778 268 778 268 800 370 c 0,50,51
 806 399 806 399 806 425 c 0,52,53
 806 492 806 492 766 541 c 0,54,55
 708 612 708 612 614 612 c 0,56,57
 513 612 513 612 432 542 c 0,58,59
 350 472 350 472 328 370 c 0,60,61
 322 341 322 341 321 315 c 0,62,63
 321 248 321 248 361 199 c 0,64,65
 417 128 417 128 513 128 c 0,46,47
EndSplineSet
Validated: 1
EndChar

StartChar: b
Encoding: 98 98 69
Width: 1100
GlyphClass: 2
Flags: W
HStem: -20 160<482.711 634.534> 960 160<749.263 901.174> 1530 20G<641.148 679>
VStem: 254 172<196.94 458.915> 958 181<642.05 902.214>
DStem2: 174.726 -20 345.726 -20 0.207912 0.978148<386.894 953.897 1009.78 1467.32> 795.726 -20 975.963 -20 0.207912 0.978148<338.737 814.176>
LayerCount: 2
Fore
SplineSet
538 -20 m 0,0,1
 498 -20 498 -20 462 -7 c 0,2,3
 366 29 366 29 310 114.5 c 128,-1,4
 254 200 254 200 254 309 c 0,5,6
 254 353 254 353 264 400 c 2,7,-1
 481 1415 l 1,8,-1
 669 1550 l 1,9,-1
 679 1550 l 1,10,-1
 548 933 l 1,11,-1
 760 1084 l 2,12,13
 811 1120 811 1120 845 1120 c 0,14,15
 884 1120 884 1120 921 1107 c 0,16,17
 1017 1073 1017 1073 1072 997 c 0,18,19
 1139 904 1139 904 1139 791 c 0,20,21
 1139 747 1139 747 1129 700 c 2,22,-1
 1068 413 l 2,23,24
 1057 362 1057 362 1030 322 c 0,25,26
 1008 290 1008 290 960 256 c 2,27,-1
 623 16 l 2,28,29
 572 -20 572 -20 538 -20 c 0,0,1
606 140 m 0,30,31
 702 140 702 140 779 206 c 0,32,33
 858 273 858 273 885 400 c 2,34,-1
 949 700 l 2,35,36
 958 743 958 743 958 779 c 0,37,38
 958 849 958 849 923 893 c 0,39,40
 868 960 868 960 778 960 c 0,41,42
 682 960 682 960 605 894 c 0,43,44
 526 827 526 827 499 700 c 2,45,-1
 435 400 l 2,46,47
 426 357 426 357 426 321 c 0,48,49
 426 251 426 251 461 207 c 0,50,51
 516 140 516 140 606 140 c 0,30,31
EndSplineSet
Validated: 1
EndChar

StartChar: c
Encoding: 99 99 70
Width: 1030
GlyphClass: 2
Flags: W
HStem: -20 160<432.709 583.85> 960 160<698.966 851.174>
VStem: 196 180<197.786 458.778>
DStem2: 116.726 -20 295.726 -20 0.207912 0.978148<388.557 867.01> 1018 413 573 16 0.814549 0.580094<-512.916 -52.9168>
LayerCount: 2
Fore
SplineSet
489 -20 m 0,0,1
 451 -20 451 -20 414 -7 c 0,2,3
 318 27 318 27 263 103 c 0,4,5
 196 196 196 196 196 309 c 0,6,7
 196 352 196 352 206 400 c 2,8,-1
 266 687 l 2,9,10
 277 741 277 741 303 778 c 0,11,12
 325 810 325 810 373 844 c 2,13,-1
 710 1084 l 2,14,15
 761 1120 761 1120 795 1120 c 0,16,17
 834 1120 834 1120 871 1107 c 0,18,19
 967 1073 967 1073 1022 997 c 0,20,21
 1078 920 1078 920 1087 827 c 1,22,-1
 909 700 l 1,23,-1
 899 700 l 1,24,25
 908 743 908 743 908 779 c 0,26,27
 908 849 908 849 873 893 c 0,28,29
 818 960 818 960 728 960 c 0,30,31
 632 960 632 960 555 894 c 0,32,33
 476 827 476 827 449 700 c 2,34,-1
 385 400 l 2,35,36
 376 357 376 357 376 321 c 0,37,38
 376 251 376 251 411 207 c 0,39,40
 466 140 466 140 556 140 c 0,41,42
 637 140 637 140 729 206 c 10,43,-1
 1018 413 l 17,44,45
 1007 359 1007 359 980 322 c 0,46,47
 958 290 958 290 910 256 c 2,48,-1
 573 16 l 2,49,50
 522 -20 522 -20 489 -20 c 0,0,1
EndSplineSet
Validated: 1
EndChar

StartChar: d
Encoding: 100 100 71
Width: 1100
GlyphClass: 2
Flags: W
HStem: -40 21G<741 779> -20 160<432.709 584.237> 960 160<698.966 851.174> 1530 20G<1211.15 1249>
VStem: 196 180<197.786 458.778>
DStem2: 112.475 -40 291.475 -40 0.207912 0.978148<409.004 887.323> 741.001 -40 911.305 -40 0.207912 0.978148<173.424 211.625 264.911 834.721 1107.36 1487.66>
LayerCount: 2
Fore
SplineSet
489 -20 m 0,0,1
 451 -20 451 -20 414 -7 c 0,2,3
 318 27 318 27 263 103 c 0,4,5
 196 196 196 196 196 309 c 0,6,7
 196 352 196 352 206 400 c 2,8,-1
 266 687 l 2,9,10
 277 742 277 742 303 778 c 0,11,12
 327 812 327 812 373 844 c 2,13,-1
 710 1084 l 2,14,15
 761 1120 761 1120 795 1120 c 0,16,17
 834 1120 834 1120 871 1107 c 0,18,19
 932 1087 932 1087 972 1043 c 1,20,-1
 1051 1415 l 1,21,-1
 1239 1550 l 1,22,-1
 1249 1550 l 1,23,-1
 940 95 l 1,24,-1
 751 -40 l 1,25,-1
 741 -40 l 1,26,-1
 785 167 l 1,27,-1
 573 16 l 2,28,29
 522 -20 522 -20 489 -20 c 0,0,1
556 140 m 0,30,31
 652 140 652 140 729 206 c 0,32,33
 808 273 808 273 835 400 c 2,34,-1
 899 700 l 2,35,36
 908 743 908 743 908 779 c 0,37,38
 908 849 908 849 873 893 c 0,39,40
 818 960 818 960 728 960 c 0,41,42
 632 960 632 960 555 894 c 0,43,44
 476 827 476 827 449 700 c 2,45,-1
 385 400 l 2,46,47
 376 357 376 357 376 321 c 0,48,49
 376 251 376 251 411 207 c 0,50,51
 466 140 466 140 556 140 c 0,30,31
EndSplineSet
Validated: 1
EndChar

StartChar: e
Encoding: 101 101 72
Width: 1030
GlyphClass: 2
Flags: W
HStem: -20 160<432.861 583.85> 960 160<698.966 851.174>
VStem: 910 179<774 901.113>
DStem2: 116.726 -20 295.514 -20 0.207912 0.978148<436.687 867.01> 380 370 381 270 0.814665 0.579931<0 667.532> 1018 413 573 16 0.814549 0.580094<-512.916 -54.4382>
LayerCount: 2
Fore
SplineSet
489 -20 m 0,0,1
 451 -20 451 -20 414 -7 c 0,2,3
 318 27 318 27 263 103 c 0,4,5
 196 196 196 196 196 309 c 0,6,7
 196 352 196 352 206 400 c 2,8,-1
 266 687 l 2,9,10
 277 741 277 741 303 778 c 0,11,12
 325 810 325 810 373 844 c 2,13,-1
 710 1084 l 2,14,15
 761 1120 761 1120 795 1120 c 0,16,17
 834 1120 834 1120 871 1107 c 0,18,19
 967 1073 967 1073 1022 997 c 0,20,21
 1089 904 1089 904 1089 774 c 1,22,-1
 381 270 l 1,23,24
 389 233 389 233 411 207 c 0,25,26
 467 140 467 140 556 140 c 0,27,28
 637 140 637 140 729 206 c 2,29,-1
 1018 413 l 1,30,31
 1008 362 1008 362 980 322 c 0,32,33
 958 290 958 290 910 256 c 2,34,-1
 573 16 l 2,35,36
 522 -20 522 -20 489 -20 c 0,0,1
380 370 m 1,37,-1
 908 747 l 1,38,39
 910 762 910 762 910 777 c 0,40,41
 910 847 910 847 873 893 c 0,42,43
 818 960 818 960 728 960 c 0,44,45
 632 960 632 960 555 894 c 0,46,47
 476 827 476 827 449 700 c 2,48,-1
 385 401 l 2,49,50
 382 385 382 385 380 370 c 1,37,-1
EndSplineSet
Validated: 1
EndChar

StartChar: f
Encoding: 102 102 73
Width: 893
GlyphClass: 2
Flags: W
HStem: -40 21G<201 239> 790 110<295 378 571 816> 1370 160<868.063 1017.27>
DStem2: 201 -40 371.305 -40 0.207912 0.978148<173.424 848.663 996.386 1298.26>
LayerCount: 2
Fore
SplineSet
201 -40 m 1,0,-1
 378 790 l 1,1,-1
 188 790 l 1,2,-1
 190 800 l 1,3,-1
 295 900 l 1,4,-1
 401 900 l 1,5,-1
 442 1093 l 2,6,7
 454 1150 454 1150 480 1184 c 0,8,9
 505 1216 505 1216 550 1250 c 2,10,-1
 878 1494 l 2,11,12
 926 1530 926 1530 963 1530 c 0,13,14
 1002 1530 1002 1530 1039 1517 c 0,15,16
 1132 1484 1132 1484 1188 1411 c 1,17,-1
 1038 1304 l 1,18,19
 984 1370 984 1370 895 1370 c 0,20,21
 799 1370 799 1370 722 1304 c 0,22,23
 643 1237 643 1237 616 1110 c 2,24,-1
 571 900 l 1,25,-1
 923 900 l 1,26,-1
 921 890 l 1,27,-1
 816 790 l 1,28,-1
 548 790 l 1,29,-1
 400 95 l 1,30,-1
 211 -40 l 1,31,-1
 201 -40 l 1,0,-1
EndSplineSet
Validated: 1
EndChar

StartChar: g
Encoding: 103 103 74
Width: 1050
GlyphClass: 2
Flags: W
HStem: -430 160<345.709 497.534> -20 160<432.709 584.237> 960 160<698.966 851.174>
VStem: 196 180<197.786 458.111> 908 181<640.889 902.214>
DStem2: 29.5781 -430 208.791 -430 0.207912 0.978148<807.686 1286.17> 658.726 -430 838.963 -430 0.207912 0.978148<338.737 609.23 666.272 1233.3>
LayerCount: 2
Fore
SplineSet
489 -20 m 0,0,1
 451 -20 451 -20 414 -7 c 0,2,3
 318 27 318 27 263 103 c 0,4,5
 196 196 196 196 196 309 c 0,6,7
 196 352 196 352 206 400 c 2,8,-1
 266 687 l 2,9,10
 277 741 277 741 303 778 c 0,11,12
 325 810 325 810 373 844 c 2,13,-1
 710 1084 l 2,14,15
 761 1120 761 1120 795 1120 c 0,16,17
 834 1120 834 1120 871 1107 c 0,18,19
 967 1073 967 1073 1022 997 c 0,20,21
 1089 904 1089 904 1089 791 c 0,22,23
 1089 747 1089 747 1079 700 c 2,24,-1
 931 3 l 2,25,26
 920 -51 920 -51 893 -88 c 0,27,28
 871 -120 871 -120 823 -154 c 2,29,-1
 486 -394 l 2,30,31
 435 -430 435 -430 402 -430 c 0,32,33
 364 -430 364 -430 327 -417 c 0,34,35
 229 -383 229 -383 177 -310 c 1,36,-1
 324 -203 l 1,37,38
 379 -270 379 -270 469 -270 c 0,39,40
 565 -270 565 -270 642 -204 c 0,41,42
 721 -137 721 -137 748 -10 c 2,43,-1
 785 166 l 1,44,-1
 573 16 l 2,45,46
 522 -20 522 -20 489 -20 c 0,0,1
556 140 m 0,47,48
 652 140 652 140 729 206 c 0,49,50
 808 273 808 273 835 399 c 2,51,-1
 899 700 l 2,52,53
 908 743 908 743 908 779 c 0,54,55
 908 849 908 849 873 893 c 0,56,57
 818 960 818 960 728 960 c 0,58,59
 632 960 632 960 555 894 c 0,60,61
 476 827 476 827 449 700 c 2,62,-1
 385 399 l 2,63,64
 376 356 376 356 376 321 c 0,65,66
 376 251 376 251 411 207 c 0,67,68
 466 140 466 140 556 140 c 0,47,48
EndSplineSet
Validated: 1
EndChar

StartChar: h
Encoding: 104 104 75
Width: 1120
GlyphClass: 2
Flags: W
HStem: -40 21G<171 209 791 829.112> 960 160<749.263 901.174> 1530 20G<641.148 679>
VStem: 958 181<637.529 902.214>
DStem2: 171 -40 341.305 -40 0.207912 0.978148<173.424 974.235 1030.12 1487.66> 791 -40 971.604 -40 0.207912 0.978148<183.744 834.722>
LayerCount: 2
Fore
SplineSet
171 -40 m 1,0,-1
 481 1415 l 1,1,-1
 669 1550 l 1,2,-1
 679 1550 l 1,3,-1
 548 933 l 1,4,-1
 760 1084 l 2,5,6
 811 1120 811 1120 845 1120 c 0,7,8
 884 1120 884 1120 921 1107 c 0,9,10
 1017 1073 1017 1073 1072 997 c 0,11,12
 1139 904 1139 904 1139 791 c 0,13,14
 1139 747 1139 747 1129 700 c 2,15,-1
 1002 103 l 1,16,-1
 801 -40 l 1,17,-1
 791 -40 l 1,18,-1
 949 700 l 2,19,20
 958 743 958 743 958 779 c 0,21,22
 958 849 958 849 923 893 c 0,23,24
 868 960 868 960 778 960 c 0,25,26
 682 960 682 960 605 894 c 0,27,28
 526 827 526 827 499 700 c 2,29,-1
 370 95 l 1,30,-1
 181 -40 l 1,31,-1
 171 -40 l 1,0,-1
EndSplineSet
Validated: 1
EndChar

StartChar: i
Encoding: 105 105 76
Width: 540
GlyphClass: 2
Flags: W
HStem: -40 21G<176 214> 1120 20G<559.148 597> 1510 20G<598 613.5>
VStem: 442 253<1351.81 1456.19>
DStem2: 176 -40 346.305 -40 0.207912 0.978148<173.424 1068.53>
LayerCount: 2
Fore
SplineSet
607 1530 m 0,0,1
 620 1530 620 1530 635 1524 c 0,2,3
 665 1511 665 1511 680 1483 c 128,-1,4
 695 1455 695 1455 695 1427 c 0,5,6
 695 1416 695 1416 693 1406 c 0,7,8
 687 1377 687 1377 660 1358 c 2,9,-1
 568 1292 l 2,10,11
 548 1278 548 1278 530 1278 c 0,12,13
 517 1278 517 1278 502 1284 c 0,14,15
 473 1296 473 1296 457 1325 c 0,16,17
 442 1353 442 1353 442 1381 c 0,18,19
 442 1392 442 1392 444 1402 c 0,20,21
 450 1431 450 1431 477 1450 c 2,22,-1
 569 1516 l 2,23,24
 589 1530 589 1530 607 1530 c 0,0,1
176 -40 m 1,25,-1
 399 1005 l 1,26,-1
 587 1140 l 1,27,-1
 597 1140 l 1,28,-1
 375 95 l 1,29,-1
 186 -40 l 1,30,-1
 176 -40 l 1,25,-1
EndSplineSet
Validated: 1
EndChar

StartChar: j
Encoding: 106 106 77
Width: 540
GlyphClass: 2
Flags: W
HStem: -450 21G<19 154.5> 1120 20G<559.148 597> 1510 20G<598 613.5>
VStem: 442 253<1351.81 1456.19>
DStem2: 89.7302 -450 259.533 -450 0.207912 0.978148<174.072 1487.51>
LayerCount: 2
Fore
SplineSet
607 1530 m 0,0,1
 620 1530 620 1530 635 1524 c 0,2,3
 665 1511 665 1511 680 1483 c 128,-1,4
 695 1455 695 1455 695 1427 c 0,5,6
 695 1416 695 1416 693 1406 c 0,7,8
 687 1377 687 1377 660 1358 c 2,9,-1
 568 1292 l 2,10,11
 548 1278 548 1278 530 1278 c 0,12,13
 517 1278 517 1278 502 1284 c 0,14,15
 473 1296 473 1296 457 1325 c 0,16,17
 442 1353 442 1353 442 1381 c 0,18,19
 442 1392 442 1392 444 1402 c 0,20,21
 450 1431 450 1431 477 1450 c 2,22,-1
 569 1516 l 2,23,24
 589 1530 589 1530 607 1530 c 0,0,1
19 -450 m 1,25,26
 123 -288 123 -288 155 -142 c 2,27,-1
 399 1005 l 1,28,-1
 587 1140 l 1,29,-1
 597 1140 l 1,30,-1
 325 -142 l 2,31,32
 280 -354 280 -354 29 -450 c 1,33,-1
 19 -450 l 1,25,26
EndSplineSet
Validated: 1
EndChar

StartChar: k
Encoding: 107 107 78
Width: 1120
GlyphClass: 2
Flags: W
HStem: -40 21G<171 209 791 829.112> 1120 20G<1103.98 1154.62> 1530 20G<641.148 679>
VStem: 905 181<393.267 655.214>
DStem2: 171 -40 341.305 -40 0.207912 0.978148<173.424 722.034 777.706 1487.66> 791 -40 971.604 -40 0.207912 0.978148<183.744 582.1> 1132 1140 876 857 0.813906 0.580996<-372.782 0>
LayerCount: 2
Fore
SplineSet
171 -40 m 1,0,-1
 481 1415 l 1,1,-1
 669 1550 l 1,2,-1
 679 1550 l 1,3,-1
 496 686 l 1,4,-1
 1132 1140 l 1,5,-1
 1142 1140 l 1,6,-1
 1183 1075 l 1,7,-1
 876 857 l 1,8,9
 966 823 966 823 1019 750 c 0,10,11
 1086 657 1086 657 1086 544 c 0,12,13
 1086 500 1086 500 1076 453 c 2,14,-1
 1002 103 l 1,15,-1
 801 -40 l 1,16,-1
 791 -40 l 1,17,-1
 896 453 l 2,18,19
 905 496 905 496 905 532 c 0,20,21
 905 603 905 603 870 646 c 0,22,23
 815 713 815 713 726 713 c 0,24,25
 632 713 632 713 553 647 c 0,26,27
 473 581 473 581 446 453 c 2,28,-1
 370 95 l 1,29,-1
 181 -40 l 1,30,-1
 171 -40 l 1,0,-1
EndSplineSet
Validated: 1
EndChar

StartChar: l
Encoding: 108 108 79
Width: 530
GlyphClass: 2
Flags: W
HStem: -40 21G<171 209> 1530 20G<641.148 679>
VStem: 171 508
DStem2: 171 -40 341.305 -40 0.207912 0.978148<173.424 1487.66>
LayerCount: 2
Fore
SplineSet
171 -40 m 1,0,-1
 481 1415 l 1,1,-1
 669 1550 l 1,2,-1
 679 1550 l 1,3,-1
 370 95 l 1,4,-1
 181 -40 l 1,5,-1
 171 -40 l 1,0,-1
EndSplineSet
Validated: 1
EndChar

StartChar: m
Encoding: 109 109 80
Width: 1750
GlyphClass: 2
Flags: W
HStem: -40 21G<171 209 791 829.112 1421 1459.11> 960 160<749.287 901.174 1378 1531.17> 1120 20G<554.148 592>
VStem: 1588 181<637.529 902.214>
DStem2: 171 -40 341.305 -40 0.207912 0.978148<173.424 974.235 1031.31 1068.53> 791 -40 971.604 -40 0.207912 0.978148<183.744 834.722> 1421 -40 1601.6 -40 0.207912 0.978148<183.744 834.722>
LayerCount: 2
Fore
SplineSet
171 -40 m 1,0,-1
 394 1005 l 1,1,-1
 582 1140 l 1,2,-1
 592 1140 l 1,3,-1
 549 934 l 1,4,-1
 760 1084 l 2,5,6
 811 1120 811 1120 845 1120 c 0,7,8
 884 1120 884 1120 921 1107 c 0,9,10
 1017 1073 1017 1073 1072 997 c 0,11,12
 1109 946 1109 946 1124 895 c 1,13,-1
 1390 1084 l 2,14,15
 1441 1120 1441 1120 1475 1120 c 0,16,17
 1514 1120 1514 1120 1551 1107 c 0,18,19
 1647 1073 1647 1073 1702 997 c 0,20,21
 1769 904 1769 904 1769 791 c 0,22,23
 1769 747 1769 747 1759 700 c 2,24,-1
 1632 103 l 1,25,-1
 1431 -40 l 1,26,-1
 1421 -40 l 1,27,-1
 1579 700 l 2,28,29
 1588 743 1588 743 1588 779 c 0,30,31
 1588 849 1588 849 1553 893 c 0,32,33
 1498 960 1498 960 1408 960 c 0,34,35
 1312 960 1312 960 1235 894 c 0,36,37
 1156 827 1156 827 1129 700 c 2,38,-1
 1002 103 l 1,39,-1
 801 -40 l 1,40,-1
 791 -40 l 1,41,-1
 949 700 l 2,42,43
 958 743 958 743 958 779 c 0,44,45
 958 849 958 849 923 893 c 0,46,47
 868 960 868 960 778 960 c 0,48,49
 682 960 682 960 605 894 c 0,50,51
 526 827 526 827 499 700 c 2,52,-1
 370 95 l 1,53,-1
 181 -40 l 1,54,-1
 171 -40 l 1,0,-1
EndSplineSet
Validated: 1
EndChar

StartChar: n
Encoding: 110 110 81
Width: 1120
GlyphClass: 2
Flags: W
HStem: -40 21G<171 209 791 829.112> 960 160<749.263 901.174> 1120 20G<554.148 592>
VStem: 958 181<539.773 902.637>
DStem2: 171 -40 341.305 -40 0.207912 0.978148<173.424 974.235 1030.12 1068.53> 791 -40 971.604 -40 0.207912 0.978148<183.744 834.722>
LayerCount: 2
Fore
SplineSet
1129 700 m 2,0,-1
 1002 103 l 1,1,-1
 801 -40 l 1,2,-1
 791 -40 l 1,3,-1
 949 700 l 2,4,5
 958 743 958 743 958 779 c 0,6,7
 958 849 958 849 923 893 c 0,8,9
 868 960 868 960 778 960 c 0,10,11
 682 960 682 960 605 894 c 0,12,13
 526 827 526 827 499 700 c 2,14,-1
 370 95 l 1,15,-1
 181 -40 l 1,16,-1
 171 -40 l 1,17,-1
 394 1005 l 1,18,-1
 582 1140 l 1,19,-1
 592 1140 l 1,20,-1
 548 933 l 1,21,-1
 760 1084 l 2,22,23
 811 1120 811 1120 845 1120 c 0,24,25
 884 1120 884 1120 921 1107 c 0,26,27
 1017 1073 1017 1073 1072 997 c 0,28,29
 1139 904 1139 904 1139 791 c 0,30,31
 1139 747 1139 747 1129 700 c 2,0,-1
EndSplineSet
Validated: 1
EndChar

StartChar: o
Encoding: 111 111 82
Width: 1050
GlyphClass: 2
Flags: W
HStem: -20 160<432.709 584.534> 959 161<698.966 851.174>
VStem: 196 180<197.786 458.719> 908 181<642.05 902.06>
DStem2: 116.726 -20 295.726 -20 0.207912 0.978148<388.557 866.502> 745.726 -20 925.963 -20 0.207912 0.978148<338.737 813.198>
LayerCount: 2
Fore
SplineSet
489 -20 m 0,0,1
 451 -20 451 -20 414 -7 c 0,2,3
 318 27 318 27 263 103 c 0,4,5
 196 196 196 196 196 309 c 0,6,7
 196 352 196 352 206 400 c 2,8,-1
 266 687 l 2,9,10
 278 743 278 743 303 778 c 0,11,12
 325 810 325 810 373 844 c 2,13,-1
 710 1084 l 2,14,15
 761 1120 761 1120 795 1120 c 0,16,17
 834 1120 834 1120 871 1107 c 0,18,19
 967 1073 967 1073 1022 997 c 0,20,21
 1089 904 1089 904 1089 791 c 0,22,23
 1089 747 1089 747 1079 700 c 2,24,-1
 1018 413 l 2,25,26
 1007 361 1007 361 980 322 c 0,27,28
 958 290 958 290 910 256 c 2,29,-1
 573 16 l 2,30,31
 522 -20 522 -20 489 -20 c 0,0,1
556 140 m 0,32,33
 652 140 652 140 729 206 c 0,34,35
 808 273 808 273 835 400 c 2,36,-1
 899 699 l 2,37,38
 908 742 908 742 908 778 c 0,39,40
 908 848 908 848 873 892 c 0,41,42
 818 959 818 959 728 959 c 0,43,44
 632 959 632 959 555 893 c 0,45,46
 476 826 476 826 449 699 c 2,47,-1
 385 400 l 2,48,49
 376 357 376 357 376 321 c 0,50,51
 376 251 376 251 411 207 c 0,52,53
 466 140 466 140 556 140 c 0,32,33
EndSplineSet
Validated: 1
EndChar

StartChar: p
Encoding: 112 112 83
Width: 1100
GlyphClass: 2
Flags: W
HStem: -450 21G<84 122> -20 160<482.521 634.534> 960 160<749.263 901.174> 1120 20G<554.148 592>
VStem: 958 181<642.05 902.214>
DStem2: 84 -450 254.305 -450 0.207912 0.978148<173.424 553.72 826.36 1393.36 1449.25 1487.66> 704.327 -450 884.564 -450 0.207912 0.978148<778.344 1253.78>
LayerCount: 2
Fore
SplineSet
539 -20 m 0,0,1
 500 -20 500 -20 464 -7 c 0,2,3
 408 13 408 13 362 57 c 1,4,-1
 283 -315 l 1,5,-1
 94 -450 l 1,6,-1
 84 -450 l 1,7,-1
 394 1005 l 1,8,-1
 582 1140 l 1,9,-1
 592 1140 l 1,10,-1
 548 933 l 1,11,-1
 760 1084 l 2,12,13
 811 1120 811 1120 845 1120 c 0,14,15
 884 1120 884 1120 921 1107 c 0,16,17
 1017 1073 1017 1073 1072 997 c 0,18,19
 1139 904 1139 904 1139 791 c 0,20,21
 1139 747 1139 747 1129 700 c 2,22,-1
 1068 413 l 2,23,24
 1057 361 1057 361 1030 322 c 0,25,26
 1008 290 1008 290 960 256 c 2,27,-1
 623 16 l 2,28,29
 572 -20 572 -20 539 -20 c 0,0,1
778 960 m 0,30,31
 682 960 682 960 605 894 c 0,32,33
 526 827 526 827 499 700 c 2,34,-1
 435 400 l 2,35,36
 426 357 426 357 426 321 c 0,37,38
 426 251 426 251 461 207 c 0,39,40
 516 140 516 140 606 140 c 0,41,42
 702 140 702 140 779 206 c 0,43,44
 858 273 858 273 885 400 c 2,45,-1
 949 700 l 2,46,47
 958 743 958 743 958 779 c 0,48,49
 958 849 958 849 923 893 c 0,50,51
 868 960 868 960 778 960 c 0,30,31
EndSplineSet
Validated: 1
EndChar

StartChar: q
Encoding: 113 113 84
Width: 1100
GlyphClass: 2
Flags: W
HStem: -450 21G<654 692> -20 160<432.709 584.237> 960 160<698.966 851.369>
VStem: 196 180<197.786 458.778> 908 171<641.085 903.06>
DStem2: 25.3269 -450 204.327 -450 0.207912 0.978148<828.163 1306.62> 654 -450 824.305 -450 0.207912 0.978148<173.424 630.754 684.04 1253.85>
LayerCount: 2
Fore
SplineSet
489 -20 m 0,0,1
 451 -20 451 -20 414 -7 c 0,2,3
 318 27 318 27 263 103 c 0,4,5
 196 196 196 196 196 309 c 0,6,7
 196 352 196 352 206 400 c 2,8,-1
 266 687 l 2,9,10
 278 742 278 742 303 778 c 0,11,12
 325 810 325 810 373 844 c 2,13,-1
 710 1084 l 2,14,15
 761 1120 761 1120 795 1120 c 0,16,17
 835 1120 835 1120 871 1107 c 0,18,19
 967 1071 967 1071 1023 985.5 c 128,-1,20
 1079 900 1079 900 1079 791 c 0,21,22
 1079 747 1079 747 1069 700 c 2,23,-1
 853 -315 l 1,24,-1
 664 -450 l 1,25,-1
 654 -450 l 1,26,-1
 785 167 l 1,27,-1
 573 16 l 2,28,29
 522 -20 522 -20 489 -20 c 0,0,1
728 960 m 0,30,31
 632 960 632 960 555 894 c 0,32,33
 476 827 476 827 449 700 c 2,34,-1
 385 400 l 2,35,36
 376 357 376 357 376 321 c 0,37,38
 376 251 376 251 411 207 c 0,39,40
 466 140 466 140 556 140 c 0,41,42
 652 140 652 140 729 206 c 0,43,44
 808 273 808 273 835 400 c 2,45,-1
 899 700 l 2,46,47
 908 743 908 743 908 779 c 0,48,49
 908 849 908 849 873 893 c 0,50,51
 818 960 818 960 728 960 c 0,30,31
EndSplineSet
Validated: 1
EndChar

StartChar: r
Encoding: 114 114 85
Width: 966
GlyphClass: 2
Flags: W
HStem: -40 21G<171 209> 960 160<749.263 901.174> 1120 20G<554.148 592>
DStem2: 171 -40 341.305 -40 0.207912 0.978148<173.424 974.235 1030.12 1068.53>
LayerCount: 2
Fore
SplineSet
171 -40 m 1,0,-1
 394 1005 l 1,1,-1
 582 1140 l 1,2,-1
 592 1140 l 1,3,-1
 548 933 l 1,4,-1
 760 1084 l 2,5,6
 811 1120 811 1120 845 1120 c 0,7,8
 884 1120 884 1120 921 1107 c 0,9,10
 1017 1073 1017 1073 1072 997 c 0,11,12
 1128 919 1128 919 1137 827 c 1,13,-1
 959 700 l 1,14,-1
 949 700 l 1,15,16
 958 743 958 743 958 779 c 0,17,18
 958 849 958 849 923 893 c 0,19,20
 868 960 868 960 778 960 c 0,21,22
 682 960 682 960 605 894 c 0,23,24
 526 827 526 827 499 700 c 2,25,-1
 370 95 l 1,26,-1
 181 -40 l 1,27,-1
 171 -40 l 1,0,-1
EndSplineSet
Validated: 1
EndChar

StartChar: s
Encoding: 115 115 86
Width: 986
GlyphClass: 2
Flags: W
HStem: -20 160<393.709 545.534> 519 169<498.079 770.676> 970 150<654.219 794.515>
VStem: 299 175<727.847 848.98> 797 175<304.268 488.311>
LayerCount: 2
Fore
SplineSet
450 -20 m 0,0,1
 412 -20 412 -20 375 -7 c 0,2,3
 279 27 279 27 224 103 c 0,4,5
 166 183 166 183 158 274 c 1,6,-1
 336 400 l 1,7,-1
 346 400 l 1,8,9
 337 357 337 357 337 321 c 0,10,11
 337 251 337 251 372 207 c 0,12,13
 427 140 427 140 517 140 c 0,14,15
 613 140 613 140 690 206 c 0,16,17
 775 278 775 278 793 360 c 0,18,19
 797 381 797 381 797 400 c 0,20,21
 797 444 797 444 772 473 c 0,22,23
 731 519 731 519 588 519 c 0,24,25
 461 519 461 519 375 586 c 0,26,27
 299 645 299 645 299 739 c 0,28,29
 299 750 299 750 300 762 c 0,30,31
 304 806 304 806 333 838 c 0,32,33
 357 865 357 865 392 890 c 2,34,-1
 664 1084 l 2,35,36
 714 1120 714 1120 750 1120 c 0,37,38
 785 1120 785 1120 816 1110 c 0,39,40
 879 1088 879 1088 925 1032 c 0,41,42
 973 972 973 972 986 900 c 1,43,-1
 832 790 l 1,44,-1
 822 790 l 1,45,46
 827 814 827 814 827 835 c 0,47,48
 827 888 827 888 795 926 c 0,49,50
 757 970 757 970 684 970 c 0,51,52
 625 970 625 970 570 939 c 0,53,54
 493 895 493 895 478 826 c 0,55,56
 474 808 474 808 474 793 c 0,57,58
 474 754 474 754 497 727 c 0,59,60
 531 688 531 688 633 688 c 0,61,62
 816 688 816 688 905 597 c 0,63,64
 972 527 972 527 972 430 c 0,65,66
 972 412 972 412 970 393 c 0,67,68
 965 352 965 352 942 321 c 0,69,70
 920 291 920 291 871 256 c 2,71,-1
 534 16 l 2,72,73
 483 -20 483 -20 450 -20 c 0,0,1
EndSplineSet
Validated: 1
EndChar

StartChar: t
Encoding: 116 116 87
Width: 712
GlyphClass: 2
Flags: W
HStem: -40 21G<262 300> 990 110<323 481 675 833> 1530 20G<732.148 770>
DStem2: 262 -40 432.305 -40 0.207912 0.978148<173.424 1053.02 1200.96 1487.66>
LayerCount: 2
Fore
SplineSet
262 -40 m 1,0,-1
 481 990 l 1,1,-1
 215 990 l 1,2,-1
 218 1000 l 1,3,-1
 323 1100 l 1,4,-1
 505 1100 l 1,5,-1
 572 1415 l 1,6,-1
 760 1550 l 1,7,-1
 770 1550 l 1,8,-1
 675 1100 l 1,9,-1
 941 1100 l 1,10,-1
 939 1090 l 1,11,-1
 833 990 l 1,12,-1
 651 990 l 1,13,-1
 461 95 l 1,14,-1
 272 -40 l 1,15,-1
 262 -40 l 1,0,-1
EndSplineSet
Validated: 1
EndChar

StartChar: u
Encoding: 117 117 88
Width: 1120
GlyphClass: 2
Flags: W
HStem: -40 21G<761 799> -20 160<452.709 604.237> 1120 20G<524.028 562 1144.15 1182>
VStem: 216 180<197.786 462.931>
DStem2: 132.475 -40 311.688 -40 0.207912 0.978148<409.003 1059.98> 761.001 -40 931.305 -40 0.207912 0.978148<173.424 211.625 264.911 1068.53>
LayerCount: 2
Fore
SplineSet
509 -20 m 0,0,1
 471 -20 471 -20 434 -7 c 0,2,3
 338 27 338 27 283 103 c 0,4,5
 216 196 216 196 216 309 c 0,6,7
 216 353 216 353 226 400 c 2,8,-1
 352 997 l 1,9,-1
 552 1140 l 1,10,-1
 562 1140 l 1,11,-1
 405 399 l 2,12,13
 396 357 396 357 396 321 c 0,14,15
 396 251 396 251 431 207 c 0,16,17
 486 140 486 140 576 140 c 0,18,19
 672 140 672 140 749 206 c 0,20,21
 828 273 828 273 855 400 c 2,22,-1
 984 1005 l 1,23,-1
 1172 1140 l 1,24,-1
 1182 1140 l 1,25,-1
 960 95 l 1,26,-1
 771 -40 l 1,27,-1
 761 -40 l 1,28,-1
 805 167 l 1,29,-1
 593 16 l 2,30,31
 542 -20 542 -20 509 -20 c 0,0,1
EndSplineSet
Validated: 1
EndChar

StartChar: v
Encoding: 118 118 89
Width: 1130
GlyphClass: 2
Flags: W
HStem: -20 160<467.971 623.731> 1100 20G<403 485.5 1140 1272>
VStem: 236 175<197.786 461.631> 348 182<708.281 1038.42>
DStem2: 156.726 -20 330.726 -20 0.207912 0.978148<387.517 942.964> 790.726 -20 965.963 -20 0.207912 0.978148<338.737 1049.94>
LayerCount: 2
Fore
SplineSet
529 -20 m 0,0,1
 491 -20 491 -20 454 -7 c 0,2,3
 358 27 358 27 303 103 c 0,4,5
 236 196 236 196 236 309 c 0,6,7
 236 353 236 353 246 400 c 2,8,-1
 343 860 l 2,9,10
 348 884 348 884 348 904 c 0,11,12
 348 981 348 981 277 1010 c 1,13,-1
 431 1120 l 1,14,-1
 441 1120 l 1,15,16
 530 1064 530 1064 530 952 c 0,17,18
 530 918 530 918 522 880 c 2,19,-1
 420 400 l 2,20,21
 411 357 411 357 411 321 c 0,22,23
 411 251 411 251 446 207 c 0,24,25
 501 140 501 140 596 140 c 0,26,27
 697 140 697 140 774 206 c 0,28,29
 853 273 853 273 880 400 c 2,30,-1
 972 832 l 2,31,32
 1018 1050 1018 1050 1262 1140 c 1,33,-1
 1272 1140 l 1,34,35
 1186 1017 1186 1017 1147 832 c 2,36,-1
 1058 413 l 2,37,38
 1048 362 1048 362 1020 322 c 0,39,40
 998 290 998 290 950 256 c 2,41,-1
 613 16 l 2,42,43
 562 -20 562 -20 529 -20 c 0,0,1
EndSplineSet
Validated: 1
EndChar

StartChar: w
Encoding: 119 119 90
Width: 1760
GlyphClass: 2
Flags: W
HStem: -20 160<467.971 624.509 1100.58 1253.73> 1100 40G<403 485.5 1172.73 1210 1770 1902>
VStem: 236 175<197.786 461.631> 348 182<708.281 1038.42>
DStem2: 156.726 -20 330.726 -20 0.207912 0.978148<387.517 942.964> 788.83 -20 963.434 -20 0.207912 0.978148<387.704 1039.72> 1420.73 -20 1595.96 -20 0.207912 0.978148<338.737 1049.94>
LayerCount: 2
Fore
SplineSet
529 -20 m 0,0,1
 491 -20 491 -20 454 -7 c 0,2,3
 358 27 358 27 303 103 c 0,4,5
 236 196 236 196 236 309 c 0,6,7
 236 353 236 353 246 400 c 2,8,-1
 343 860 l 2,9,10
 348 884 348 884 348 904 c 0,11,12
 348 981 348 981 277 1010 c 1,13,-1
 431 1120 l 1,14,-1
 441 1120 l 1,15,16
 530 1064 530 1064 530 952 c 0,17,18
 530 918 530 918 522 880 c 2,19,-1
 420 400 l 2,20,21
 411 357 411 357 411 321 c 0,22,23
 411 250 411 250 446 207 c 0,24,25
 501 140 501 140 596 140 c 0,26,27
 695 140 695 140 772 206 c 0,28,29
 851 273 851 273 878 399 c 2,30,-1
 1005 997 l 1,31,-1
 1200 1140 l 1,32,-1
 1210 1140 l 1,33,-1
 1053 400 l 2,34,35
 1044 357 1044 357 1044 321 c 0,36,37
 1044 250 1044 250 1079 207 c 0,38,39
 1134 140 1134 140 1226 140 c 0,40,41
 1327 140 1327 140 1404 206 c 0,42,43
 1483 273 1483 273 1510 400 c 2,44,-1
 1602 832 l 2,45,46
 1648 1050 1648 1050 1892 1140 c 1,47,-1
 1902 1140 l 1,48,49
 1816 1016 1816 1016 1777 832 c 2,50,-1
 1688 413 l 2,51,52
 1676 359 1676 359 1650 322 c 0,53,54
 1628 290 1628 290 1580 256 c 2,55,-1
 1243 16 l 2,56,57
 1192 -20 1192 -20 1159 -20 c 0,58,59
 1121 -20 1121 -20 1084 -7 c 0,60,61
 985 28 985 28 933 103 c 0,62,63
 901 149 901 149 882 206 c 1,64,-1
 613 16 l 2,65,66
 562 -20 562 -20 529 -20 c 0,0,1
EndSplineSet
Validated: 1
EndChar

StartChar: x
Encoding: 120 120 91
Width: 1100
GlyphClass: 2
Flags: W
HStem: -40 21G<151 189.058 756 794.058> 470 159<566.764 767.236> 1120 20G<539.086 577 1144.09 1182>
VStem: 340 174<689.199 1002.98> 821 173<96.7422 408.209>
DStem2: 151.774 -40 326.861 -40 0.207912 0.978148<178.424 387.81 900.106 1064.25> 756.861 -40 931.455 -40 0.207912 0.978148<178.405 342.754 853.287 1064.23>
LayerCount: 2
Fore
SplineSet
151 -40 m 1,0,-1
 203 201 l 2,1,2
 216 259 216 259 240 292 c 0,3,4
 265 325 265 325 310 358 c 2,5,-1
 512 506 l 1,6,7
 448 539 448 539 407 596 c 0,8,9
 340 689 340 689 340 802 c 0,10,11
 340 846 340 846 350 893 c 2,12,-1
 373 1001 l 1,13,-1
 567 1140 l 1,14,-1
 577 1140 l 1,15,-1
 524 889 l 2,16,17
 514 841 514 841 514 802 c 0,18,19
 514 734 514 734 545 696 c 0,20,21
 600 629 600 629 685 629 c 0,22,23
 776 629 776 629 853 695 c 0,24,25
 926 757 926 757 954 889 c 2,26,-1
 978 1001 l 1,27,-1
 1172 1140 l 1,28,-1
 1182 1140 l 1,29,-1
 1131 898 l 2,30,31
 1120 844 1120 844 1094 807 c 0,32,33
 1069 773 1069 773 1024 741 c 2,34,-1
 818 595 l 1,35,36
 885 562 885 562 927 503 c 0,37,38
 994 410 994 410 994 297 c 0,39,40
 994 253 994 253 984 206 c 2,41,-1
 961 99 l 1,42,-1
 766 -40 l 1,43,-1
 756 -40 l 1,44,-1
 810 210 l 2,45,46
 821 259 821 259 821 298 c 0,47,48
 821 365 821 365 789 403 c 0,49,50
 734 470 734 470 649 470 c 0,51,52
 558 470 558 470 481 404 c 0,53,54
 409 343 409 343 380 210 c 2,55,-1
 356 99 l 1,56,-1
 161 -40 l 1,57,-1
 151 -40 l 1,0,-1
EndSplineSet
Validated: 1
EndChar

StartChar: y
Encoding: 121 121 92
Width: 1120
GlyphClass: 2
Flags: W
HStem: -430 160<365.709 517.362> -20 160<452.709 604.237> 1120 20G<524.028 562 1144.15 1182>
VStem: 216 180<197.786 462.931>
DStem2: 49.5781 -430 228.791 -430 0.207912 0.978148<807.716 1458.69> 678.726 -430 848.663 -430 0.207912 0.978148<327.876 610.208 666.301 1467.11>
LayerCount: 2
Fore
SplineSet
509 -20 m 0,0,1
 471 -20 471 -20 434 -7 c 0,2,3
 338 27 338 27 283 103 c 0,4,5
 216 196 216 196 216 309 c 0,6,7
 216 353 216 353 226 400 c 2,8,-1
 352 997 l 1,9,-1
 552 1140 l 1,10,-1
 562 1140 l 1,11,-1
 405 399 l 2,12,13
 396 357 396 357 396 321 c 0,14,15
 396 251 396 251 431 207 c 0,16,17
 486 140 486 140 576 140 c 0,18,19
 672 140 672 140 749 206 c 0,20,21
 828 273 828 273 855 400 c 2,22,-1
 984 1005 l 1,23,-1
 1172 1140 l 1,24,-1
 1182 1140 l 1,25,-1
 939 -5 l 2,26,27
 927 -60 927 -60 902 -96 c 0,28,29
 880 -128 880 -128 832 -162 c 2,30,-1
 506 -394 l 2,31,32
 455 -430 455 -430 422 -430 c 0,33,34
 384 -430 384 -430 347 -417 c 0,35,36
 249 -383 249 -383 197 -310 c 1,37,-1
 344 -203 l 1,38,39
 399 -270 399 -270 489 -270 c 0,40,41
 585 -270 585 -270 662 -204 c 0,42,43
 741 -138 741 -138 768 -10 c 2,44,-1
 805 167 l 1,45,-1
 593 16 l 2,46,47
 542 -20 542 -20 509 -20 c 0,0,1
EndSplineSet
Validated: 1
EndChar

StartChar: z
Encoding: 122 122 93
Width: 1025
GlyphClass: 2
Flags: W
HStem: 0 110<365 831> 400 110<342 404 672 896> 990 110<518 862>
DStem2: 102 10 365 110 0.612824 0.79022<240.195 493.258 744.419 1240.16>
LayerCount: 2
Fore
SplineSet
100 0 m 1,0,-1
 102 10 l 1,1,-1
 404 400 l 1,2,-1
 235 400 l 1,3,-1
 237 410 l 1,4,-1
 342 510 l 1,5,-1
 490 510 l 1,6,-1
 862 990 l 1,7,-1
 410 990 l 1,8,-1
 413 1000 l 1,9,-1
 518 1100 l 1,10,-1
 1129 1100 l 1,11,-1
 1117 1090 l 1,12,-1
 672 510 l 1,13,-1
 1003 510 l 1,14,-1
 1001 500 l 1,15,-1
 896 400 l 1,16,-1
 588 400 l 1,17,-1
 365 110 l 1,18,-1
 938 110 l 1,19,-1
 936 100 l 1,20,-1
 831 0 l 1,21,-1
 100 0 l 1,0,-1
EndSplineSet
Validated: 1
EndChar

StartChar: braceleft
Encoding: 123 123 94
Width: 864
GlyphClass: 2
Flags: W
HStem: -240 180<595.1 742>
VStem: 300 200<39.0132 340.495>
DStem2: 199.471 -240 399.471 -240 0.207912 0.978148<486.329 924.067 1110.2 1644.46>
LayerCount: 2
Fore
SplineSet
671 -240 m 0,0,1
 631 -240 631 -240 599 -230 c 0,2,3
 474 -192 474 -192 375 -58 c 0,4,5
 300 44 300 44 300 185 c 0,6,7
 300 233 300 233 310 280 c 2,8,-1
 391 664 l 1,9,-1
 171 664 l 1,10,-1
 173 674 l 1,11,-1
 354 846 l 1,12,-1
 430 846 l 1,13,-1
 511 1230 l 2,14,15
 522 1284 522 1284 549 1321 c 0,16,17
 571 1352 571 1352 619 1387 c 2,18,-1
 1076 1714 l 2,19,20
 1127 1750 1127 1750 1161 1750 c 0,21,22
 1194 1750 1194 1750 1230 1743 c 1,23,-1
 1089 1570 l 1,24,25
 957 1570 957 1570 851 1471 c 0,26,27
 742 1370 742 1370 711 1230 c 2,28,-1
 510 280 l 2,29,30
 500 234 500 234 500 192 c 0,31,32
 500 105 500 105 544 39 c 0,33,34
 611 -60 611 -60 742 -60 c 1,35,-1
 755 -204 l 1,36,37
 704 -240 704 -240 671 -240 c 0,0,1
EndSplineSet
Validated: 1
EndChar

StartChar: bar
Encoding: 124 124 95
Width: 626
GlyphClass: 2
Flags: W
VStem: 179 589
DStem2: 179 -240 345.155 -240 0.207912 0.978148<168.472 1900.5>
LayerCount: 2
Fore
SplineSet
179 -240 m 1,0,-1
 574 1619 l 1,1,-1
 758 1750 l 1,2,-1
 768 1750 l 1,3,-1
 373 -109 l 1,4,-1
 189 -240 l 1,5,-1
 179 -240 l 1,0,-1
EndSplineSet
Validated: 1
EndChar

StartChar: braceright
Encoding: 125 125 96
Width: 865
GlyphClass: 2
Flags: W
HStem: 1570 180<444 587.994>
VStem: 686 201<1170.16 1470.99>
DStem2: 364.471 -240 564.471 -240 0.207912 0.978148<431.563 965.649 1151.78 1589.52>
LayerCount: 2
Fore
SplineSet
516 1750 m 0,0,1
 556 1750 556 1750 588 1740 c 0,2,3
 713 1702 713 1702 812 1568 c 0,4,5
 887 1466 887 1466 887 1325 c 0,6,7
 887 1277 887 1277 877 1230 c 2,8,-1
 795 846 l 1,9,-1
 1015 846 l 1,10,-1
 1013 836 l 1,11,-1
 832 664 l 1,12,-1
 756 664 l 1,13,-1
 675 280 l 2,14,15
 664 226 664 226 637 189 c 0,16,17
 615 158 615 158 567 123 c 2,18,-1
 110 -204 l 2,19,20
 59 -240 59 -240 25 -240 c 0,21,22
 -8 -240 -8 -240 -45 -233 c 1,23,-1
 97 -60 l 1,24,25
 229 -60 229 -60 335 39 c 0,26,27
 444 140 444 140 475 280 c 2,28,-1
 676 1230 l 2,29,30
 686 1276 686 1276 686 1318 c 0,31,32
 686 1405 686 1405 642 1471 c 0,33,34
 575 1570 575 1570 444 1570 c 1,35,-1
 431 1714 l 1,36,37
 482 1750 482 1750 516 1750 c 0,0,1
EndSplineSet
Validated: 1
EndChar

StartChar: asciitilde
Encoding: 126 126 97
Width: 1238
GlyphClass: 2
Flags: W
HStem: 566 90<951.506 1049.13> 847 97<509.812 609.46>
VStem: 274 202<645.815 776> 1084 201<734.5 865.291>
DStem2: 1252 957 1013 585 0.813733 0.581238<-246.876 -46.3027>
LayerCount: 2
Fore
SplineSet
1262 957 m 1,0,1
 1285 915 1285 915 1285 862 c 0,2,3
 1285 833 1285 833 1278 802 c 8,4,5
 1271 769 1271 769 1244 750 c 2,6,-1
 1013 585 l 2,7,8
 986 566 986 566 959 566 c 0,9,10
 743 566 743 566 680 692 c 0,11,12
 603 847 603 847 546 847 c 0,13,14
 489 846 489 846 478 793 c 0,15,16
 476 782 476 782 476 770 c 0,17,18
 476 731 476 731 505 694 c 1,19,-1
 307 553 l 1,20,-1
 297 553 l 1,21,22
 274 596 274 596 274 650 c 0,23,24
 274 678 274 678 280 708 c 8,25,26
 287 741 287 741 315 760 c 2,27,-1
 546 925 l 2,28,29
 573 944 573 944 600 944 c 0,30,31
 816 944 816 944 879 818 c 0,32,33
 962 656 962 656 1008 656 c 0,34,35
 1068 656 1068 656 1082 718 c 0,36,37
 1084 729 1084 729 1084 740 c 0,38,39
 1084 779 1084 779 1054 816 c 1,40,-1
 1252 957 l 1,41,-1
 1262 957 l 1,0,1
EndSplineSet
Validated: 1
EndChar

StartChar: exclamdown
Encoding: 161 161 99
Width: 560
GlyphClass: 2
Flags: W
HStem: -450 21G<74 112.229> 1100 20G<521 536.5>
VStem: 364 254<941.812 1045.88>
LayerCount: 2
Fore
SplineSet
530 1120 m 0,0,1
 543 1120 543 1120 558 1114 c 0,2,3
 587 1102 587 1102 603 1073 c 0,4,5
 618 1045 618 1045 618 1017 c 0,6,7
 618 1006 618 1006 616 996 c 0,8,9
 610 967 610 967 583 948 c 2,10,-1
 490 882 l 2,11,12
 470 868 470 868 452 868 c 0,13,14
 439 868 439 868 425 874 c 0,15,16
 395 887 395 887 379 915 c 0,17,18
 364 942 364 942 364 969 c 0,19,20
 364 981 364 981 367 992 c 0,21,22
 373 1021 373 1021 400 1040 c 2,23,-1
 492 1106 l 2,24,25
 512 1120 512 1120 530 1120 c 0,0,1
74 -450 m 1,26,-1
 362 708 l 1,27,-1
 513 815 l 1,28,-1
 523 815 l 1,29,-1
 331 -275 l 1,30,-1
 84 -450 l 1,31,-1
 74 -450 l 1,26,-1
EndSplineSet
Validated: 1
EndChar

StartChar: cent
Encoding: 162 162 100
Width: 1070
GlyphClass: 2
Flags: W
VStem: 216 180<208.381 458.778>
DStem2: 111.219 -140 290.219 -140 0.207912 0.978148<511.238 989.69> 473.493 -140 572.846 -140 0.207912 0.978148<98.3544 122.681 315.078 1121.37 1307.9 1332.99> 749 206 608 27 0.814929 0.579561<-125.654 301.071>
LayerCount: 2
Fore
SplineSet
499 -20 m 1,0,1
 466 -18 466 -18 434 -7 c 0,2,3
 338 27 338 27 283 103 c 0,4,5
 216 196 216 196 216 309 c 0,6,7
 216 352 216 352 226 400 c 2,8,-1
 286 687 l 2,9,10
 297 741 297 741 323 778 c 0,11,12
 345 810 345 810 393 844 c 2,13,-1
 734 1087 l 25,14,-1
 750 1164 l 1,15,-1
 857 1240 l 1,16,-1
 867 1240 l 1,17,-1
 841 1119 l 1,18,19
 866 1116 866 1116 891 1107 c 0,20,21
 987 1073 987 1073 1042 997 c 0,22,23
 1098 920 1098 920 1107 827 c 1,24,-1
 929 700 l 1,25,-1
 919 700 l 1,26,27
 928 743 928 743 928 779 c 0,28,29
 928 849 928 849 893 893 c 0,30,31
 857 937 857 937 806 952 c 1,32,-1
 634 148 l 1,33,34
 689 163 689 163 749 206 c 2,35,-1
 1038 413 l 1,36,37
 1028 362 1028 362 1000 322 c 0,38,39
 978 290 978 290 930 256 c 2,40,-1
 608 27 l 1,41,-1
 589 -64 l 1,42,-1
 483 -140 l 1,43,-1
 473 -140 l 1,44,-1
 499 -20 l 1,0,1
533 144 m 1,45,-1
 706 957 l 1,46,47
 635 946 635 946 575 894 c 0,48,49
 496 827 496 827 469 700 c 2,50,-1
 405 400 l 2,51,52
 396 357 396 357 396 321 c 0,53,54
 396 251 396 251 431 207 c 0,55,56
 472 157 472 157 533 144 c 1,45,-1
EndSplineSet
Validated: 1
EndChar

StartChar: sterling
Encoding: 163 163 101
Width: 1193
GlyphClass: 2
Flags: W
HStem: 0 130<170 258 458 1012> 520 130<279 341 568 910> 1109 21G<1090 1128.09> 1349 181<911.117 1059.71>
DStem2: 230.368 0 430.368 0 0.207912 0.978148<174.487 531.639 705.994 1251.71>
LayerCount: 2
Fore
SplineSet
40 0 m 1,0,-1
 42 8 l 1,1,-1
 170 130 l 1,2,-1
 258 130 l 1,3,-1
 341 520 l 1,4,-1
 151 520 l 1,5,-1
 153 530 l 1,6,-1
 279 650 l 1,7,-1
 368 650 l 1,8,-1
 461 1085 l 2,9,10
 472 1138 472 1138 498 1176 c 0,11,12
 520 1208 520 1208 568 1242 c 2,13,-1
 922 1494 l 2,14,15
 973 1530 973 1530 1007 1530 c 0,16,17
 1046 1530 1046 1530 1083 1517 c 0,18,19
 1179 1483 1179 1483 1234 1407 c 128,-1,20
 1289 1331 1289 1331 1298 1250 c 1,21,-1
 1100 1109 l 1,22,-1
 1090 1109 l 1,23,24
 1099 1153 1099 1153 1099 1189 c 0,25,26
 1099 1241 1099 1241 1080 1276 c 0,27,28
 1041 1349 1041 1349 935 1349 c 0,29,30
 839 1349 839 1349 762 1283 c 0,31,32
 689 1221 689 1221 668 1121 c 2,33,-1
 568 650 l 1,34,-1
 1038 650 l 1,35,-1
 1036 640 l 1,36,-1
 910 520 l 1,37,-1
 541 520 l 1,38,-1
 458 130 l 1,39,-1
 1141 130 l 1,40,-1
 1139 120 l 1,41,-1
 1012 0 l 1,42,-1
 40 0 l 1,0,-1
EndSplineSet
Validated: 1
EndChar

StartChar: currency
Encoding: 164 164 102
Width: 1463
GlyphClass: 2
Flags: W
HStem: 208 180<670.162 839.421> 1068 180<937.614 1107.28>
VStem: 373 201<487.915 811.691> 1204 200<644.309 968.085>
DStem2: 195 283 392 247 0.789209 0.614124<133.366 267.761 1373.44 1507.84>
LayerCount: 2
Fore
SplineSet
1034 1248 m 128,-1,1
 1069 1248 1069 1248 1103 1238 c 0,2,3
 1213 1207 1213 1207 1285 1130 c 1,4,-1
 1385 1209 l 1,5,-1
 1577 1180 l 1,6,-1
 1582 1173 l 1,7,-1
 1367 1004 l 1,8,9
 1404 916 1404 916 1404 824 c 0,10,11
 1404 776 1404 776 1394 728 c 0,12,13
 1383 674 1383 674 1356 637 c 0,14,15
 1332 604 1332 604 1286 571 c 2,16,-1
 1142 468 l 1,17,-1
 1270 321 l 1,18,-1
 1262 314 l 1,19,-1
 1057 284 l 1,20,-1
 993 361 l 1,21,-1
 828 244 l 2,22,23
 777 208 777 208 743 208 c 0,24,25
 708 208 708 208 674 218 c 0,26,27
 564 249 564 249 492 326 c 1,28,-1
 392 247 l 1,29,-1
 200 276 l 1,30,-1
 195 283 l 1,31,-1
 410 452 l 1,32,33
 373 540 373 540 373 632 c 0,34,35
 373 679 373 679 383 728 c 0,36,37
 394 782 394 782 421 819 c 0,38,39
 445 852 445 852 491 885 c 2,40,-1
 635 988 l 1,41,-1
 507 1135 l 1,42,-1
 516 1142 l 1,43,-1
 720 1172 l 1,44,-1
 785 1095 l 1,45,-1
 949 1212 l 2,46,0
 999 1248 999 1248 1034 1248 c 128,-1,1
584 728 m 0,47,48
 574 682 574 682 574 641 c 0,49,50
 574 553 574 553 619 487 c 0,51,52
 686 388 686 388 816 388 c 0,53,54
 948 388 948 388 1055 487 c 0,55,56
 1164 588 1164 588 1194 728 c 0,57,58
 1204 774 1204 774 1204 815 c 0,59,60
 1204 903 1204 903 1159 969 c 0,61,62
 1092 1068 1092 1068 961 1068 c 0,63,64
 829 1068 829 1068 723 969 c 0,65,66
 614 868 614 868 584 728 c 0,47,48
EndSplineSet
Validated: 1
EndChar

StartChar: yen
Encoding: 165 165 103
Width: 1252
GlyphClass: 2
Flags: W
HStem: -40 21G<520 558.176> 360 100<348 606 827 1085> 560 100<390 604 930 1127> 1530 20G<538.826 581.972 1364.87 1408>
DStem2: 577 1550 405 1435 0.249268 -0.968434<68.4958 868.637> 797 665 930 660 0.549213 0.835682<68.8669 1042.11>
LayerCount: 2
Fore
SplineSet
520 -40 m 1,0,-1
 606 360 l 1,1,-1
 251 360 l 1,2,-1
 253 370 l 1,3,-1
 348 460 l 1,4,-1
 627 460 l 1,5,-1
 640 522 l 1,6,-1
 630 560 l 1,7,-1
 293 560 l 1,8,-1
 295 570 l 1,9,-1
 390 660 l 1,10,-1
 604 660 l 1,11,-1
 405 1435 l 1,12,-1
 567 1550 l 1,13,-1
 577 1550 l 1,14,-1
 797 665 l 1,15,-1
 1378 1550 l 1,16,-1
 1388 1550 l 1,17,-1
 1465 1473 l 1,18,-1
 930 660 l 1,19,-1
 1224 660 l 1,20,-1
 1222 650 l 1,21,-1
 1127 560 l 1,22,-1
 865 560 l 1,23,-1
 840 522 l 1,24,-1
 827 460 l 1,25,-1
 1182 460 l 1,26,-1
 1180 450 l 1,27,-1
 1085 360 l 1,28,-1
 806 360 l 1,29,-1
 754 119 l 1,30,-1
 530 -40 l 1,31,-1
 520 -40 l 1,0,-1
EndSplineSet
Validated: 1
EndChar

StartChar: brokenbar
Encoding: 166 166 104
Width: 626
GlyphClass: 2
Flags: W
VStem: 179 589
DStem2: 179 -240 345.155 -240 0.207912 0.978148<168.472 787.271 1281.7 1900.5>
LayerCount: 2
Fore
SplineSet
179 -240 m 1,0,-1
 343 530 l 1,1,-1
 526 661 l 1,2,-1
 536 661 l 1,3,-1
 373 -109 l 1,4,-1
 189 -240 l 1,5,-1
 179 -240 l 1,0,-1
758 1750 m 1,6,-1
 768 1750 l 1,7,-1
 604 980 l 1,8,-1
 420 849 l 1,9,-1
 410 849 l 1,10,-1
 574 1619 l 1,11,-1
 758 1750 l 1,6,-1
EndSplineSet
Validated: 1
EndChar

StartChar: section
Encoding: 167 167 105
Width: 1051
GlyphClass: 2
Flags: W
HStem: -40 150<451.485 591.781> 392 169<475.324 747.921> 950 169<624.079 896.676> 1401 150<780.219 920.515>
VStem: 274 175<591.689 776.498> 425 175<1150.16 1280.35> 772 175<230.651 360.837> 923 175<734.502 919.311>
LayerCount: 2
Fore
SplineSet
496 -40 m 0,0,1
 461 -40 461 -40 430 -30 c 0,2,3
 367 -8 367 -8 321 48 c 0,4,5
 273 108 273 108 260 180 c 1,6,-1
 414 290 l 1,7,-1
 424 290 l 1,8,9
 419 266 419 266 419 245 c 0,10,11
 419 192 419 192 451 154 c 0,12,13
 489 110 489 110 562 110 c 0,14,15
 621 110 621 110 676 141 c 0,16,17
 753 185 753 185 768 254 c 0,18,19
 772 272 772 272 772 287 c 0,20,21
 772 326 772 326 749 353 c 0,22,23
 715 392 715 392 613 392 c 0,24,25
 430 392 430 392 341 483 c 0,26,27
 274 553 274 553 274 650 c 0,28,29
 274 671 274 671 276 687 c 0,30,31
 281 728 281 728 304 759 c 0,32,33
 326 789 326 789 375 824 c 2,34,-1
 481 900 l 1,35,-1
 556 874 l 1,36,37
 468 800 468 800 453 720 c 0,38,39
 449 699 449 699 449 680 c 0,40,41
 449 636 449 636 474 607 c 0,42,43
 515 561 515 561 658 561 c 0,44,45
 785 561 785 561 871 494 c 0,46,47
 947 435 947 435 947 341 c 0,48,49
 947 329 947 329 946 318 c 0,50,51
 942 274 942 274 913 242 c 0,52,53
 889 215 889 215 854 190 c 2,54,-1
 582 -4 l 2,55,56
 532 -40 532 -40 496 -40 c 0,0,1
876 1551 m 0,57,58
 911 1551 911 1551 942 1541 c 0,59,60
 1005 1519 1005 1519 1051 1463 c 0,61,62
 1099 1403 1099 1403 1112 1331 c 1,63,-1
 958 1221 l 1,64,-1
 948 1221 l 1,65,66
 953 1245 953 1245 953 1266 c 0,67,68
 953 1319 953 1319 921 1357 c 0,69,70
 883 1401 883 1401 810 1401 c 0,71,72
 751 1401 751 1401 696 1370 c 0,73,74
 619 1326 619 1326 604 1257 c 0,75,76
 600 1239 600 1239 600 1224 c 0,77,78
 600 1185 600 1185 623 1158 c 0,79,80
 657 1119 657 1119 759 1119 c 0,81,82
 942 1119 942 1119 1031 1028 c 0,83,84
 1098 958 1098 958 1098 861 c 0,85,86
 1098 840 1098 840 1096 824 c 0,87,88
 1091 783 1091 783 1068 752 c 0,89,90
 1046 722 1046 722 997 687 c 2,91,-1
 891 611 l 1,92,-1
 816 637 l 1,93,94
 904 711 904 711 919 791 c 0,95,96
 923 812 923 812 923 831 c 0,97,98
 923 875 923 875 898 904 c 0,99,100
 857 950 857 950 714 950 c 0,101,102
 587 950 587 950 501 1017 c 0,103,104
 425 1076 425 1076 425 1170 c 0,105,106
 425 1182 425 1182 426 1193 c 0,107,108
 430 1237 430 1237 459 1269 c 0,109,110
 483 1296 483 1296 518 1321 c 2,111,-1
 790 1515 l 2,112,113
 840 1551 840 1551 876 1551 c 0,57,58
EndSplineSet
Validated: 1
EndChar

StartChar: dieresis
Encoding: 168 168 106
Width: 580
GlyphClass: 2
Flags: W
HStem: 1274 226<392.156 481.391 688.156 777.391>
VStem: 322 229<1337.09 1436.25> 618 229<1337.09 1436.25>
LayerCount: 2
Fore
SplineSet
768 1500 m 0,0,1
 780 1500 780 1500 793 1495 c 0,2,3
 821 1483 821 1483 834 1458 c 0,4,5
 847 1434 847 1434 847 1410 c 0,6,7
 847 1400 847 1400 845 1389 c 0,8,9
 839 1363 839 1363 815 1346 c 2,10,-1
 732 1286 l 2,11,12
 713 1274 713 1274 698 1274 c 0,13,14
 686 1274 686 1274 673 1279 c 0,15,16
 646 1290 646 1290 632 1316 c 0,17,18
 618 1341 618 1341 618 1366 c 0,19,20
 618 1375 618 1375 620 1385 c 0,21,22
 626 1411 626 1411 651 1428 c 2,23,-1
 733 1488 l 2,24,25
 750 1500 750 1500 768 1500 c 0,0,1
472 1500 m 0,26,27
 484 1500 484 1500 497 1495 c 0,28,29
 525 1483 525 1483 538 1458 c 0,30,31
 551 1434 551 1434 551 1410 c 0,32,33
 551 1400 551 1400 549 1389 c 0,34,35
 543 1363 543 1363 519 1346 c 2,36,-1
 436 1286 l 2,37,38
 417 1274 417 1274 402 1274 c 0,39,40
 390 1274 390 1274 377 1279 c 0,41,42
 350 1290 350 1290 336 1316 c 0,43,44
 322 1341 322 1341 322 1366 c 0,45,46
 322 1375 322 1375 324 1385 c 0,47,48
 330 1411 330 1411 355 1428 c 2,49,-1
 437 1488 l 2,50,51
 454 1500 454 1500 472 1500 c 0,26,27
EndSplineSet
Validated: 1
EndChar

StartChar: copyright
Encoding: 169 169 107
Width: 1378
GlyphClass: 2
Flags: W
HStem: 386 77<604.878 979.312> 546 132<736.723 867.709> 1230 132<903.756 1029.7> 1453 77<805.688 1180.37>
VStem: 323 82<659.426 1055.31> 579 142<705.32 1005.8> 1380 82<860.688 1256.57>
DStem2: 492.475 386 632.263 386 0.207912 0.978148<434.524 816.706> 1139 869 838 569 0.813013 0.582245<-369.306 -37.7978>
LayerCount: 2
Fore
SplineSet
998 1530 m 0,0,1
 1240 1530 1240 1530 1367 1368 c 0,2,3
 1462 1247 1462 1247 1462 1097 c 0,4,5
 1462 1019 1462 1019 1453 964 c 0,6,7
 1413 718 1413 718 1214 553 c 0,8,9
 1012 386 1012 386 787 386 c 0,10,11
 545 386 545 386 418 548 c 0,12,13
 323 669 323 669 323 819 c 0,14,15
 323 897 323 897 332 952 c 0,16,17
 372 1199 372 1199 571 1363 c 0,18,19
 773 1530 773 1530 998 1530 c 0,0,1
997 1453 m 0,20,21
 807 1453 807 1453 635 1312 c 0,22,23
 457 1166 457 1166 416 953 c 0,24,25
 405 896 405 896 405 849 c 0,26,27
 405 701 405 701 481 602 c 0,28,29
 588 463 588 463 788 463 c 0,30,31
 978 463 978 463 1150 604 c 0,32,33
 1328 750 1328 750 1369 963 c 0,34,35
 1380 1020 1380 1020 1380 1067 c 0,36,37
 1380 1213 1380 1213 1304 1314 c 0,38,39
 1198 1453 1198 1453 997 1453 c 0,20,21
991 1362 m 0,40,41
 1008 1362 1008 1362 1028 1355 c 0,42,43
 1103 1330 1103 1330 1146 1276 c 0,44,45
 1188 1225 1188 1225 1192 1162 c 1,46,-1
 1051 1061 l 1,47,-1
 1041 1061 l 1,48,-1
 1045 1081 l 2,49,50
 1049 1102 1049 1102 1049 1121 c 0,51,52
 1049 1161 1049 1161 1030 1188 c 0,53,54
 1000 1230 1000 1230 947 1230 c 0,55,56
 892 1230 892 1230 842 1188 c 0,57,58
 795 1150 795 1150 780 1081 c 2,59,-1
 726 827 l 2,60,61
 721 802 721 802 721 781 c 0,62,63
 721 744 721 744 737 718 c 0,64,65
 763 678 763 678 820 678 c 0,66,67
 869 678 869 678 931 722 c 2,68,-1
 1139 869 l 1,69,-1
 1130 826 l 2,70,71
 1118 769 1118 769 1067 733 c 2,72,-1
 838 569 l 2,73,74
 806 546 806 546 784 546 c 0,75,76
 682 546 682 546 622 632 c 0,77,78
 579 693 579 693 579 766 c 0,79,80
 579 795 579 795 586 826 c 2,81,-1
 640 1082 l 2,82,83
 652 1139 652 1139 704 1176 c 2,84,-1
 933 1339 l 2,85,86
 965 1362 965 1362 991 1362 c 0,40,41
EndSplineSet
Validated: 1
EndChar

StartChar: ordfeminine
Encoding: 170 170 108
Width: 636
GlyphClass: 2
Flags: W
HStem: 891 115<332 707> 1040 121<494.709 610.96> 1348 125<563.926 670.25> 1528 122<598.609 705.51>
VStem: 357 132<1167.35 1311.79> 715 133<1446.68 1501.46>
LayerCount: 2
Fore
SplineSet
332 1006 m 1,0,-1
 820 1006 l 1,1,-1
 818 996 l 1,2,-1
 707 891 l 1,3,-1
 219 891 l 1,4,-1
 222 901 l 1,5,-1
 332 1006 l 1,0,-1
697 1650 m 0,6,7
 765 1650 765 1650 811 1583 c 0,8,9
 848 1529 848 1529 848 1467 c 0,10,11
 848 1444 848 1444 843 1420 c 2,12,-1
 781 1130 l 1,13,-1
 640 1029 l 1,14,-1
 630 1029 l 1,15,-1
 647 1110 l 1,16,-1
 579 1062 l 2,17,18
 548 1040 548 1040 516 1040 c 0,19,20
 449 1040 449 1040 394 1109 c 0,21,22
 357 1156 357 1156 357 1215 c 0,23,24
 357 1231 357 1231 360 1249 c 0,25,26
 366 1288 366 1288 422 1328 c 2,27,-1
 591 1448 l 2,28,29
 626 1473 626 1473 658 1473 c 0,30,31
 687 1473 687 1473 715 1446 c 1,32,33
 714 1485 714 1485 702 1502 c 0,34,35
 685 1528 685 1528 643 1528 c 0,36,37
 599 1528 599 1528 553 1487 c 1,38,-1
 515 1546 l 1,39,-1
 629 1627 l 2,40,41
 661 1650 661 1650 697 1650 c 0,6,7
666 1321 m 0,42,43
 646 1348 646 1348 607 1348 c 0,44,45
 564 1348 564 1348 532 1321 c 128,-1,46
 500 1294 500 1294 492 1254 c 0,47,48
 490 1243 490 1243 489 1233 c 0,49,50
 489 1207 489 1207 505 1188 c 0,51,52
 526 1161 526 1161 564 1161 c 128,-1,53
 602 1161 602 1161 636 1188 c 0,54,55
 670 1214 670 1214 678 1254 c 0,56,57
 681 1268 681 1268 680 1277 c 0,58,59
 680 1302 680 1302 666 1321 c 0,42,43
EndSplineSet
Validated: 1
EndChar

StartChar: guillemotleft
Encoding: 171 171 109
Width: 1113
GlyphClass: 2
Flags: W
DStem2: 442 779 290 753 0.355909 -0.934521<0 395.6> 290 753 442 779 0.648189 0.761479<118.323 674.425> 827 779 675 753 0.355909 -0.934521<0 395.6> 675 753 827 779 0.648189 0.761479<118.323 674.425>
LayerCount: 2
Fore
SplineSet
1127 1284 m 1,0,-1
 1137 1284 l 1,1,-1
 1188 1202 l 1,2,-1
 827 779 l 1,3,-1
 967 409 l 1,4,-1
 856 304 l 1,5,-1
 846 304 l 1,6,-1
 675 753 l 1,7,-1
 1127 1284 l 1,0,-1
742 1284 m 1,8,-1
 752 1284 l 1,9,-1
 803 1202 l 1,10,-1
 442 779 l 1,11,-1
 582 409 l 1,12,-1
 471 304 l 1,13,-1
 461 304 l 1,14,-1
 290 753 l 1,15,-1
 742 1284 l 1,8,-1
EndSplineSet
Validated: 1
EndChar

StartChar: logicalnot
Encoding: 172 172 110
Width: 1174
GlyphClass: 2
Flags: W
HStem: 679 151<425 956>
VStem: 664 115<402 517>
DStem2: 664 402 779 402 0.724216 0.689573<83.2849 402.483>
LayerCount: 2
Fore
SplineSet
425 830 m 1,0,-1
 1220 830 l 1,1,-1
 1218 820 l 1,2,-1
 779 402 l 1,3,-1
 664 402 l 1,4,-1
 956 679 l 1,5,-1
 274 679 l 1,6,-1
 276 689 l 1,7,-1
 425 830 l 1,0,-1
EndSplineSet
Validated: 1
EndChar

StartChar: uni00AD
Encoding: 173 173 111
Width: 1174
GlyphClass: 2
Flags: W
HStem: 679 151<425 1070>
LayerCount: 2
Fore
SplineSet
274 679 m 1,0,-1
 276 689 l 1,1,-1
 425 830 l 1,2,-1
 1220 830 l 1,3,-1
 1218 820 l 1,4,-1
 1070 679 l 1,5,-1
 274 679 l 1,0,-1
EndSplineSet
Validated: 1
EndChar

StartChar: registered
Encoding: 174 174 112
Width: 1378
GlyphClass: 2
Flags: W
HStem: 386 77<604.878 979.312> 1453 77<805.688 1180.37>
VStem: 323 82<659.426 1055.31> 1051 146<955.883 1192.91> 1380 82<860.688 1256.57>
DStem2: 521.754 386 661.586 386 0.207912 0.978148<290.792 360.039 429.849 891.459> 928 985 808 906 0.437571 -0.899184<18.527 88.1008 193.917 415.933>
LayerCount: 2
Fore
SplineSet
998 1530 m 0,0,1
 1240 1530 1240 1530 1367 1368 c 0,2,3
 1462 1247 1462 1247 1462 1097 c 0,4,5
 1462 1019 1462 1019 1453 964 c 0,6,7
 1413 718 1413 718 1214 553 c 0,8,9
 1012 386 1012 386 787 386 c 0,10,11
 545 386 545 386 418 548 c 0,12,13
 323 669 323 669 323 819 c 0,14,15
 323 897 323 897 332 952 c 0,16,17
 372 1199 372 1199 571 1363 c 0,18,19
 773 1530 773 1530 998 1530 c 0,0,1
997 1453 m 0,20,21
 807 1453 807 1453 635 1312 c 0,22,23
 457 1166 457 1166 416 953 c 0,24,25
 405 896 405 896 405 849 c 0,26,27
 405 701 405 701 481 602 c 0,28,29
 588 463 588 463 788 463 c 0,30,31
 978 463 978 463 1150 604 c 0,32,33
 1328 750 1328 750 1369 963 c 0,34,35
 1380 1020 1380 1020 1380 1067 c 0,36,37
 1380 1213 1380 1213 1304 1314 c 0,38,39
 1198 1453 1198 1453 997 1453 c 0,20,21
808 906 m 1,40,-1
 918 985 l 1,41,-1
 928 985 l 1,42,-1
 967 906 l 1,43,44
 1029 968 1029 968 1046 1051 c 0,45,46
 1051 1073 1051 1073 1051 1093 c 0,47,48
 1051 1149 1051 1149 1013 1187 c 0,49,50
 961 1239 961 1239 844 1244 c 1,51,-1
 745 778 l 1,52,53
 795 795 795 795 848 824 c 1,54,-1
 808 906 l 1,40,-1
553 533 m 1,55,-1
 707 1258 l 1,56,-1
 861 1367 l 1,57,-1
 871 1367 l 1,58,-1
 855 1292 l 1,59,-1
 948 1358 l 1,60,61
 1074 1348 1074 1348 1141 1266 c 0,62,63
 1197 1197 1197 1197 1197 1110 c 0,64,65
 1196 1080 1196 1080 1190 1048 c 0,66,67
 1164 922 1164 922 1010 816 c 1,68,-1
 1110 611 l 1,69,-1
 1000 533 l 1,70,-1
 990 533 l 1,71,-1
 886 748 l 1,72,73
 806 709 806 709 726 685 c 1,74,-1
 716 642 l 1,75,-1
 563 533 l 1,76,-1
 553 533 l 1,55,-1
EndSplineSet
Validated: 1
EndChar

StartChar: macron
Encoding: 175 175 113
Width: 635
GlyphClass: 2
Flags: W
HStem: 1291 115<417 791>
VStem: 304 600
LayerCount: 2
Fore
SplineSet
417 1406 m 1,0,-1
 904 1406 l 1,1,-1
 902 1396 l 1,2,-1
 791 1291 l 1,3,-1
 304 1291 l 1,4,-1
 307 1301 l 1,5,-1
 417 1406 l 1,0,-1
EndSplineSet
Validated: 1
EndChar

StartChar: degree
Encoding: 176 176 114
Width: 604
GlyphClass: 2
Flags: W
HStem: 988 133<446.067 573.328> 1416 134<569.998 696.402>
VStem: 292 135<1164.88 1337.13> 718 133<1201.2 1373.09>
LayerCount: 2
Fore
SplineSet
654 1550 m 0,0,1
 672 1550 672 1550 688 1545 c 0,2,3
 767 1520 767 1520 814 1445 c 0,4,5
 851 1386 851 1386 851 1322 c 0,6,7
 851 1296 851 1296 845 1269 c 0,8,9
 838 1238 838 1238 824 1220 c 0,10,11
 810 1201 810 1201 785 1183 c 2,12,-1
 539 1008 l 2,13,14
 511 988 511 988 489 988 c 0,15,16
 471 988 471 988 455 993 c 0,17,18
 376 1018 376 1018 329 1093 c 0,19,20
 292 1152 292 1152 292 1216 c 0,21,22
 292 1242 292 1242 298 1269 c 0,23,24
 305 1300 305 1300 319 1318 c 0,25,26
 333 1337 333 1337 358 1355 c 2,27,-1
 604 1530 l 2,28,29
 632 1550 632 1550 654 1550 c 0,0,1
603 1416 m 128,-1,31
 540 1416 540 1416 492 1372 c 0,32,33
 444 1326 444 1326 431 1266 c 0,34,35
 427 1247 427 1247 427 1230 c 0,36,37
 427 1192 427 1192 446 1164 c 0,38,39
 474 1121 474 1121 539.5 1121 c 128,-1,40
 605 1121 605 1121 653 1165.5 c 128,-1,41
 701 1210 701 1210 714 1271 c 0,42,43
 718 1289 718 1289 718 1306 c 0,44,45
 718 1345 718 1345 696 1374 c 0,46,30
 666 1416 666 1416 603 1416 c 128,-1,31
EndSplineSet
Validated: 1
EndChar

StartChar: plusminus
Encoding: 177 177 115
Width: 1174
GlyphClass: 2
Flags: W
HStem: 243 151<333 978> 850 151<462 693 875 1107>
DStem2: 563.962 243 713.881 243 0.207912 0.978148<382.855 620.564 806.104 1044.79>
LayerCount: 2
Fore
SplineSet
182 243 m 1,0,-1
 184 253 l 1,1,-1
 333 394 l 1,2,-1
 1128 394 l 1,3,-1
 1126 384 l 1,4,-1
 978 243 l 1,5,-1
 182 243 l 1,0,-1
946 1383 m 1,6,-1
 956 1383 l 1,7,-1
 875 1001 l 1,8,-1
 1257 1001 l 1,9,-1
 1255 991 l 1,10,-1
 1107 850 l 1,11,-1
 843 850 l 1,12,-1
 787 587 l 1,13,-1
 622 469 l 1,14,-1
 612 469 l 1,15,-1
 693 850 l 1,16,-1
 311 850 l 1,17,-1
 313 860 l 1,18,-1
 462 1001 l 1,19,-1
 725 1001 l 1,20,-1
 781 1265 l 1,21,-1
 946 1383 l 1,6,-1
EndSplineSet
Validated: 1
EndChar

StartChar: uni00B2
Encoding: 178 178 116
Width: 610
GlyphClass: 2
Flags: W
HStem: 844 106<409 679> 1518 132<596.023 717.089>
VStem: 332 144<1270.97 1446.61> 736 142<1291.5 1476.12>
LayerCount: 2
Fore
SplineSet
679 1650 m 0,0,1
 779 1650 779 1650 841 1554 c 0,2,3
 878 1496 878 1496 878 1430 c 0,4,5
 878 1403 878 1403 872 1375 c 0,6,7
 834 1196 834 1196 647 1113 c 0,8,9
 533 1063 533 1063 409 950 c 1,10,-1
 782 950 l 1,11,-1
 780 940 l 1,12,-1
 679 844 l 1,13,-1
 209 844 l 1,14,-1
 212 854 l 1,15,16
 392 1105 392 1105 609 1225 c 0,17,18
 712 1282 712 1282 732 1375 c 0,19,20
 736 1394 736 1394 736 1412 c 0,21,22
 736 1449 736 1449 717 1477 c 0,23,24
 689 1518 689 1518 640.5 1518 c 128,-1,25
 592 1518 592 1518 543 1482 c 128,-1,26
 494 1446 494 1446 480 1382 c 0,27,28
 476 1360 476 1360 476 1340 c 0,29,30
 476 1301 476 1301 494 1270 c 1,31,-1
 384 1192 l 1,32,-1
 374 1192 l 1,33,34
 332 1254 332 1254 332 1323 c 0,35,36
 332 1348 332 1348 338 1375 c 0,37,38
 350 1432 350 1432 402 1469 c 2,39,-1
 625 1627 l 2,40,41
 657 1650 657 1650 679 1650 c 0,0,1
EndSplineSet
Validated: 1
EndChar

StartChar: uni00B3
Encoding: 179 179 117
Width: 585
GlyphClass: 2
Flags: W
HStem: 834 132<411.629 533.475> 1109 20G<362.043 400> 1534 106<503 664>
VStem: 654 143<1037.39 1237.7>
LayerCount: 2
Fore
SplineSet
503 1640 m 1,0,-1
 879 1640 l 1,1,-1
 876 1630 l 1,2,-1
 662 1354 l 1,3,4
 731 1330 731 1330 767 1272 c 0,5,6
 797 1224 797 1224 797 1165 c 0,7,8
 797 1138 797 1138 791 1109 c 0,9,10
 779 1052 779 1052 727 1015 c 2,11,-1
 504 857 l 2,12,13
 472 834 472 834 450 834 c 0,14,15
 348 834 348 834 290 935 c 0,16,17
 264 980 264 980 260 1036 c 1,18,-1
 390 1129 l 1,19,-1
 400 1129 l 1,20,-1
 396 1109 l 2,21,22
 392 1089 392 1089 392 1072 c 0,23,24
 392 1034 392 1034 412 1006 c 0,25,26
 440 966 440 966 488 966 c 0,27,28
 550 966 550 966 592 1008 c 0,29,30
 638 1054 638 1054 650 1111 c 0,31,32
 654 1130 654 1130 654 1147 c 0,33,34
 654 1184 654 1184 634 1212 c 0,35,36
 606 1253 606 1253 562 1253 c 128,-1,37
 518 1253 518 1253 479 1231 c 1,38,-1
 442 1255 l 1,39,-1
 664 1534 l 1,40,-1
 399 1534 l 1,41,-1
 401 1544 l 1,42,-1
 503 1640 l 1,0,-1
EndSplineSet
Validated: 1
EndChar

StartChar: acute
Encoding: 180 180 118
Width: 366
GlyphClass: 2
Flags: W
HStem: 1211 339
VStem: 302 341
LayerCount: 2
Fore
SplineSet
526 1550 m 1,0,1
 536 1550 l 1,2,-1
 643 1442 l 1,3,4
 482 1396 482 1396 380 1211 c 1,5,-1
 370 1211 l 1,6,-1
 302 1281 l 1,7,8
 361 1455 361 1455 526 1550 c 1,0,1
EndSplineSet
Validated: 1
EndChar

StartChar: uni00B5
Encoding: 181 181 119
Width: 1170
GlyphClass: 2
Flags: W
HStem: -450 21G<84 122.112> -40 21G<801 839.112> -20 160<492.687 644.237> 1120 20G<564.028 602 1194.03 1232>
DStem2: 84 -450 264.604 -450 0.207912 0.978148<183.744 573.26 828.439 1479.42> 713.853 -450 894.456 -450 0.207912 0.978148<602.904 630.784 684.071 1479.45>
LayerCount: 2
Fore
SplineSet
811 -40 m 1,0,-1
 801 -40 l 1,1,-1
 845 167 l 1,2,-1
 633 16 l 2,3,4
 582 -20 582 -20 549 -20 c 0,5,6
 512 -20 512 -20 482 -10 c 0,7,8
 415 12 415 12 376 74 c 1,9,-1
 295 -307 l 1,10,-1
 94 -450 l 1,11,-1
 84 -450 l 1,12,-1
 392 997 l 1,13,-1
 592 1140 l 1,14,-1
 602 1140 l 1,15,-1
 445 400 l 2,16,17
 436 357 436 357 436 321 c 0,18,19
 436 251 436 251 471 207 c 0,20,21
 526 140 526 140 616 140 c 0,22,23
 712 140 712 140 789 206 c 0,24,25
 868 273 868 273 895 400 c 2,26,-1
 1022 997 l 1,27,-1
 1222 1140 l 1,28,-1
 1232 1140 l 1,29,-1
 1012 103 l 1,30,-1
 811 -40 l 1,0,-1
EndSplineSet
Validated: 1
EndChar

StartChar: paragraph
Encoding: 182 182 120
Width: 1120
GlyphClass: 2
Flags: W
HStem: -40 21G<731 769.4> 1510 20G<876 912.5>
DStem2: 731 -40 801.372 -40 0.207912 0.978148<65.7482 797.468> 865.894 -40 931.204 -40 0.207912 0.978148<176.131 1205.92>
LayerCount: 2
Fore
SplineSet
731 -40 m 1,0,-1
 897 740 l 1,1,-1
 709 606 l 2,2,3
 658 570 658 570 624 570 c 0,4,5
 585 570 585 570 548 583 c 0,6,7
 452 617 452 617 397 693 c 0,8,9
 330 786 330 786 330 899 c 0,10,11
 330 943 330 943 340 990 c 2,12,-1
 363 1097 l 2,13,14
 374 1148 374 1148 401 1188 c 0,15,16
 422 1219 422 1219 471 1254 c 2,17,-1
 808 1494 l 2,18,19
 859 1530 859 1530 893 1530 c 0,20,21
 932 1530 932 1530 969 1517 c 0,22,23
 1065 1483 1065 1483 1120 1407 c 0,24,25
 1187 1314 1187 1314 1187 1201 c 0,26,27
 1187 1157 1187 1157 1177 1110 c 2,28,-1
 965 119 l 1,29,-1
 888 64 l 1,30,-1
 1116 1140 l 1,31,-1
 1041 1086 l 1,32,-1
 812 10 l 1,33,-1
 741 -40 l 1,34,-1
 731 -40 l 1,0,-1
EndSplineSet
Validated: 1
EndChar

StartChar: periodcentered
Encoding: 183 183 121
Width: 308
GlyphClass: 2
Flags: W
HStem: 627 252<271.875 356.125>
VStem: 187 254<701 805>
LayerCount: 2
Fore
SplineSet
353 879 m 0,0,1
 366 879 366 879 381 873 c 0,2,3
 411 860 411 860 426 832 c 0,4,5
 441 805 441 805 441 778 c 0,6,7
 441 766 441 766 438 755 c 0,8,9
 432 726 432 726 405 707 c 2,10,-1
 313 641 l 2,11,12
 293 627 293 627 275 627 c 0,13,14
 262 627 262 627 248 633 c 0,15,16
 219 645 219 645 202 674 c 0,17,18
 187 701 187 701 187 728 c 0,19,20
 187 740 187 740 190 751 c 0,21,22
 196 780 196 780 223 799 c 2,23,-1
 315 865 l 2,24,25
 335 879 335 879 353 879 c 0,0,1
EndSplineSet
Validated: 1
EndChar

StartChar: cedilla
Encoding: 184 184 122
Width: 377
GlyphClass: 2
Flags: W
HStem: -410 410
VStem: 173 125<-273.567 -137.496>
LayerCount: 2
Fore
SplineSet
129 0 m 1,0,-1
 210 0 l 1,1,-1
 195 -72 l 1,2,3
 298 -117 298 -117 298 -209 c 0,4,5
 298 -223 298 -223 296 -238 c 0,6,7
 267 -410 267 -410 -57 -410 c 1,8,-1
 -55 -400 l 1,9,-1
 55 -295 l 1,10,11
 164 -279 164 -279 172 -222 c 0,12,13
 173 -215 173 -215 173 -206 c 0,14,15
 173 -158 173 -158 103 -120 c 1,16,-1
 129 0 l 1,0,-1
EndSplineSet
Validated: 1
EndChar

StartChar: uni00B9
Encoding: 185 185 123
Width: 370
GlyphClass: 2
Flags: W
VStem: 312 331
DStem2: 328 826 465.256 826 0.207912 0.978148<137.928 618.392>
LayerCount: 2
Fore
SplineSet
633 1660 m 1,0,-1
 643 1660 l 1,1,-1
 488 933 l 1,2,-1
 338 826 l 1,3,-1
 328 826 l 1,4,-1
 456 1431 l 1,5,-1
 312 1325 l 1,6,-1
 338 1450 l 1,7,-1
 633 1660 l 1,0,-1
EndSplineSet
Validated: 1
EndChar

StartChar: ordmasculine
Encoding: 186 186 124
Width: 636
GlyphClass: 2
Flags: W
HStem: 891 115<332 707> 1039 122<502.265 608.742> 1528 122<599.156 705.862>
VStem: 359 132<1188.57 1326.34> 717 132<1364.21 1499.43>
DStem2: 284.654 891 414.441 891 0.207912 0.978148<380.853 638.986> 600.441 891 730.166 891 0.207912 0.978148<315.122 573.463>
LayerCount: 2
Fore
SplineSet
332 1006 m 1,0,-1
 820 1006 l 1,1,-1
 818 996 l 1,2,-1
 707 891 l 1,3,-1
 219 891 l 1,4,-1
 222 901 l 1,5,-1
 332 1006 l 1,0,-1
685 1650 m 0,6,7
 761 1650 761 1650 813 1582 c 0,8,9
 849 1535 849 1535 849 1473 c 0,10,11
 849 1448 849 1448 843 1420 c 2,12,-1
 812 1276 l 2,13,14
 800 1220 800 1220 747 1182 c 2,15,-1
 579 1062 l 2,16,17
 547 1039 547 1039 523 1039 c 0,18,19
 448 1039 448 1039 395 1108 c 0,20,21
 359 1156 359 1156 359 1217 c 0,22,23
 359 1242 359 1242 365 1269 c 2,24,-1
 395 1413 l 2,25,26
 407 1469 407 1469 460 1507 c 2,27,-1
 629 1627 l 2,28,29
 661 1650 661 1650 685 1650 c 0,6,7
643 1528 m 0,30,31
 605 1528 605 1528 571.5 1500.5 c 128,-1,32
 538 1473 538 1473 527 1419 c 2,33,-1
 495 1270 l 2,34,35
 491 1252 491 1252 491 1236 c 0,36,37
 492 1206 492 1206 506 1188 c 0,38,39
 527 1161 527 1161 566 1161 c 0,40,41
 603 1161 603 1161 636 1188.5 c 128,-1,42
 669 1216 669 1216 681 1270 c 2,43,-1
 713 1419 l 2,44,45
 717 1437 717 1437 717 1453 c 0,46,47
 716 1482 716 1482 702 1500 c 0,48,49
 680 1528 680 1528 643 1528 c 0,30,31
EndSplineSet
Validated: 1
EndChar

StartChar: guillemotright
Encoding: 187 187 125
Width: 1113
GlyphClass: 2
Flags: W
DStem2: 262 386 324 304 0.647357 0.762187<0 556.748> 605 1284 483 1179 0.354089 -0.935212<54.9984 450.953> 647 386 709 304 0.647357 0.762187<0 556.748> 990 1284 868 1179 0.354089 -0.935212<54.9984 450.953>
LayerCount: 2
Fore
SplineSet
605 1284 m 1,0,-1
 775 835 l 1,1,-1
 324 304 l 1,2,-1
 314 304 l 1,3,-1
 262 386 l 1,4,-1
 624 809 l 1,5,-1
 483 1179 l 1,6,-1
 595 1284 l 1,7,-1
 605 1284 l 1,0,-1
990 1284 m 1,8,-1
 1160 835 l 1,9,-1
 709 304 l 1,10,-1
 699 304 l 1,11,-1
 647 386 l 1,12,-1
 1009 809 l 1,13,-1
 868 1179 l 1,14,-1
 980 1284 l 1,15,-1
 990 1284 l 1,8,-1
EndSplineSet
Validated: 1
EndChar

StartChar: onequarter
Encoding: 188 188 126
Width: 1506
GlyphClass: 2
Flags: W
HStem: -40 21G<144.451 188.048 1175 1213.19> 166 106<1094 1219> 1530 20G<742 780 1637.95 1681.87>
DStem2: 93 62 167 -40 0.724919 0.688835<0 2145> 304.307 -40 442.564 -40 0.207912 0.978148<911.025 1391.49>
LayerCount: 2
Fore
SplineSet
770 1550 m 1,0,-1
 780 1550 l 1,1,-1
 626 823 l 1,2,-1
 475 716 l 1,3,-1
 465 716 l 1,4,-1
 594 1321 l 1,5,-1
 449 1215 l 1,6,-1
 476 1340 l 1,7,-1
 770 1550 l 1,0,-1
167 -40 m 1,8,-1
 157 -40 l 1,9,-1
 93 62 l 1,10,-1
 1659 1550 l 1,11,-1
 1669 1550 l 1,12,-1
 1734 1449 l 1,13,-1
 167 -40 l 1,8,-1
1185 -40 m 1,14,-1
 1175 -40 l 1,15,-1
 1219 166 l 1,16,-1
 852 166 l 1,17,-1
 854 176 l 1,18,19
 1166 370 1166 370 1221 624 c 0,20,21
 1224 640 1224 640 1225 651 c 1,22,-1
 1428 796 l 1,23,-1
 1438 796 l 5,24,25
 1366 458 1366 458 1094 272 c 1,26,-1
 1242 272 l 1,27,-1
 1256 338 l 1,28,-1
 1403 443 l 1,29,-1
 1413 443 l 1,30,-1
 1377 272 l 1,31,-1
 1477 272 l 1,32,-1
 1475 262 l 1,33,-1
 1373 166 l 1,34,-1
 1354 166 l 1,35,-1
 1333 65 l 1,36,-1
 1185 -40 l 1,14,-1
EndSplineSet
Validated: 1
EndChar

StartChar: onehalf
Encoding: 189 189 127
Width: 1506
GlyphClass: 2
Flags: W
HStem: -40 21G<144.451 188.048> 0 106<1074 1344> 674 132<1261.02 1382.09> 1530 20G<742 780 1637.95 1681.87>
VStem: 997 144<426.971 602.605> 1401 142<447.5 632.123>
DStem2: 93 62 167 -40 0.724919 0.688835<0 2145> 304.307 -40 442.564 -40 0.207912 0.978148<911.025 1391.49>
LayerCount: 2
Fore
SplineSet
1344 806 m 0,0,1
 1444 806 1444 806 1506 710 c 0,2,3
 1543 652 1543 652 1543 586 c 0,4,5
 1543 559 1543 559 1537 531 c 0,6,7
 1499 352 1499 352 1312 269 c 0,8,9
 1198 219 1198 219 1074 106 c 1,10,-1
 1447 106 l 1,11,-1
 1445 96 l 1,12,-1
 1344 0 l 1,13,-1
 874 0 l 1,14,-1
 877 10 l 1,15,16
 1057 261 1057 261 1274 381 c 0,17,18
 1377 438 1377 438 1397 531 c 0,19,20
 1401 550 1401 550 1401 568 c 0,21,22
 1401 605 1401 605 1382 633 c 0,23,24
 1354 674 1354 674 1305.5 674 c 128,-1,25
 1257 674 1257 674 1208 638 c 128,-1,26
 1159 602 1159 602 1145 538 c 0,27,28
 1141 516 1141 516 1141 496 c 0,29,30
 1141 457 1141 457 1159 426 c 1,31,-1
 1049 348 l 1,32,-1
 1039 348 l 1,33,34
 997 410 997 410 997 479 c 0,35,36
 997 504 997 504 1003 531 c 0,37,38
 1015 588 1015 588 1067 625 c 2,39,-1
 1290 783 l 2,40,41
 1322 806 1322 806 1344 806 c 0,0,1
770 1550 m 1,42,-1
 780 1550 l 1,43,-1
 626 823 l 1,44,-1
 475 716 l 1,45,-1
 465 716 l 1,46,-1
 594 1321 l 1,47,-1
 449 1215 l 1,48,-1
 476 1340 l 1,49,-1
 770 1550 l 1,42,-1
167 -40 m 1,50,-1
 157 -40 l 1,51,-1
 93 62 l 1,52,-1
 1659 1550 l 1,53,-1
 1669 1550 l 1,54,-1
 1734 1449 l 1,55,-1
 167 -40 l 1,50,-1
EndSplineSet
Validated: 1
EndChar

StartChar: threequarters
Encoding: 190 190 128
Width: 1506
GlyphClass: 2
Flags: W
HStem: -40 21G<144.451 188.048 1175 1213.19> 166 106<1094 1219> 730 132<471.629 593.475> 1127 21G<508.167 558.5> 1430 106<563 724>
VStem: 714 143<933.395 1133.7>
DStem2: 93 62 167 -40 0.724919 0.688835<0 2145>
LayerCount: 2
Fore
SplineSet
563 1536 m 1,0,-1
 939 1536 l 1,1,-1
 936 1526 l 1,2,-1
 722 1250 l 1,3,4
 791 1226 791 1226 827 1168 c 0,5,6
 857 1120 857 1120 857 1061 c 0,7,8
 857 1034 857 1034 851 1005 c 0,9,10
 839 948 839 948 787 911 c 2,11,-1
 564 753 l 2,12,13
 532 730 532 730 510 730 c 0,14,15
 408 730 408 730 350 831 c 0,16,17
 324 876 324 876 320 932 c 1,18,-1
 450 1025 l 1,19,-1
 460 1025 l 1,20,-1
 456 1005 l 2,21,22
 452 985 452 985 452 968 c 0,23,24
 452 930 452 930 472 902 c 0,25,26
 500 862 500 862 548 862 c 0,27,28
 610 862 610 862 652 904 c 0,29,30
 698 950 698 950 710 1007 c 0,31,32
 714 1026 714 1026 714 1043 c 0,33,34
 714 1080 714 1080 694 1108 c 0,35,36
 666 1149 666 1149 622 1149 c 128,-1,37
 578 1149 578 1149 539 1127 c 1,38,-1
 502 1151 l 1,39,-1
 724 1430 l 1,40,-1
 459 1430 l 1,41,-1
 461 1440 l 1,42,-1
 563 1536 l 1,0,-1
167 -40 m 1,43,-1
 157 -40 l 1,44,-1
 93 62 l 1,45,-1
 1659 1550 l 1,46,-1
 1669 1550 l 1,47,-1
 1734 1449 l 1,48,-1
 167 -40 l 1,43,-1
1185 -40 m 1,49,-1
 1175 -40 l 1,50,-1
 1219 166 l 1,51,-1
 852 166 l 1,52,-1
 854 176 l 1,53,54
 1166 370 1166 370 1221 624 c 0,55,56
 1224 640 1224 640 1225 651 c 1,57,-1
 1428 796 l 1,58,-1
 1438 796 l 1,59,60
 1366 459 1366 459 1094 272 c 1,61,-1
 1242 272 l 1,62,-1
 1256 338 l 1,63,-1
 1403 443 l 1,64,-1
 1413 443 l 1,65,-1
 1377 272 l 1,66,-1
 1477 272 l 1,67,-1
 1475 262 l 1,68,-1
 1373 166 l 1,69,-1
 1354 166 l 1,70,-1
 1333 65 l 1,71,-1
 1185 -40 l 1,49,-1
EndSplineSet
Validated: 1
EndChar

StartChar: questiondown
Encoding: 191 191 129
Width: 1250
GlyphClass: 2
Flags: W
HStem: -430 180<429.161 593.298> 1100 20G<868 883.5>
VStem: 139 198<-152.248 167.642> 712 253<941.812 1046.19> 946 201<-6.48096 322.67>
LayerCount: 2
Fore
SplineSet
500 -430 m 0,0,1
 460 -430 460 -430 428 -420 c 0,2,3
 279 -373 279 -373 204 -248 c 0,4,5
 139 -140 139 -140 139 -6 c 0,6,7
 139 41 139 41 149 89 c 24,8,9
 160 137 160 137 184 169 c 0,10,11
 207 201 207 201 254 235 c 2,12,-1
 452 376 l 2,13,14
 602 483 602 483 669 643 c 1,15,-1
 907 812 l 1,16,-1
 917 812 l 1,17,18
 867 577 867 577 651 434 c 0,19,20
 513 342 513 342 479 309 c 0,21,22
 374 207 374 207 347 79 c 0,23,24
 337 34 337 34 337 -7 c 0,25,26
 337 -90 337 -90 379 -151 c 0,27,28
 446 -250 446 -250 572 -250 c 0,29,30
 699 -250 699 -250 805 -151 c 0,31,32
 908 -56 908 -56 937 79 c 16,33,34
 946 123 946 123 946 162 c 0,35,36
 946 238 946 238 912 296 c 1,37,-1
 1069 407 l 1,38,-1
 1079 407 l 1,39,40
 1147 306 1147 306 1147 174 c 0,41,42
 1147 127 1147 127 1137 79 c 16,43,44
 1125 24 1125 24 1100 -11 c 0,45,46
 1078 -43 1078 -43 1030 -77 c 2,47,-1
 584 -394 l 2,48,49
 533 -430 533 -430 500 -430 c 0,0,1
877 1120 m 0,50,51
 890 1120 890 1120 905 1114 c 0,52,53
 934 1102 934 1102 950 1073 c 0,54,55
 965 1045 965 1045 965 1017 c 0,56,57
 965 1006 965 1006 963 996 c 0,58,59
 957 967 957 967 930 948 c 2,60,-1
 838 882 l 2,61,62
 818 868 818 868 800 868 c 0,63,64
 787 868 787 868 772 874 c 0,65,66
 742 887 742 887 727 915 c 128,-1,67
 712 943 712 943 712 971 c 0,68,69
 712 982 712 982 714 992 c 0,70,71
 720 1021 720 1021 747 1040 c 2,72,-1
 839 1106 l 2,73,74
 859 1120 859 1120 877 1120 c 0,50,51
EndSplineSet
Validated: 1
EndChar

StartChar: emdash
Encoding: 8212 8212 130
Width: 1474
GlyphClass: 2
Flags: W
HStem: 679 151<425 1370>
LayerCount: 2
Fore
SplineSet
274 679 m 1,0,-1
 276 689 l 1,1,-1
 425 830 l 1,2,-1
 1520 830 l 1,3,-1
 1518 820 l 1,4,-1
 1370 679 l 1,5,-1
 274 679 l 1,0,-1
EndSplineSet
Validated: 1
EndChar

StartChar: quoteleft
Encoding: 8216 8216 131
Width: 321
GlyphClass: 2
Flags: W
HStem: 1168 472
VStem: 312 166<1254.78 1443.5>
LayerCount: 2
Fore
SplineSet
600 1640 m 1,0,-1
 610 1640 l 1,1,-1
 646 1603 l 1,2,3
 505 1519 505 1519 481 1409 c 0,4,5
 478 1394 478 1394 478 1380 c 0,6,7
 478 1314 478 1314 554 1293 c 1,8,-1
 378 1168 l 1,9,-1
 368 1168 l 1,10,11
 312 1225 312 1225 312 1302 c 0,12,13
 312 1327 312 1327 318 1353 c 0,14,15
 352 1511 352 1511 600 1640 c 1,0,-1
EndSplineSet
Validated: 1
EndChar

StartChar: quoteright
Encoding: 8217 8217 132
Width: 321
GlyphClass: 2
Flags: W
HStem: 1168 472
VStem: 439 167<1365.26 1506>
LayerCount: 2
Fore
SplineSet
540 1640 m 1,0,-1
 550 1640 l 1,1,2
 606 1583 606 1583 606 1506 c 0,3,4
 606 1481 606 1481 600 1455 c 0,5,6
 566 1297 566 1297 318 1168 c 1,7,-1
 308 1168 l 1,8,-1
 272 1205 l 1,9,10
 413 1289 413 1289 436 1399 c 0,11,12
 439 1415 439 1415 439 1428 c 0,13,14
 439 1493 439 1493 364 1515 c 1,15,-1
 540 1640 l 1,0,-1
EndSplineSet
Validated: 1
EndChar

StartChar: quotesinglbase
Encoding: 8218 8218 133
Width: 321
GlyphClass: 2
Flags: W
HStem: -252 472
VStem: 138 166<-54.7402 86>
LayerCount: 2
Fore
SplineSet
238 220 m 1,0,-1
 248 220 l 1,1,2
 304 163 304 163 304 86 c 0,3,4
 304 61 304 61 298 35 c 0,5,6
 264 -123 264 -123 16 -252 c 1,7,-1
 6 -252 l 1,8,-1
 -30 -215 l 1,9,10
 111 -131 111 -131 135 -21 c 0,11,12
 138 -6 138 -6 138 8 c 0,13,14
 138 74 138 74 62 95 c 1,15,-1
 238 220 l 1,0,-1
EndSplineSet
Validated: 1
EndChar

StartChar: quotereversed
Encoding: 8219 8219 134
Width: 321
GlyphClass: 2
Flags: W
HStem: 1168 472
VStem: 334 141<1278.87 1472.41>
LayerCount: 2
Fore
SplineSet
479 1640 m 1,0,-1
 601 1515 l 1,1,2
 498 1489 498 1489 479 1399 c 0,3,4
 475 1379 475 1379 475 1360 c 0,5,6
 475 1274 475 1274 561 1205 c 1,7,-1
 509 1168 l 1,8,-1
 499 1168 l 1,9,10
 334 1278 334 1278 334 1409 c 0,11,12
 334 1432 334 1432 339 1455 c 0,13,14
 362 1564 362 1564 469 1640 c 1,15,-1
 479 1640 l 1,0,-1
EndSplineSet
Validated: 1
EndChar

StartChar: quotedblleft
Encoding: 8220 8220 135
Width: 610
GlyphClass: 2
Flags: W
HStem: 1168 472
VStem: 312 166<1254.78 1443.5> 601 166<1254.78 1443.5>
LayerCount: 2
Fore
SplineSet
600 1640 m 1,0,-1
 610 1640 l 1,1,-1
 646 1603 l 1,2,3
 505 1519 505 1519 481 1409 c 0,4,5
 478 1394 478 1394 478 1380 c 0,6,7
 478 1314 478 1314 554 1293 c 1,8,-1
 378 1168 l 1,9,-1
 368 1168 l 1,10,11
 312 1225 312 1225 312 1302 c 0,12,13
 312 1327 312 1327 318 1353 c 0,14,15
 352 1511 352 1511 600 1640 c 1,0,-1
889 1640 m 1,16,-1
 899 1640 l 1,17,-1
 935 1603 l 1,18,19
 794 1519 794 1519 770 1409 c 0,20,21
 767 1394 767 1394 767 1380 c 0,22,23
 767 1314 767 1314 843 1293 c 1,24,-1
 667 1168 l 1,25,-1
 657 1168 l 1,26,27
 601 1225 601 1225 601 1302 c 0,28,29
 601 1327 601 1327 607 1353 c 0,30,31
 641 1511 641 1511 889 1640 c 1,16,-1
EndSplineSet
Validated: 1
EndChar

StartChar: quotedblright
Encoding: 8221 8221 136
Width: 610
GlyphClass: 2
Flags: W
HStem: 1168 472
VStem: 439 167<1365.26 1506> 728 167<1365.26 1506>
LayerCount: 2
Fore
SplineSet
829 1640 m 1,0,-1
 839 1640 l 1,1,2
 895 1583 895 1583 895 1506 c 0,3,4
 895 1481 895 1481 889 1455 c 0,5,6
 855 1297 855 1297 607 1168 c 1,7,-1
 597 1168 l 1,8,-1
 561 1205 l 1,9,10
 702 1289 702 1289 725 1399 c 0,11,12
 728 1415 728 1415 728 1428 c 0,13,14
 728 1493 728 1493 653 1515 c 1,15,-1
 829 1640 l 1,0,-1
540 1640 m 1,16,-1
 550 1640 l 1,17,18
 606 1583 606 1583 606 1506 c 0,19,20
 606 1481 606 1481 600 1455 c 0,21,22
 566 1297 566 1297 318 1168 c 1,23,-1
 308 1168 l 1,24,-1
 272 1205 l 1,25,26
 413 1289 413 1289 436 1399 c 0,27,28
 439 1415 439 1415 439 1428 c 0,29,30
 439 1493 439 1493 364 1515 c 1,31,-1
 540 1640 l 1,16,-1
EndSplineSet
Validated: 1
EndChar

StartChar: quotedblbase
Encoding: 8222 8222 137
Width: 610
GlyphClass: 2
Flags: W
HStem: -252 472
VStem: 138 166<-54.7402 86> 427 166<-54.7402 86>
LayerCount: 2
Fore
SplineSet
527 220 m 1,0,-1
 537 220 l 1,1,2
 593 163 593 163 593 86 c 0,3,4
 593 61 593 61 587 35 c 0,5,6
 553 -123 553 -123 305 -252 c 1,7,-1
 295 -252 l 1,8,-1
 259 -215 l 1,9,10
 400 -131 400 -131 424 -21 c 0,11,12
 427 -6 427 -6 427 8 c 0,13,14
 427 74 427 74 351 95 c 1,15,-1
 527 220 l 1,0,-1
238 220 m 1,16,-1
 248 220 l 1,17,18
 304 163 304 163 304 86 c 0,19,20
 304 61 304 61 298 35 c 0,21,22
 264 -123 264 -123 16 -252 c 1,23,-1
 6 -252 l 1,24,-1
 -30 -215 l 1,25,26
 111 -131 111 -131 135 -21 c 0,27,28
 138 -6 138 -6 138 8 c 0,29,30
 138 74 138 74 62 95 c 1,31,-1
 238 220 l 1,16,-1
EndSplineSet
Validated: 1
EndChar

StartChar: dagger
Encoding: 8224 8224 138
Width: 1174
GlyphClass: 2
Flags: W
HStem: -40 21G<478 516.176> 1000 180<523 700 938 1115> 1530 20G<977.95 1016>
DStem2: 478 -40 678.204 -40 0.207912 0.978148<204.177 1063.43 1288.98 1463.14>
LayerCount: 2
Fore
SplineSet
488 -40 m 1,0,-1
 478 -40 l 1,1,-1
 700 1000 l 1,2,-1
 343 1000 l 1,3,-1
 345 1010 l 1,4,-1
 523 1180 l 1,5,-1
 738 1180 l 1,6,-1
 783 1391 l 1,7,-1
 1006 1550 l 1,8,-1
 1016 1550 l 1,9,-1
 938 1180 l 1,10,-1
 1295 1180 l 1,11,-1
 1293 1170 l 1,12,-1
 1115 1000 l 1,13,-1
 900 1000 l 1,14,-1
 712 119 l 1,15,-1
 488 -40 l 1,0,-1
EndSplineSet
Validated: 1
EndChar

StartChar: daggerdbl
Encoding: 8225 8225 139
Width: 1174
GlyphClass: 2
Flags: W
HStem: -40 21G<478 516.176> 330 180<380 557 795 972> 1000 180<523 700 938 1115> 1530 20G<977.95 1016>
DStem2: 478 -40 678.204 -40 0.207912 0.978148<204.177 378.34 603.889 1063.43 1288.98 1463.14>
LayerCount: 2
Fore
SplineSet
478 -40 m 1,0,-1
 557 330 l 1,1,-1
 200 330 l 1,2,-1
 202 340 l 1,3,-1
 380 510 l 1,4,-1
 595 510 l 1,5,-1
 700 1000 l 1,6,-1
 343 1000 l 1,7,-1
 345 1010 l 1,8,-1
 523 1180 l 1,9,-1
 738 1180 l 1,10,-1
 783 1391 l 1,11,-1
 1006 1550 l 1,12,-1
 1016 1550 l 1,13,-1
 938 1180 l 1,14,-1
 1295 1180 l 1,15,-1
 1293 1170 l 1,16,-1
 1115 1000 l 1,17,-1
 900 1000 l 1,18,-1
 795 510 l 1,19,-1
 1152 510 l 1,20,-1
 1150 500 l 1,21,-1
 972 330 l 1,22,-1
 757 330 l 1,23,-1
 712 119 l 1,24,-1
 488 -40 l 1,25,-1
 478 -40 l 1,0,-1
EndSplineSet
Validated: 1
EndChar

StartChar: bullet
Encoding: 8226 8226 140
Width: 913
GlyphClass: 2
Flags: W
HStem: 410 674
VStem: 275 672<675.333 818.667>
LayerCount: 2
Fore
SplineSet
709 1084 m 0,0,1
 730 1084 730 1084 751 1078 c 0,2,3
 844 1051 844 1051 904 962 c 0,4,5
 947 899 947 899 947 821 c 0,6,7
 947 786 947 786 938 747 c 0,8,9
 931 716 931 716 913 689 c 0,10,11
 896 664 896 664 868 644 c 2,12,-1
 572 434 l 2,13,14
 538 410 538 410 513 410 c 0,15,16
 492 410 492 410 471 416 c 0,17,18
 378 442 378 442 318 532 c 0,19,20
 275 595 275 595 275 673 c 0,21,22
 275 707 275 707 284 747 c 0,23,24
 291 778 291 778 309 805 c 0,25,26
 326 830 326 830 354 850 c 2,27,-1
 650 1060 l 2,28,29
 684 1084 684 1084 709 1084 c 0,0,1
EndSplineSet
Validated: 1
EndChar

StartChar: ellipsis
Encoding: 8230 8230 141
Width: 986
GlyphClass: 2
Flags: W
HStem: -20 252<133.875 219.125 472.875 558.125 811.875 897.125>
VStem: 50 253<53.8125 158.188> 389 253<53.8125 158.188> 728 253<53.8125 158.188>
CounterMasks: 1 70
LayerCount: 2
Fore
SplineSet
816 -20 m 0,0,1
 803 -20 803 -20 788 -14 c 0,2,3
 759 -2 759 -2 743 27 c 0,4,5
 728 55 728 55 728 83 c 0,6,7
 728 94 728 94 730 104 c 0,8,9
 736 133 736 133 763 152 c 2,10,-1
 855 218 l 2,11,12
 875 232 875 232 893 232 c 0,13,14
 906 232 906 232 921 226 c 0,15,16
 951 213 951 213 966 185 c 128,-1,17
 981 157 981 157 981 129 c 0,18,19
 981 118 981 118 979 108 c 0,20,21
 973 79 973 79 946 60 c 2,22,-1
 854 -6 l 2,23,24
 834 -20 834 -20 816 -20 c 0,0,1
477 -20 m 0,25,26
 464 -20 464 -20 449 -14 c 0,27,28
 420 -2 420 -2 404 27 c 0,29,30
 389 55 389 55 389 83 c 0,31,32
 389 94 389 94 391 104 c 0,33,34
 397 133 397 133 424 152 c 2,35,-1
 516 218 l 2,36,37
 536 232 536 232 554 232 c 0,38,39
 567 232 567 232 582 226 c 0,40,41
 612 213 612 213 627 185 c 128,-1,42
 642 157 642 157 642 129 c 0,43,44
 642 118 642 118 640 108 c 0,45,46
 634 79 634 79 607 60 c 2,47,-1
 515 -6 l 2,48,49
 495 -20 495 -20 477 -20 c 0,25,26
138 -20 m 0,50,51
 125 -20 125 -20 110 -14 c 0,52,53
 81 -2 81 -2 65 27 c 0,54,55
 50 55 50 55 50 83 c 0,56,57
 50 94 50 94 52 104 c 0,58,59
 58 133 58 133 85 152 c 2,60,-1
 177 218 l 2,61,62
 197 232 197 232 215 232 c 0,63,64
 228 232 228 232 243 226 c 0,65,66
 273 213 273 213 288 185 c 128,-1,67
 303 157 303 157 303 129 c 0,68,69
 303 118 303 118 301 108 c 0,70,71
 295 79 295 79 268 60 c 2,72,-1
 176 -6 l 2,73,74
 156 -20 156 -20 138 -20 c 0,50,51
EndSplineSet
Validated: 1
EndChar

StartChar: perthousand
Encoding: 8240 8240 142
Width: 2254
GlyphClass: 2
Flags: W
HStem: -40 21G<162.451 206.048> -20 158<1012.34 1145.63 1724.34 1857.63> 494 160<1166.36 1299.56 1878.36 2011.56> 856 158<566.341 699.631> 1370 160<720.361 853.562> 1530 20G<1655.95 1699.87>
VStem: 374 162<1067.13 1264.67> 820 162<191.127 388.667> 885 161<1121.33 1317.87> 1331 161<245.333 441.873> 1532 162<191.127 388.667> 2043 161<245.333 441.873>
DStem2: 111 62 185 -40 0.724919 0.688835<0 2145> 1253 192 1413 214 0.832441 0.554113<-140.27 100.91 483.735 708.139>
LayerCount: 2
Fore
SplineSet
1770 -20 m 0,0,1
 1749 -20 1749 -20 1728 -14 c 0,2,3
 1635 12 1635 12 1575 102 c 0,4,5
 1532 165 1532 165 1532 243 c 0,6,7
 1532 277 1532 277 1541 317 c 0,8,9
 1548 348 1548 348 1566 375 c 0,10,11
 1583 400 1583 400 1611 420 c 2,12,-1
 1907 630 l 2,13,14
 1941 654 1941 654 1966 654 c 0,15,16
 1987 654 1987 654 2008 648 c 0,17,18
 2101 621 2101 621 2161 532 c 0,19,20
 2204 469 2204 469 2204 391 c 0,21,22
 2204 356 2204 356 2195 317 c 0,23,24
 2188 286 2188 286 2170 259 c 0,25,26
 2153 234 2153 234 2125 214 c 2,27,-1
 1829 4 l 2,28,29
 1795 -20 1795 -20 1770 -20 c 0,0,1
1905 494 m 128,-1,31
 1830 494 1830 494 1772 440 c 128,-1,32
 1714 386 1714 386 1699 314 c 0,33,34
 1694 290 1694 290 1694 272 c 0,35,36
 1694 226 1694 226 1718 190 c 0,37,38
 1752 138 1752 138 1830 138 c 128,-1,39
 1908 138 1908 138 1965 192 c 128,-1,40
 2022 246 2022 246 2038 319 c 0,41,42
 2043 341 2043 341 2043 361 c 0,43,44
 2043 407 2043 407 2017 443 c 0,45,30
 1980 494 1980 494 1905 494 c 128,-1,31
1058 -20 m 0,46,47
 1037 -20 1037 -20 1016 -14 c 0,48,49
 923 12 923 12 863 102 c 0,50,51
 820 165 820 165 820 243 c 0,52,53
 820 277 820 277 829 317 c 0,54,55
 836 348 836 348 854 375 c 0,56,57
 871 400 871 400 899 420 c 2,58,-1
 1195 630 l 2,59,60
 1229 654 1229 654 1254 654 c 0,61,62
 1275 654 1275 654 1296 648 c 0,63,64
 1389 621 1389 621 1449 532 c 0,65,66
 1492 469 1492 469 1492 391 c 0,67,68
 1492 356 1492 356 1483 317 c 0,69,70
 1476 286 1476 286 1458 259 c 0,71,72
 1441 234 1441 234 1413 214 c 2,73,-1
 1117 4 l 2,74,75
 1083 -20 1083 -20 1058 -20 c 0,46,47
1193 494 m 128,-1,77
 1118 494 1118 494 1060 440 c 128,-1,78
 1002 386 1002 386 987 314 c 0,79,80
 982 290 982 290 982 272 c 0,81,82
 982 226 982 226 1006 190 c 0,83,84
 1040 138 1040 138 1118 138 c 128,-1,85
 1196 138 1196 138 1253 192 c 128,-1,86
 1310 246 1310 246 1326 319 c 0,87,88
 1331 341 1331 341 1331 361 c 0,89,90
 1331 407 1331 407 1305 443 c 0,91,76
 1268 494 1268 494 1193 494 c 128,-1,77
808 1530 m 0,92,93
 829 1530 829 1530 850 1524 c 0,94,95
 943 1498 943 1498 1003 1408 c 0,96,97
 1046 1345 1046 1345 1046 1267 c 0,98,99
 1046 1232 1046 1232 1037 1193 c 0,100,101
 1030 1162 1030 1162 1012 1135 c 0,102,103
 995 1110 995 1110 967 1090 c 2,104,-1
 671 880 l 2,105,106
 637 856 637 856 612 856 c 0,107,108
 591 856 591 856 570 862 c 0,109,110
 477 889 477 889 417 978 c 0,111,112
 374 1041 374 1041 374 1119 c 0,113,114
 374 1153 374 1153 383 1193 c 0,115,116
 390 1224 390 1224 408 1251 c 0,117,118
 425 1276 425 1276 453 1296 c 2,119,-1
 749 1506 l 2,120,121
 783 1530 783 1530 808 1530 c 0,92,93
747 1370 m 128,-1,123
 672 1370 672 1370 614 1316 c 128,-1,124
 556 1262 556 1262 541 1190 c 0,125,126
 536 1166 536 1166 536 1148 c 0,127,128
 536 1102 536 1102 560 1066 c 0,129,130
 594 1014 594 1014 672 1014 c 128,-1,131
 750 1014 750 1014 807 1068 c 128,-1,132
 864 1122 864 1122 880 1195 c 0,133,134
 885 1217 885 1217 885 1237 c 0,135,136
 885 1283 885 1283 859 1319 c 0,137,122
 822 1370 822 1370 747 1370 c 128,-1,123
185 -40 m 1,138,-1
 175 -40 l 1,139,-1
 111 62 l 1,140,-1
 1677 1550 l 1,141,-1
 1687 1550 l 1,142,-1
 1752 1449 l 1,143,-1
 185 -40 l 1,138,-1
EndSplineSet
Validated: 1
EndChar

StartChar: minute
Encoding: 8242 8242 143
Width: 378
GlyphClass: 2
Flags: W
HStem: 1100 450
VStem: 282 369
LayerCount: 2
Fore
SplineSet
517 1550 m 1,0,-1
 527 1550 l 1,1,-1
 651 1424 l 1,2,-1
 377 1100 l 1,3,-1
 367 1100 l 1,4,-1
 282 1187 l 1,5,-1
 517 1550 l 1,0,-1
EndSplineSet
Validated: 1
EndChar

StartChar: second
Encoding: 8243 8243 144
Width: 644
GlyphClass: 2
Flags: W
HStem: 1100 450
VStem: 282 635
LayerCount: 2
Fore
SplineSet
783 1550 m 1,0,-1
 793 1550 l 1,1,-1
 917 1424 l 1,2,-1
 643 1100 l 1,3,-1
 633 1100 l 1,4,-1
 548 1187 l 1,5,-1
 783 1550 l 1,0,-1
517 1550 m 1,6,-1
 527 1550 l 1,7,-1
 651 1424 l 1,8,-1
 377 1100 l 1,9,-1
 367 1100 l 1,10,-1
 282 1187 l 1,11,-1
 517 1550 l 1,6,-1
EndSplineSet
Validated: 1
EndChar

StartChar: guilsinglleft
Encoding: 8249 8249 145
Width: 728
GlyphClass: 2
Flags: W
VStem: 290 513
DStem2: 442 779 290 753 0.355909 -0.934521<0 395.6> 290 753 442 779 0.648189 0.761479<118.323 674.425>
LayerCount: 2
Fore
SplineSet
742 1284 m 1,0,-1
 752 1284 l 1,1,-1
 803 1202 l 1,2,-1
 442 779 l 1,3,-1
 582 409 l 1,4,-1
 471 304 l 1,5,-1
 461 304 l 1,6,-1
 290 753 l 1,7,-1
 742 1284 l 1,0,-1
EndSplineSet
Validated: 1
EndChar

StartChar: guilsinglright
Encoding: 8250 8250 146
Width: 728
GlyphClass: 2
Flags: W
VStem: 262 513
DStem2: 262 386 324 304 0.647357 0.762187<0 556.748> 605 1284 483 1179 0.354089 -0.935212<54.9984 450.953>
LayerCount: 2
Fore
SplineSet
605 1284 m 1,0,-1
 775 835 l 1,1,-1
 324 304 l 1,2,-1
 314 304 l 1,3,-1
 262 386 l 1,4,-1
 624 809 l 1,5,-1
 483 1179 l 1,6,-1
 595 1284 l 1,7,-1
 605 1284 l 1,0,-1
EndSplineSet
Validated: 1
EndChar

StartChar: Euro
Encoding: 8364 8364 147
Width: 1317
GlyphClass: 2
Flags: W
HStem: -20 180<570.641 740.04> 541 100<242 295 516 979> 741 100<285 338 559 1022> 1350 180<950.161 1117.57>
VStem: 276 200<261.668 530.936>
DStem2: 175.471 -20 375.471 -20 0.207912 0.978148<487.276 573.592 717.356 778.162 921.925 1194.82> 957 259 731 16 0.813854 0.58107<-200.335 360.454>
LayerCount: 2
Fore
SplineSet
647 -20 m 0,0,1
 607 -20 607 -20 575 -10 c 0,2,3
 441 32 441 32 351 162 c 0,4,5
 276 270 276 270 276 405 c 0,6,7
 276 454 276 454 286 500 c 2,8,-1
 295 541 l 1,9,-1
 145 541 l 1,10,-1
 147 551 l 1,11,-1
 242 641 l 1,12,-1
 316 641 l 1,13,-1
 338 741 l 1,14,-1
 188 741 l 1,15,-1
 190 751 l 1,16,-1
 285 841 l 1,17,-1
 359 841 l 1,18,-1
 395 1010 l 2,19,20
 407 1064 407 1064 432 1101 c 0,21,22
 453 1132 453 1132 502 1167 c 2,23,-1
 960 1494 l 2,24,25
 1010 1530 1010 1530 1044 1530 c 0,26,27
 1084 1530 1084 1530 1116 1520 c 0,28,29
 1250 1478 1250 1478 1340 1348 c 0,30,31
 1401 1260 1401 1260 1412 1154 c 1,32,-1
 1215 1010 l 1,33,-1
 1205 1010 l 1,34,35
 1215 1056 1215 1056 1215 1097 c 0,36,37
 1215 1185 1215 1185 1170 1251 c 0,38,39
 1103 1350 1103 1350 972 1350 c 0,40,41
 840 1350 840 1350 734 1251 c 0,42,43
 625 1150 625 1150 595 1010 c 2,44,-1
 559 841 l 1,45,-1
 1119 841 l 1,46,-1
 1117 831 l 1,47,-1
 1022 741 l 1,48,-1
 538 741 l 1,49,-1
 516 641 l 1,50,-1
 1076 641 l 1,51,-1
 1074 631 l 1,52,-1
 979 541 l 1,53,-1
 495 541 l 1,54,-1
 486 500 l 2,55,56
 476 454 476 454 476 413 c 0,57,58
 476 326 476 326 521 259 c 0,59,60
 588 160 588 160 706 160 c 0,61,62
 819 160 819 160 957 259 c 2,63,-1
 1293 500 l 1,64,65
 1280 439 1280 439 1259 409 c 0,66,67
 1235 376 1235 376 1189 343 c 2,68,-1
 731 16 l 2,69,70
 681 -20 681 -20 647 -20 c 0,0,1
EndSplineSet
Validated: 1
EndChar

StartChar: afii61248
Encoding: 8453 8453 148
Width: 1542
GlyphClass: 2
Flags: W
HStem: -40 132<1074.36 1199.24> 644 132<1235.34 1361.74> 734 132<495.723 626.709> 1418 132<662.756 788.696>
VStem: 338 142<893.32 1193.8> 911 143<109.833 300.164> 1381 143<316.203 613.145>
DStem2: 111 62 185 -40 0.724919 0.688835<0 2145> 120.965 -40 260.753 -40 0.207912 0.978148<1062.24 1444.42> 858.484 -40 998.272 -40 0.207912 0.978148<280.817 653.131> 898 1057 597 757 0.813013 0.582245<-369.306 -37.7978> 1263.27 -40 1403.07 -40 0.207912 0.978148<210.164 584.405>
LayerCount: 2
Fore
SplineSet
1112 -40 m 0,0,1
 1095 -40 1095 -40 1075 -33 c 0,2,3
 999 -6 999 -6 957 46 c 16,4,5
 911 103 911 103 911 179 c 0,6,7
 911 208 911 208 918 240 c 2,8,-1
 972 496 l 2,9,10
 984 553 984 553 1036 590 c 2,11,-1
 1265 753 l 2,12,13
 1297 776 1297 776 1323 776 c 0,14,15
 1340 776 1340 776 1360 769 c 0,16,17
 1436 742 1436 742 1478 690 c 16,18,19
 1524 633 1524 633 1524 557 c 0,20,21
 1524 528 1524 528 1517 496 c 2,22,-1
 1463 240 l 2,23,24
 1451 183 1451 183 1399 146 c 2,25,-1
 1170 -17 l 2,26,27
 1138 -40 1138 -40 1112 -40 c 0,0,1
750 1550 m 0,28,29
 767 1550 767 1550 787 1543 c 0,30,31
 862 1518 862 1518 905 1464 c 0,32,33
 947 1413 947 1413 951 1350 c 1,34,-1
 810 1249 l 1,35,-1
 800 1249 l 1,36,-1
 804 1269 l 2,37,38
 808 1290 808 1290 808 1309 c 0,39,40
 808 1349 808 1349 789 1376 c 0,41,42
 759 1418 759 1418 706 1418 c 0,43,44
 651 1418 651 1418 601 1376 c 0,45,46
 554 1338 554 1338 539 1269 c 2,47,-1
 485 1015 l 2,48,49
 480 990 480 990 480 969 c 0,50,51
 480 932 480 932 496 906 c 0,52,53
 522 866 522 866 579 866 c 0,54,55
 628 866 628 866 690 910 c 2,56,-1
 898 1057 l 1,57,-1
 889 1014 l 2,58,59
 877 957 877 957 826 921 c 2,60,-1
 597 757 l 2,61,62
 565 734 565 734 543 734 c 0,63,64
 441 734 441 734 381 820 c 0,65,66
 338 881 338 881 338 954 c 0,67,68
 338 983 338 983 345 1014 c 2,69,-1
 399 1270 l 2,70,71
 411 1327 411 1327 463 1364 c 2,72,-1
 692 1527 l 2,73,74
 724 1550 724 1550 750 1550 c 0,28,29
185 -40 m 1,75,-1
 175 -40 l 1,76,-1
 111 62 l 1,77,-1
 1677 1550 l 1,78,-1
 1687 1550 l 1,79,-1
 1752 1449 l 1,80,-1
 185 -40 l 1,75,-1
1156 92 m 0,81,82
 1211 92 1211 92 1261 134 c 0,83,84
 1308 172 1308 172 1323 241 c 2,85,-1
 1377 495 l 2,86,87
 1381 515 1381 515 1381 533 c 0,88,89
 1381 573 1381 573 1362 601 c 0,90,91
 1334 644 1334 644 1280 644 c 0,92,93
 1225 644 1225 644 1174 602 c 0,94,95
 1127 564 1127 564 1112 495 c 2,96,-1
 1058 241 l 2,97,98
 1054 222 1054 222 1054 205 c 0,99,100
 1054 165 1054 165 1075 135 c 0,101,102
 1103 92 1103 92 1156 92 c 0,81,82
EndSplineSet
Validated: 1
EndChar

StartChar: afii61289
Encoding: 8467 8467 149
Width: 918
GlyphClass: 2
Flags: W
HStem: -20 136<473.285 589.793> 0 21G<30 247.222> 1510 20G<937 1008>
LayerCount: 2
Fore
SplineSet
466 466 m 1,0,1
 628 708 628 708 717 860 c 0,2,3
 876 1134 876 1134 924 1359 c 1,4,5
 806 1238 806 1238 710 1067 c 0,6,7
 524 740 524 740 466 466 c 1,0,1
30 0 m 1,8,9
 185 158 185 158 284 282 c 1,10,11
 290 366 290 366 306 443 c 0,12,13
 346 629 346 629 439 848 c 0,14,15
 613 1251 613 1251 802 1434 c 0,16,17
 900 1530 900 1530 974 1530 c 0,18,19
 1042 1530 1042 1530 1066 1479 c 0,20,21
 1079 1453 1079 1453 1079 1410 c 0,22,23
 1079 1371 1079 1371 1068 1318 c 0,24,25
 1048 1226 1048 1226 986 1072 c 0,26,27
 842 722 842 722 460 271 c 1,28,29
 460 116 460 116 516 116 c 0,30,31
 540 116 540 116 573.5 145 c 128,-1,32
 607 174 607 174 644 228 c 1,33,-1
 820 228 l 1,34,35
 716 100 716 100 639 40 c 128,-1,36
 562 -20 562 -20 478 -20 c 0,37,38
 358 -20 358 -20 304 90 c 1,39,-1
 231 0 l 1,40,-1
 30 0 l 1,8,9
EndSplineSet
Validated: 1
EndChar

StartChar: trademark
Encoding: 8482 8482 150
Width: 1834
GlyphClass: 2
Flags: W
HStem: 1408 132<1233.69 1360.88 1639.34 1765.81> 1434 106<538 649 789 922>
VStem: 1786 142<1081.52 1378.27>
DStem2: 495.874 714 635.706 714 0.207912 0.978148<150.731 736.103> 856 714 995.619 714 0.207912 0.978148<141.486 710.925> 1261 714 1400.62 714 0.207912 0.978148<141.486 595.844> 1666 714 1805.62 714 0.207912 0.978148<141.486 595.606>
LayerCount: 2
Fore
SplineSet
1163 1550 m 1,0,-1
 1173 1550 l 1,1,-1
 1149 1434 l 1,2,-1
 1264 1517 l 2,3,4
 1294 1539 1294 1539 1318 1539 c 0,5,6
 1449 1539 1449 1539 1501 1396 c 1,7,-1
 1669 1517 l 2,8,9
 1701 1540 1701 1540 1725 1540 c 0,10,11
 1746 1540 1746 1540 1764 1534 c 0,12,13
 1844 1509 1844 1509 1892 1440 c 0,14,15
 1928 1385 1928 1385 1928 1318 c 0,16,17
 1928 1290 1928 1290 1922 1260 c 2,18,-1
 1829 824 l 1,19,-1
 1676 714 l 1,20,-1
 1666 714 l 1,21,-1
 1782 1259 l 2,22,23
 1786 1279 1786 1279 1786 1298 c 0,24,25
 1786 1337 1786 1337 1766 1366 c 0,26,27
 1738 1408 1738 1408 1684 1408 c 0,28,29
 1623 1408 1623 1408 1576.5 1364 c 128,-1,30
 1530 1320 1530 1320 1517 1259 c 2,31,-1
 1424 824 l 1,32,-1
 1271 714 l 1,33,-1
 1261 714 l 1,34,-1
 1377 1259 l 2,35,36
 1382 1280 1382 1280 1382 1298 c 0,37,38
 1382 1337 1382 1337 1362 1366 c 0,39,40
 1332 1408 1332 1408 1280 1408 c 0,41,42
 1218 1408 1218 1408 1171.5 1364 c 128,-1,43
 1125 1320 1125 1320 1112 1259 c 2,44,-1
 1019 824 l 1,45,-1
 866 714 l 1,46,-1
 856 714 l 1,47,-1
 1010 1439 l 1,48,-1
 1163 1550 l 1,0,-1
508 724 m 1,49,-1
 498 724 l 1,50,-1
 649 1434 l 1,51,-1
 435 1434 l 1,52,-1
 437 1444 l 1,53,-1
 538 1540 l 1,54,-1
 1025 1540 l 1,55,-1
 1023 1530 l 1,56,-1
 922 1434 l 1,57,-1
 789 1434 l 1,58,-1
 661 833 l 1,59,-1
 508 724 l 1,49,-1
EndSplineSet
Validated: 1
EndChar

StartChar: uni2126
Encoding: 8486 8486 151
Width: 1370
GlyphClass: 2
Flags: W
HStem: 0 130<259 540 891 1139> 1350 180<950.161 1117.57>
VStem: 278 198<282.337 561.44> 1215 200<948.56 1247.84>
DStem2: 179.722 0 379.722 0 0.207912 0.978148<466.83 1174.37> 989.722 0 1189.72 0 0.207912 0.978148<411.067 1118.61>
LayerCount: 2
Fore
SplineSet
130 0 m 1,0,-1
 132 10 l 1,1,-1
 259 130 l 1,2,-1
 540 130 l 1,3,4
 410 165 410 165 332 268 c 0,5,6
 278 339 278 339 278 429 c 0,7,8
 278 463 278 463 286 500 c 2,9,-1
 395 1010 l 2,10,11
 406 1064 406 1064 432 1101 c 0,12,13
 455 1133 455 1133 502 1167 c 2,14,-1
 960 1494 l 2,15,16
 1010 1530 1010 1530 1044 1530 c 0,17,18
 1084 1530 1084 1530 1116 1520 c 0,19,20
 1249 1480 1249 1480 1340 1348 c 0,21,22
 1415 1239 1415 1239 1415 1105 c 0,23,24
 1415 1057 1415 1057 1405 1010 c 2,25,-1
 1296 500 l 2,26,27
 1285 449 1285 449 1259 409 c 0,28,29
 1238 378 1238 378 1189 343 c 2,30,-1
 891 130 l 1,31,-1
 1268 130 l 1,32,-1
 1266 120 l 1,33,-1
 1139 0 l 1,34,-1
 782 0 l 1,35,-1
 819 173 l 1,36,37
 887 194 887 194 957 259 c 0,38,39
 1066 360 1066 360 1096 500 c 2,40,-1
 1205 1010 l 2,41,42
 1215 1056 1215 1056 1215 1097 c 0,43,44
 1215 1185 1215 1185 1170 1251 c 0,45,46
 1103 1350 1103 1350 972 1350 c 0,47,48
 840 1350 840 1350 734 1251 c 0,49,50
 625 1150 625 1150 595 1010 c 2,51,-1
 486 500 l 2,52,53
 476 454 476 454 476 413 c 0,54,55
 476 325 476 325 521 259 c 0,56,57
 564 196 564 196 625 174 c 1,58,-1
 588 0 l 1,59,-1
 130 0 l 1,0,-1
EndSplineSet
Validated: 1
EndChar

StartChar: estimated
Encoding: 8494 8494 152
Width: 1290
GlyphClass: 2
Flags: W
HStem: -20 92<454.816 857.985> 525 80<457 1092> 1036 84<659.003 1045.2>
LayerCount: 2
Fore
SplineSet
1127 204 m 1,0,1
 1026 103 1026 103 944 58 c 0,2,3
 801 -20 801 -20 641 -20 c 0,4,5
 385 -20 385 -20 266 139 c 0,6,7
 181 252 181 252 181 407 c 0,8,9
 181 474 181 474 197 550 c 0,10,11
 248 788 248 788 431 952 c 24,12,13
 620 1120 620 1120 884 1120 c 0,14,15
 1133 1120 1133 1120 1249 964 c 272,16,17
 1339 843 1339 843 1339 677 c 0,18,19
 1339 605 1339 605 1322 525 c 1,20,-1
 440 525 l 1,21,-1
 369 192 l 1,22,23
 454 72 454 72 661 72 c 256,24,25
 784 72 784 72 888 132 c 0,26,27
 981 186 981 186 1048 266 c 1,28,-1
 1127 204 l 1,0,1
457 605 m 1,29,-1
 1092 605 l 1,30,-1
 1155 903 l 1,31,32
 1052 1036 1052 1036 866 1036 c 0,33,34
 675 1036 675 1036 522 914 c 1,35,-1
 457 605 l 1,29,-1
EndSplineSet
Validated: 1
EndChar

StartChar: partialdiff
Encoding: 8706 8706 153
Width: 1245
GlyphClass: 2
Flags: W
HStem: -20 153<417.241 679.292> 870 170<702.652 979.301> 1378 152<756.721 1095.99>
VStem: 194 191<164.14 478.052> 1158 184<934.086 1313.68>
LayerCount: 2
Fore
SplineSet
488 -20 m 0,0,1
 194 -20 194 -20 194 240 c 0,2,3
 194 300 194 300 210 375 c 0,4,5
 264 631 264 631 439 815 c 0,6,7
 655 1040 655 1040 873 1040 c 0,8,9
 1060 1040 1060 1040 1130 930 c 1,10,11
 1158 1063 1158 1063 1158 1153 c 0,12,13
 1158 1202 1158 1202 1150 1239 c 0,14,15
 1119 1378 1119 1378 951 1378 c 0,16,17
 820 1378 820 1378 675 1294 c 1,18,-1
 712 1468 l 1,19,20
 859 1530 859 1530 1008 1530 c 0,21,22
 1342 1530 1342 1530 1342 1173 c 0,23,24
 1342 1069 1342 1069 1314 934 c 0,25,26
 1231 545 1231 545 1002.5 262.5 c 128,-1,27
 774 -20 774 -20 488 -20 c 0,0,1
533 133 m 0,28,29
 671 133 671 133 813 286 c 128,-1,30
 955 439 955 439 1045 680 c 1,31,32
 1041 765 1041 765 988.5 817.5 c 128,-1,33
 936 870 936 870 860 870 c 0,34,35
 700 870 700 870 567.5 710 c 128,-1,36
 435 550 435 550 396 369 c 0,37,38
 385 319 385 319 385 280 c 0,39,40
 385 133 385 133 533 133 c 0,28,29
EndSplineSet
Validated: 1
EndChar

StartChar: uni2206
Encoding: 8710 8710 154
Width: 1291
GlyphClass: 2
Flags: W
HStem: 0 130<220 1061> 1530 20G<1016.88 1057.98>
DStem2: 5 0 220 130 0.501999 0.864868<220.363 1566.64> 1055 1550 893 1296 0.147404 -0.989076<227.346 1405.37>
LayerCount: 2
Fore
SplineSet
5 0 m 1,0,-1
 806 1380 l 1,1,-1
 1045 1550 l 1,2,-1
 1055 1550 l 1,3,-1
 1286 0 l 1,4,-1
 5 0 l 1,0,-1
220 130 m 1,5,-1
 1061 130 l 1,6,-1
 893 1296 l 1,7,-1
 220 130 l 1,5,-1
EndSplineSet
Validated: 1
EndChar

StartChar: product
Encoding: 8719 8719 155
Width: 1350
GlyphClass: 2
Flags: W
HStem: -450 21G<84 122 874 912.176> 1380 130<673 1263>
DStem2: 84 -450 283.991 -450 0.207912 0.978148<205.155 1880.11> 874 -450 1074.2 -450 0.207912 0.978148<204.177 1870.89>
LayerCount: 2
Fore
SplineSet
94 -450 m 1,0,-1
 84 -450 l 1,1,-1
 475 1389 l 1,2,-1
 645 1510 l 1,3,-1
 1491 1510 l 1,4,-1
 1108 -291 l 1,5,-1
 884 -450 l 1,6,-1
 874 -450 l 1,7,-1
 1263 1380 l 1,8,-1
 673 1380 l 1,9,-1
 318 -290 l 1,10,-1
 94 -450 l 1,0,-1
EndSplineSet
Validated: 1
EndChar

StartChar: summation
Encoding: 8721 8721 156
Width: 1163
GlyphClass: 2
Flags: W
HStem: -410 130<288 845> 1382 128<640 1134>
DStem2: -7 -410 288 -280 0.573074 0.819504<275.592 1209.27> 640 1382 416 1387 0.317639 -0.948212<0 774.129>
LayerCount: 2
Fore
SplineSet
-7 -410 m 1,0,-1
 686 581 l 1,1,-1
 416 1387 l 1,2,-1
 588 1510 l 1,3,-1
 1263 1510 l 1,4,-1
 1261 1500 l 1,5,-1
 1134 1380 l 1,6,-1
 640 1382 l 1,7,-1
 909 588 l 1,8,-1
 288 -280 l 1,9,-1
 973 -280 l 1,10,-1
 971 -290 l 1,11,-1
 845 -410 l 1,12,-1
 -7 -410 l 1,0,-1
EndSplineSet
Validated: 1
EndChar

StartChar: uni2219
Encoding: 8729 8729 157
Width: 308
GlyphClass: 2
Flags: W
HStem: 627 252<271.875 356.125>
VStem: 187 254<701 805>
LayerCount: 2
Fore
SplineSet
353 879 m 0,0,1
 366 879 366 879 381 873 c 0,2,3
 411 860 411 860 426 832 c 0,4,5
 441 805 441 805 441 778 c 0,6,7
 441 766 441 766 438 755 c 0,8,9
 432 726 432 726 405 707 c 2,10,-1
 313 641 l 2,11,12
 293 627 293 627 275 627 c 0,13,14
 262 627 262 627 248 633 c 0,15,16
 219 645 219 645 202 674 c 0,17,18
 187 701 187 701 187 728 c 0,19,20
 187 740 187 740 190 751 c 0,21,22
 196 780 196 780 223 799 c 2,23,-1
 315 865 l 2,24,25
 335 879 335 879 353 879 c 0,0,1
EndSplineSet
Validated: 1
EndChar

StartChar: radical
Encoding: 8730 8730 158
Width: 1233
GlyphClass: 2
Flags: W
HStem: -40 21G<483.973 524.235> 621 130<341 419> 1608 114<1549 1708>
DStem2: 598 751 419 621 0.100845 -0.994902<111.286 534.734> 652 219 736 130 0.481964 0.876191<0 1617.32>
LayerCount: 2
Fore
SplineSet
496 -40 m 1,0,-1
 486 -40 l 1,1,-1
 419 621 l 1,2,-1
 212 621 l 1,3,-1
 214 631 l 1,4,-1
 341 751 l 1,5,-1
 598 751 l 1,6,-1
 652 219 l 1,7,-1
 1428 1638 l 1,8,-1
 1546 1722 l 1,9,-1
 1819 1722 l 1,10,-1
 1817 1712 l 1,11,-1
 1708 1608 l 1,12,-1
 1549 1608 l 1,13,-1
 736 130 l 1,14,-1
 496 -40 l 1,0,-1
EndSplineSet
Validated: 1
EndChar

StartChar: infinity
Encoding: 8734 8734 159
Width: 1704
GlyphClass: 2
Flags: W
HStem: 328 158<520.448 667.357 1153.39 1301.22> 1010 161<719.966 871.52 1354.64 1504.16>
VStem: 278 182<547.301 826.783> 912 182<544.995 831.764> 930 183<671.127 951.113> 1563 181<673.773 951.337>
LayerCount: 2
Fore
SplineSet
816 1171 m 0,0,1
 846 1171 846 1171 885 1161 c 0,2,3
 982 1134 982 1134 1046 1048 c 0,4,5
 1113 958 1113 958 1113 842 c 0,6,7
 1113 798 1113 798 1103 749 c 0,8,9
 1094 706 1094 706 1094 670 c 0,10,11
 1094 598 1094 598 1129 556 c 0,12,13
 1185 486 1185 486 1275 486 c 0,14,15
 1368 486 1368 486 1448 552 c 0,16,17
 1530 622 1530 622 1554 746 c 16,18,19
 1562 788 1562 788 1563 824 c 0,20,21
 1563 898 1563 898 1527 942 c 0,22,23
 1473 1009 1473 1009 1382 1009 c 0,24,25
 1332 1009 1332 1009 1287 991 c 1,26,-1
 1249 1051 l 1,27,-1
 1364 1133 l 2,28,29
 1414 1169 1414 1169 1449 1169 c 128,-1,30
 1484 1169 1484 1169 1519 1159 c 0,31,32
 1615 1134 1615 1134 1678 1049 c 0,33,34
 1744 961 1744 961 1744 847 c 0,35,36
 1744 800 1744 800 1733 749 c 0,37,38
 1724 707 1724 707 1698 670 c 0,39,40
 1676 638 1676 638 1628 604 c 2,41,-1
 1291 364 l 2,42,43
 1240 328 1240 328 1206 328 c 0,44,45
 1176 328 1176 328 1137 338 c 0,46,47
 1040 365 1040 365 976 451 c 128,-1,48
 912 537 912 537 912 653 c 0,49,50
 912 698 912 698 922 748 c 0,51,52
 930 789 930 789 930 824 c 0,53,54
 930 898 930 898 893 943 c 0,55,56
 838 1010 838 1010 749 1010 c 0,57,58
 653 1010 653 1010 576 944 c 0,59,60
 498 877 498 877 470 750 c 16,61,62
 461 707 461 707 460 670 c 0,63,64
 460 600 460 600 495 557 c 0,65,66
 549 490 549 490 640 490 c 0,67,68
 690 490 690 490 735 508 c 1,69,-1
 773 448 l 1,70,-1
 658 366 l 2,71,72
 608 330 608 330 573 330 c 128,-1,73
 538 330 538 330 503 340 c 0,74,75
 407 365 407 365 344 450 c 0,76,77
 278 538 278 538 278 652 c 0,78,79
 278 699 278 699 289 750 c 0,80,81
 298 792 298 792 324 829 c 0,82,83
 346 861 346 861 394 895 c 2,84,-1
 731 1135 l 2,85,86
 782 1171 782 1171 816 1171 c 0,0,1
EndSplineSet
Validated: 1
EndChar

StartChar: approxequal
Encoding: 8776 8776 160
Width: 1238
GlyphClass: 2
Flags: W
HStem: 373 90<910.506 1008.13> 654 97<468.812 568.46> 758 90<992.506 1090.04> 1039 97<550.242 653.279>
VStem: 233 201<452.815 582.5> 314 202<840 985> 1043 201<541.5 672.291> 1124 202<926.5 1057.29>
DStem2: 1211 764 972 392 0.813733 0.581238<-246.876 -46.3027> 1293 1149 1054 777 0.813733 0.581238<-247.789 -46.3027>
LayerCount: 2
Fore
SplineSet
1221 764 m 1,0,1
 1244 722 1244 722 1244 669 c 0,2,3
 1244 640 1244 640 1237 609 c 8,4,5
 1230 576 1230 576 1203 557 c 2,6,-1
 972 392 l 2,7,8
 945 373 945 373 918 373 c 0,9,10
 702 373 702 373 639 499 c 0,11,12
 562 654 562 654 505 654 c 0,13,14
 448 653 448 653 437 600 c 0,15,16
 434 588 434 588 434 577 c 0,17,18
 434 538 434 538 463 501 c 1,19,-1
 266 360 l 1,20,-1
 256 360 l 1,21,22
 233 403 233 403 233 457 c 0,23,24
 233 485 233 485 239 515 c 8,25,26
 246 548 246 548 274 567 c 2,27,-1
 505 732 l 2,28,29
 532 751 532 751 559 751 c 0,30,31
 775 751 775 751 838 625 c 0,32,33
 921 463 921 463 967 463 c 0,34,35
 1027 463 1027 463 1041 525 c 0,36,37
 1043 536 1043 536 1043 547 c 0,38,39
 1043 586 1043 586 1013 623 c 1,40,-1
 1211 764 l 1,41,-1
 1221 764 l 1,0,1
1303 1149 m 1,42,43
 1326 1107 1326 1107 1326 1054 c 0,44,45
 1326 1025 1326 1025 1319 994 c 8,46,47
 1312 961 1312 961 1285 942 c 2,48,-1
 1054 777 l 2,49,50
 1027 758 1027 758 1000 758 c 0,51,52
 784 758 784 758 721 884 c 0,53,54
 644 1039 644 1039 587 1039 c 0,55,56
 530 1038 530 1038 518 985 c 0,57,58
 516 974 516 974 516 962 c 0,59,60
 516 923 516 923 545 886 c 1,61,-1
 347 745 l 1,62,-1
 337 745 l 1,63,64
 314 787 314 787 314 840 c 0,65,66
 314 869 314 869 321 900 c 8,67,68
 328 933 328 933 355 952 c 2,69,-1
 586 1117 l 2,70,71
 613 1136 613 1136 640 1136 c 0,72,73
 856 1136 856 1136 920 1010 c 0,74,75
 1003 848 1003 848 1049 848 c 0,76,77
 1109 848 1109 848 1122 910 c 0,78,79
 1124 921 1124 921 1124 932 c 0,80,81
 1124 970 1124 970 1095 1008 c 1,82,-1
 1293 1149 l 1,83,-1
 1303 1149 l 1,42,43
EndSplineSet
Validated: 1
EndChar

StartChar: notequal
Encoding: 8800 8800 161
Width: 1174
GlyphClass: 2
Flags: W
HStem: 502 151<388 464 724 1033> 857 151<463 766 1026 1108>
DStem2: 316 328 377 246 0.648397 0.761302<0 228.429 511.969 694.508 978.048 1217.11>
LayerCount: 2
Fore
SplineSet
1119 1272 m 1,0,-1
 1129 1272 l 1,1,-1
 1181 1190 l 1,2,-1
 1026 1008 l 1,3,-1
 1258 1008 l 1,4,-1
 1256 998 l 1,5,-1
 1108 857 l 1,6,-1
 897 857 l 1,7,-1
 724 653 l 1,8,-1
 1183 653 l 1,9,-1
 1181 643 l 1,10,-1
 1033 502 l 1,11,-1
 596 502 l 1,12,-1
 377 246 l 1,13,-1
 367 246 l 1,14,-1
 316 328 l 1,15,-1
 464 502 l 1,16,-1
 237 502 l 1,17,-1
 239 512 l 1,18,-1
 388 653 l 1,19,-1
 593 653 l 1,20,-1
 766 857 l 1,21,-1
 312 857 l 1,22,-1
 314 867 l 1,23,-1
 463 1008 l 1,24,-1
 894 1008 l 1,25,-1
 1119 1272 l 1,0,-1
EndSplineSet
Validated: 1
EndChar

StartChar: lessequal
Encoding: 8804 8804 162
Width: 1236
GlyphClass: 2
Flags: W
HStem: 191 151<322 967>
DStem2: 538 864 300 801 0.888184 -0.459487<0 661.979> 420 924 538 864 0.920104 0.391673<85.0719 914.027>
LayerCount: 2
Fore
SplineSet
171 191 m 1,0,-1
 173 201 l 1,1,-1
 322 342 l 1,2,-1
 1117 342 l 1,3,-1
 1115 332 l 1,4,-1
 967 191 l 1,5,-1
 171 191 l 1,0,-1
1261 1282 m 1,6,-1
 1311 1202 l 1,7,-1
 1309 1192 l 1,8,-1
 538 864 l 1,9,-1
 1170 536 l 1,10,-1
 1168 526 l 1,11,-1
 1050 413 l 1,12,-1
 300 801 l 1,13,-1
 302 811 l 1,14,-1
 420 924 l 1,15,-1
 1261 1282 l 1,6,-1
EndSplineSet
Validated: 1
EndChar

StartChar: greaterequal
Encoding: 8805 8805 163
Width: 1236
GlyphClass: 2
Flags: W
HStem: 191 151<322 967>
DStem2: 287 503 335 413 0.920104 0.391673<8.9144 838.789> 546 1282 426 1159 0.888184 -0.459487<0 662.867>
LayerCount: 2
Fore
SplineSet
171 191 m 1,0,-1
 173 201 l 1,1,-1
 322 342 l 1,2,-1
 1117 342 l 1,3,-1
 1115 332 l 1,4,-1
 967 191 l 1,5,-1
 171 191 l 1,0,-1
546 1282 m 1,6,-1
 1296 894 l 1,7,-1
 1294 884 l 1,8,-1
 1176 771 l 1,9,-1
 335 413 l 1,10,-1
 285 493 l 1,11,-1
 287 503 l 1,12,-1
 1059 831 l 1,13,-1
 426 1159 l 1,14,-1
 428 1169 l 1,15,-1
 546 1282 l 1,6,-1
EndSplineSet
Validated: 1
EndChar

StartChar: lozenge
Encoding: 9674 9674 164
Width: 1094
GlyphClass: 2
Flags: W
HStem: -20 21G<534.926 559.531> 1510 20G<855.965 879.605>
DStem2: 237 738 424 764 0.625536 0.780196<137.26 717.758> 424 764 237 738 0.374342 -0.927291<0 534.609> 621 267 543 -20 0.637091 0.770789<0 572.354> 872 1530 787 1217 0.355404 -0.934713<262.356 803.334>
LayerCount: 2
Fore
SplineSet
621 267 m 1,0,-1
 981 712 l 1,1,-1
 787 1217 l 1,2,-1
 424 764 l 1,3,-1
 621 267 l 1,0,-1
543 -20 m 1,4,-1
 237 738 l 1,5,-1
 872 1530 l 1,6,-1
 1172 741 l 1,7,-1
 543 -20 l 1,4,-1
EndSplineSet
Validated: 1
EndChar

StartChar: AE
Encoding: 198 198 165
Width: 1903
Flags: W
HStem: -40 21G<131 276.5> 0 130<1238.64 1772> 520 130<249 311 538 1101 1328 1670> 1350 180<960.879 1124.89> 1380 130<1326 1922>
VStem: 1029 207<131.763 393.281> 1217 200<858.688 1254.33>
DStem2: 191.533 -40 391.533 -40 0.207912 0.978148<187.041 572.601 746.956 1226.11> 981.735 -40 1181.48 -40 0.207912 0.978148<288.171 572.559 746.914 1168.65>
LayerCount: 2
Fore
SplineSet
538 650 m 1,0,-1
 1128 650 l 1,1,-1
 1207 1020 l 2,2,3
 1217 1066 1217 1066 1217 1106 c 0,4,5
 1217 1190 1217 1190 1175 1251 c 0,6,7
 1108 1350 1108 1350 982 1350 c 0,8,9
 857 1350 857 1350 749 1251 c 0,10,11
 646 1156 646 1156 617 1020 c 2,12,-1
 538 650 l 1,0,-1
1095 0 m 1,13,14
 1029 56 1029 56 1029 150 c 0,15,16
 1029 183 1029 183 1037 220 c 2,17,-1
 1101 520 l 1,18,-1
 511 520 l 1,19,-1
 457 268 l 2,20,21
 412 56 412 56 141 -40 c 1,22,-1
 131 -40 l 1,23,24
 223 108 223 108 257 268 c 2,25,-1
 311 520 l 1,26,-1
 116 520 l 1,27,-1
 118 530 l 1,28,-1
 249 650 l 1,29,-1
 338 650 l 1,30,-1
 417 1022 l 2,31,32
 430 1083 430 1083 455 1113 c 0,33,34
 488 1153 488 1153 525 1179 c 2,35,-1
 970 1494 l 2,36,37
 1021 1530 1021 1530 1059 1530 c 0,38,39
 1096 1530 1096 1530 1116 1524 c 0,40,41
 1137 1518 1137 1518 1156 1510 c 1,42,-1
 2051 1510 l 1,43,-1
 2049 1500 l 1,44,-1
 1922 1380 l 1,45,-1
 1326 1380 l 1,46,47
 1334 1369 1334 1369 1342 1358 c 0,48,49
 1417 1250 1417 1250 1417 1115 c 0,50,51
 1417 1069 1417 1069 1407 1022 c 2,52,-1
 1328 650 l 1,53,-1
 1798 650 l 1,54,-1
 1796 640 l 1,55,-1
 1670 520 l 1,56,-1
 1301 520 l 1,57,-1
 1241 240 l 2,58,59
 1236 218 1236 218 1236 200 c 0,60,61
 1236 156 1236 156 1263 130 c 1,62,-1
 1901 130 l 1,63,-1
 1899 120 l 1,64,-1
 1772 0 l 1,65,-1
 1095 0 l 1,13,14
EndSplineSet
Validated: 1
EndChar

StartChar: Eth
Encoding: 208 208 166
Width: 1293
Flags: W
HStem: -40 21G<171 377> 588 100<252 305 526 731> 1530 20G<670.95 709 886.918 1039>
VStem: 1197 215<765.432 1144.14>
DStem2: 171 -40 371.242 -40 0.207912 0.978148<184.76 642.137 785.9 1463.14>
LayerCount: 2
Fore
SplineSet
171 -40 m 1,0,-1
 305 588 l 1,1,-1
 155 588 l 1,2,-1
 157 598 l 1,3,-1
 252 688 l 1,4,-1
 326 688 l 1,5,-1
 476 1391 l 1,6,-1
 699 1550 l 1,7,-1
 709 1550 l 1,8,-1
 526 688 l 1,9,-1
 828 688 l 1,10,-1
 826 678 l 1,11,-1
 731 588 l 1,12,-1
 505 588 l 1,13,-1
 401 100 l 1,14,15
 656 188 656 188 846 326 c 0,16,17
 1117 522 1117 522 1183 834 c 0,18,19
 1197 897 1197 897 1197 955 c 0,20,21
 1197 1118 1197 1118 1088 1233 c 0,22,23
 966 1362 966 1362 710 1384 c 1,24,-1
 915 1530 l 1,25,26
 1163 1508 1163 1508 1303 1324 c 0,27,28
 1412 1179 1412 1179 1412 999 c 0,29,30
 1412 945 1412 945 1402 888 c 0,31,32
 1330 485 1330 485 897 220 c 0,33,34
 573 22 573 22 181 -40 c 1,35,-1
 171 -40 l 1,0,-1
EndSplineSet
Validated: 1
EndChar

StartChar: Hbar
Encoding: 294 294 167
Width: 1365
Flags: W
HStem: -40 21G<186 224.176 976 1014.18> 520 130<244 306 533 1096> 1237 100<405 458 679 1248 1469 1522> 1530 20G<685.95 724 1475.95 1514>
DStem2: 186 -40 386.204 -40 0.207912 0.978148<204.177 572.712 747.067 1305.65 1449.41 1463.14> 976 -40 1176.2 -40 0.207912 0.978148<204.177 572.712 705.485 1305.65 1449.41 1463.14>
LayerCount: 2
Fore
SplineSet
186 -40 m 1,0,-1
 306 520 l 1,1,-1
 116 520 l 1,2,-1
 118 530 l 1,3,-1
 244 650 l 1,4,-1
 333 650 l 1,5,-1
 458 1237 l 1,6,-1
 308 1237 l 1,7,-1
 310 1247 l 1,8,-1
 405 1337 l 1,9,-1
 479 1337 l 1,10,-1
 491 1391 l 1,11,-1
 714 1550 l 1,12,-1
 724 1550 l 1,13,-1
 679 1337 l 1,14,-1
 1269 1337 l 1,15,-1
 1281 1391 l 1,16,-1
 1504 1550 l 1,17,-1
 1514 1550 l 1,18,-1
 1469 1337 l 1,19,-1
 1619 1337 l 1,20,-1
 1617 1327 l 1,21,-1
 1522 1237 l 1,22,-1
 1448 1237 l 1,23,-1
 1210 119 l 1,24,-1
 986 -40 l 1,25,-1
 976 -40 l 1,26,-1
 1096 520 l 1,27,-1
 506 520 l 1,28,-1
 420 119 l 1,29,-1
 196 -40 l 1,30,-1
 186 -40 l 1,0,-1
658 1237 m 1,31,-1
 533 650 l 1,32,-1
 1123 650 l 1,33,-1
 1248 1237 l 1,34,-1
 658 1237 l 1,31,-1
EndSplineSet
Validated: 1
EndChar

StartChar: Lslash
Encoding: 321 321 168
Width: 1083
Flags: W
HStem: 0 130<135 223 423 977> 1120 20G<915.938 973.672> 1530 20G<685.95 724>
DStem2: 138 566 208 505 0.814552 0.58009<21.6331 157.876 544.97 989.501> 195.368 0 395.368 0 0.207912 0.978148<174.487 596.943 730.902 810.339 943.112 1422.07>
LayerCount: 2
Fore
SplineSet
5 0 m 1,0,-1
 7 8 l 1,1,-1
 135 130 l 1,2,-1
 223 130 l 1,3,-1
 319 584 l 1,4,-1
 208 505 l 1,5,-1
 198 505 l 1,6,-1
 138 566 l 1,7,-1
 347 715 l 1,8,-1
 491 1391 l 1,9,-1
 714 1550 l 1,10,-1
 724 1550 l 1,11,-1
 582 882 l 1,12,-1
 944 1140 l 1,13,-1
 954 1140 l 1,14,-1
 1014 1079 l 1,15,-1
 555 752 l 1,16,-1
 423 130 l 1,17,-1
 1106 130 l 1,18,-1
 1104 120 l 1,19,-1
 977 0 l 1,20,-1
 5 0 l 1,0,-1
EndSplineSet
Validated: 1
EndChar

StartChar: Eng
Encoding: 330 330 169
Width: 1370
Flags: W
HStem: -40 21G<171 209.176> 1350 180<948.911 1117.57> 1530 20G<670.95 709>
VStem: 1215 200<945.647 1248.33>
DStem2: 100.856 -370 301.06 -370 0.207912 0.978148<541.549 1647.18 1721.48 1800.51> 911.354 -370 1111.35 -370 0.207912 0.978148<207.539 1496.82>
LayerCount: 2
Fore
SplineSet
171 -40 m 1,0,-1
 476 1391 l 1,1,-1
 699 1550 l 1,2,-1
 709 1550 l 1,3,-1
 651 1273 l 1,4,-1
 960 1494 l 2,5,6
 1010 1530 1010 1530 1044 1530 c 0,7,8
 1084 1530 1084 1530 1116 1520 c 0,9,10
 1250 1478 1250 1478 1340 1348 c 0,11,12
 1415 1240 1415 1240 1415 1105 c 0,13,14
 1415 1057 1415 1057 1405 1010 c 2,15,-1
 1190 0 l 2,16,17
 1111 -370 1111 -370 689 -370 c 1,18,-1
 691 -360 l 1,19,20
 937 -249 937 -249 990 0 c 2,21,-1
 1205 1010 l 2,22,23
 1215 1056 1215 1056 1215 1097 c 0,24,25
 1215 1185 1215 1185 1170 1251 c 0,26,27
 1103 1350 1103 1350 972 1350 c 0,28,29
 840 1350 840 1350 734 1251 c 0,30,31
 625 1150 625 1150 595 1010 c 2,32,-1
 405 119 l 1,33,-1
 181 -40 l 1,34,-1
 171 -40 l 1,0,-1
EndSplineSet
Validated: 1
EndChar

StartChar: Oslash
Encoding: 216 216 170
Width: 1270
Flags: W
HStem: -20 168<524.605 689.226> 1361 169<901.193 1067.77>
VStem: 226 191<307.775 659.375> 1174 191<850.625 1201.73>
DStem2: 113.567 -76 303.567 -76 0.207912 0.978148<543.604 1249.99> 218 -15 287 -76 0.561476 0.827493<0 161.887 388.027 1533.99 1760.96 1924.23> 933.567 -76 1123.57 -76 0.207912 0.978148<488.764 1195.12>
LayerCount: 2
Fore
SplineSet
436 306 m 1,0,-1
 1102 1287 l 1,1,2
 1032 1361 1032 1361 924 1361 c 0,3,4
 793 1361 793 1361 674 1251 c 0,5,6
 565 1150 565 1150 535 1010 c 2,7,-1
 426 500 l 2,8,9
 417 454 417 454 417 414 c 0,10,11
 417 355 417 355 436 306 c 1,0,-1
666 148 m 0,12,13
 796 148 796 148 917 259 c 0,14,15
 1026 360 1026 360 1056 500 c 2,16,-1
 1165 1010 l 2,17,18
 1174 1055 1174 1055 1174 1096 c 0,19,20
 1174 1154 1174 1154 1155 1203 c 1,21,-1
 489 223 l 1,22,23
 560 148 560 148 666 148 c 0,12,13
597 -20 m 0,24,25
 557 -20 557 -20 525 -10 c 0,26,27
 448 13 448 13 384 68 c 1,28,-1
 287 -76 l 1,29,-1
 277 -76 l 1,30,-1
 218 -15 l 1,31,-1
 320 136 l 1,32,33
 310 148 310 148 301 162 c 0,34,35
 226 271 226 271 226 405 c 0,36,37
 226 453 226 453 236 500 c 2,38,-1
 345 1010 l 2,39,40
 356 1064 356 1064 382 1101 c 0,41,42
 406 1134 406 1134 452 1167 c 2,43,-1
 910 1494 l 2,44,45
 960 1530 960 1530 994 1530 c 0,46,47
 1034 1530 1034 1530 1066 1520 c 0,48,49
 1144 1497 1144 1497 1207 1442 c 1,50,-1
 1305 1587 l 1,51,-1
 1314 1587 l 1,52,-1
 1374 1526 l 1,53,-1
 1271 1374 l 1,54,55
 1281 1361 1281 1361 1290 1348 c 0,56,57
 1365 1239 1365 1239 1365 1105 c 0,58,59
 1365 1057 1365 1057 1355 1010 c 2,60,-1
 1246 500 l 2,61,62
 1235 446 1235 446 1209 409 c 0,63,64
 1185 376 1185 376 1139 343 c 2,65,-1
 681 16 l 2,66,67
 631 -20 631 -20 597 -20 c 0,24,25
EndSplineSet
Validated: 1
EndChar

StartChar: OE
Encoding: 338 338 171
Width: 1853
Flags: W
HStem: -20 180<523.433 692.089> 0 130<1168 1722> 520 130<1278 1620> 1350 180<900.161 1069.2> 1380 130<1266 1872>
VStem: 226 200<262.445 561.44> 1165 200<848.75 1249.41>
DStem2: 125.471 -20 325.471 -20 0.207912 0.978148<487.276 1194.46> 935.373 -20 1136.12 -20 0.207912 0.978148<195.088 262.742 337.041 593.822 726.595 1139.08>
LayerCount: 2
Fore
SplineSet
940 0 m 1,0,-1
 990 237 l 1,1,-1
 681 16 l 2,2,3
 631 -20 631 -20 597 -20 c 0,4,5
 557 -20 557 -20 525 -10 c 0,6,7
 400 28 400 28 301 162 c 0,8,9
 226 264 226 264 226 405 c 0,10,11
 226 453 226 453 236 500 c 2,12,-1
 345 1010 l 2,13,14
 357 1067 357 1067 382 1101 c 0,15,16
 406 1134 406 1134 452 1167 c 2,17,-1
 910 1494 l 2,18,19
 960 1530 960 1530 994 1530 c 128,-1,20
 1028 1530 1028 1530 1066 1520 c 0,21,22
 1081 1516 1081 1516 1095 1510 c 1,23,-1
 2001 1510 l 1,24,-1
 1999 1500 l 1,25,-1
 1872 1380 l 1,26,-1
 1266 1380 l 1,27,28
 1278 1365 1278 1365 1290 1348 c 0,29,30
 1365 1239 1365 1239 1365 1105 c 0,31,32
 1365 1057 1365 1057 1355 1010 c 2,33,-1
 1278 650 l 1,34,-1
 1748 650 l 1,35,-1
 1746 640 l 1,36,-1
 1620 520 l 1,37,-1
 1251 520 l 1,38,-1
 1168 130 l 1,39,-1
 1851 130 l 1,40,-1
 1849 120 l 1,41,-1
 1722 0 l 1,42,-1
 940 0 l 1,0,-1
669 160 m 0,43,44
 801 160 801 160 907 259 c 0,45,46
 1016 360 1016 360 1046 500 c 2,47,-1
 1155 1010 l 2,48,49
 1165 1056 1165 1056 1165 1097 c 0,50,51
 1165 1185 1165 1185 1120 1251 c 0,52,53
 1053 1350 1053 1350 922 1350 c 0,54,55
 790 1350 790 1350 684 1251 c 0,56,57
 575 1150 575 1150 545 1010 c 2,58,-1
 436 500 l 2,59,60
 426 454 426 454 426 413 c 0,61,62
 426 325 426 325 471 259 c 0,63,64
 538 160 538 160 669 160 c 0,43,44
EndSplineSet
Validated: 1
EndChar

StartChar: longs
Encoding: 383 383 172
Width: 948
Flags: W
HStem: -40 21G<256 294> 790 110<295 433> 1370 160<923.063 1072.27>
DStem2: 256 -40 426.305 -40 0.207912 0.978148<173.424 848.663 961.041 1298.29>
LayerCount: 2
Fore
SplineSet
256 -40 m 1,0,-1
 433 790 l 1,1,-1
 188 790 l 1,2,-1
 190 800 l 1,3,-1
 295 900 l 1,4,-1
 456 900 l 1,5,-1
 497 1093 l 2,6,7
 509 1150 509 1150 535 1184 c 0,8,9
 559 1216 559 1216 605 1250 c 2,10,-1
 933 1494 l 2,11,12
 981 1530 981 1530 1018 1530 c 0,13,14
 1057 1530 1057 1530 1094 1517 c 0,15,16
 1187 1484 1187 1484 1243 1411 c 1,17,-1
 1093 1304 l 1,18,19
 1039 1370 1039 1370 950 1370 c 0,20,21
 854 1370 854 1370 777 1304 c 0,22,23
 698 1237 698 1237 671 1110 c 2,24,-1
 455 95 l 1,25,-1
 266 -40 l 1,26,-1
 256 -40 l 1,0,-1
EndSplineSet
Validated: 1
EndChar

StartChar: florin
Encoding: 402 402 173
Width: 893
Flags: W
HStem: -450 21G<-46 139> 790 110<295 378 571 816> 1370 160<868.063 1017.27>
DStem2: 114.35 -450 284.35 -450 0.207912 0.978148<272.309 1267.72 1415.44 1717.35>
LayerCount: 2
Fore
SplineSet
-46 -450 m 1,0,1
 160 -233 160 -233 210 0 c 2,2,-1
 378 790 l 1,3,-1
 188 790 l 1,4,-1
 190 800 l 1,5,-1
 295 900 l 1,6,-1
 401 900 l 1,7,-1
 442 1093 l 2,8,9
 454 1150 454 1150 480 1184 c 0,10,11
 504 1216 504 1216 550 1250 c 2,12,-1
 878 1494 l 2,13,14
 926 1530 926 1530 963 1530 c 0,15,16
 1002 1530 1002 1530 1039 1517 c 0,17,18
 1132 1484 1132 1484 1188 1411 c 1,19,-1
 1038 1304 l 1,20,21
 984 1370 984 1370 895 1370 c 0,22,23
 799 1370 799 1370 722 1304 c 0,24,25
 643 1237 643 1237 616 1110 c 2,26,-1
 571 900 l 1,27,-1
 923 900 l 1,28,-1
 921 890 l 1,29,-1
 816 790 l 1,30,-1
 548 790 l 1,31,-1
 380 0 l 2,32,33
 314 -311 314 -311 -36 -450 c 1,34,-1
 -46 -450 l 1,0,1
EndSplineSet
Validated: 1
EndChar

StartChar: thorn
Encoding: 254 254 174
Width: 1100
Flags: W
HStem: -450 21G<84 122> -20 160<482.521 634.534> 960 160<749.263 901.174> 1530 20G<641.148 679>
VStem: 958 181<537.25 902.637>
DStem2: 84 -450 254.305 -450 0.207912 0.978148<173.424 553.72 826.36 1393.36 1449.25 1906.79> 704.327 -450 884.564 -450 0.207912 0.978148<778.344 1253.78>
LayerCount: 2
Fore
SplineSet
778 960 m 0,0,1
 682 960 682 960 605 894 c 0,2,3
 526 827 526 827 499 700 c 2,4,-1
 435 400 l 2,5,6
 426 357 426 357 426 321 c 0,7,8
 426 251 426 251 461 207 c 0,9,10
 516 140 516 140 606 140 c 0,11,12
 702 140 702 140 779 206 c 0,13,14
 858 273 858 273 885 400 c 2,15,-1
 949 700 l 2,16,17
 958 743 958 743 958 779 c 0,18,19
 958 849 958 849 923 893 c 0,20,21
 868 960 868 960 778 960 c 0,0,1
539 -20 m 0,22,23
 500 -20 500 -20 464 -7 c 0,24,25
 408 13 408 13 362 57 c 1,26,-1
 283 -315 l 1,27,-1
 94 -450 l 1,28,-1
 84 -450 l 1,29,-1
 481 1415 l 1,30,-1
 669 1550 l 1,31,-1
 679 1550 l 1,32,-1
 548 933 l 1,33,-1
 760 1084 l 2,34,35
 811 1120 811 1120 845 1120 c 0,36,37
 884 1120 884 1120 921 1107 c 0,38,39
 1017 1073 1017 1073 1072 997 c 0,40,41
 1139 904 1139 904 1139 791 c 0,42,43
 1139 747 1139 747 1129 700 c 2,44,-1
 1068 413 l 2,45,46
 1057 361 1057 361 1030 322 c 0,47,48
 1008 290 1008 290 960 256 c 2,49,-1
 623 16 l 2,50,51
 572 -20 572 -20 539 -20 c 0,22,23
EndSplineSet
Validated: 1
EndChar

StartChar: eth
Encoding: 240 240 175
Width: 1050
Flags: W
HStem: -20 160<432.709 584.534> 959 161<698.966 851.453> 1453 97<695 745.462>
VStem: 196 180<197.363 564.719> 977 169<1030.05 1270.83>
DStem2: 116.726 -20 295.726 -20 0.207912 0.978148<388.557 866.502> 675 1365 655 1240 0.814015 0.580844<0 90.2078 302.637 391.449> 745.726 -20 925.963 -20 0.207912 0.978148<338.737 813.198>
LayerCount: 2
Fore
SplineSet
206 400 m 2,0,-1
 266 687 l 2,1,2
 278 742 278 742 303 778 c 0,3,4
 325 810 325 810 373 844 c 2,5,-1
 710 1084 l 2,6,7
 761 1120 761 1120 799 1120 c 0,8,9
 827 1120 827 1120 866 1107 c 0,10,11
 929 1086 929 1086 974 1029 c 1,12,13
 977 1058 977 1058 977 1086 c 0,14,15
 977 1216 977 1216 907 1312 c 0,16,17
 881 1348 881 1348 841 1372 c 1,18,-1
 655 1240 l 1,19,-1
 650 1248 l 1,20,-1
 675 1365 l 1,21,-1
 748 1418 l 1,22,23
 667 1447 667 1447 560 1453 c 1,24,-1
 695 1550 l 1,25,26
 799 1545 799 1545 883 1513 c 1,27,-1
 1066 1644 l 1,28,-1
 1071 1636 l 1,29,-1
 1046 1519 l 1,30,-1
 974 1467 l 1,31,32
 1020 1433 1020 1433 1056 1383 c 0,33,34
 1146 1258 1146 1258 1146 1091 c 0,35,36
 1146 1018 1146 1018 1129 936 c 2,37,-1
 1018 413 l 2,38,39
 1007 361 1007 361 980 322 c 0,40,41
 958 290 958 290 910 256 c 2,42,-1
 573 16 l 2,43,44
 522 -20 522 -20 489 -20 c 0,45,46
 451 -20 451 -20 414 -7 c 0,47,48
 318 27 318 27 263 103 c 0,49,50
 196 196 196 196 196 309 c 0,51,52
 196 352 196 352 206 400 c 2,0,-1
556 140 m 0,53,54
 652 140 652 140 729 206 c 0,55,56
 808 273 808 273 835 400 c 2,57,-1
 899 699 l 2,58,59
 908 742 908 742 908 778 c 0,60,61
 908 848 908 848 873 892 c 0,62,63
 818 959 818 959 728 959 c 0,64,65
 632 959 632 959 555 893 c 0,66,67
 476 826 476 826 449 699 c 2,68,-1
 385 400 l 2,69,70
 376 357 376 357 376 321 c 0,71,72
 376 251 376 251 411 207 c 0,73,74
 466 140 466 140 556 140 c 0,53,54
EndSplineSet
Validated: 19457
EndChar

StartChar: oslash
Encoding: 248 248 176
Width: 1050
Flags: W
HStem: -20 153<440.194 584.56> 966 154<698.937 842.717>
VStem: 195 171<246.027 562.477> 918 171<537.023 853.458>
DStem2: 99.7845 -95 269.785 -95 0.207912 0.978148<463.361 941.307> 190 -35 259 -95 0.561353 0.827576<0 141.241 336.99 1137.35 1334.49 1475.73> 739.785 -95 910.021 -95 0.207912 0.978148<415.413 888.895>
LayerCount: 2
Fore
SplineSet
379 244 m 1,0,-1
 844 929 l 1,1,2
 795 966 795 966 729 966 c 0,3,4
 630 966 630 966 545 893 c 0,5,6
 466 826 466 826 439 699 c 2,7,-1
 375 400 l 2,8,9
 366 357 366 357 366 321 c 0,10,11
 366 277 366 277 379 244 c 1,0,-1
554 133 m 0,12,13
 653 133 653 133 739 206 c 0,14,15
 818 273 818 273 845 400 c 2,16,-1
 909 699 l 2,17,18
 918 741 918 741 918 777 c 0,19,20
 918 821 918 821 904 855 c 1,21,-1
 439 170 l 1,22,23
 488 133 488 133 554 133 c 0,12,13
489 -20 m 0,24,25
 450 -20 450 -20 413 -7 c 0,26,27
 374 7 374 7 342 27 c 1,28,-1
 259 -95 l 1,29,-1
 249 -95 l 1,30,-1
 190 -35 l 1,31,-1
 273 88 l 1,32,33
 267 95 267 95 262 103 c 0,34,35
 195 196 195 196 195 309 c 0,36,37
 195 353 195 353 205 400 c 2,38,-1
 266 687 l 2,39,40
 278 741 278 741 303 778 c 0,41,42
 325 810 325 810 373 844 c 2,43,-1
 710 1084 l 2,44,45
 761 1120 761 1120 795 1120 c 0,46,47
 834 1120 834 1120 871 1107 c 0,48,49
 910 1093 910 1093 942 1073 c 1,50,-1
 1025 1196 l 1,51,-1
 1035 1196 l 1,52,-1
 1094 1135 l 1,53,-1
 1011 1012 l 1,54,55
 1017 1005 1017 1005 1022 997 c 0,56,57
 1089 904 1089 904 1089 791 c 0,58,59
 1089 747 1089 747 1079 700 c 2,60,-1
 1018 413 l 2,61,62
 1006 359 1006 359 980 322 c 0,63,64
 957 290 957 290 910 256 c 2,65,-1
 574 16 l 2,66,67
 524 -20 524 -20 489 -20 c 0,24,25
EndSplineSet
Validated: 1
EndChar

StartChar: oe
Encoding: 339 339 177
Width: 1660
Flags: W
HStem: -20 160<432.709 585.549 1062.86 1213.85> 959 161<698.966 851.174 1328 1482.72>
VStem: 196 180<197.786 458.719>
DStem2: 115.726 -20 295.726 -20 0.207912 0.978148<388.765 863.226> 745.726 -20 925.437 -20 0.207912 0.978148<506.618 813.198> 1023 439 1006 325 0.814551 0.580092<0 648.515> 1648 413 1203 16 0.814549 0.580094<-512.916 -52.9168>
LayerCount: 2
Fore
SplineSet
489 -20 m 0,0,1
 451 -20 451 -20 414 -7 c 0,2,3
 318 27 318 27 263 103 c 0,4,5
 196 196 196 196 196 309 c 0,6,7
 196 358 196 358 205 400 c 2,8,-1
 266 687 l 2,9,10
 277 741 277 741 303 778 c 0,11,12
 325 810 325 810 373 844 c 2,13,-1
 710 1084 l 2,14,15
 761 1120 761 1120 795 1120 c 0,16,17
 834 1120 834 1120 871 1107 c 0,18,19
 967 1073 967 1073 1022 997 c 0,20,21
 1057 949 1057 949 1074 895 c 1,22,-1
 1340 1084 l 2,23,24
 1391 1120 1391 1120 1425 1120 c 0,25,26
 1464 1120 1464 1120 1501 1107 c 0,27,28
 1597 1073 1597 1073 1652 997 c 0,29,30
 1704 925 1704 925 1716 830 c 1,31,-1
 1006 325 l 1,32,33
 1006 321 1006 321 1006 317 c 0,34,35
 1006 248 1006 248 1041 207 c 0,36,37
 1097 140 1097 140 1186 140 c 0,38,39
 1267 140 1267 140 1359 206 c 2,40,-1
 1648 413 l 1,41,42
 1637 359 1637 359 1610 322 c 0,43,44
 1588 290 1588 290 1540 256 c 2,45,-1
 1203 16 l 2,46,47
 1152 -20 1152 -20 1119 -20 c 0,48,49
 1081 -20 1081 -20 1044 -7 c 0,50,51
 948 27 948 27 893 103 c 0,52,53
 858 152 858 152 841 206 c 1,54,-1
 573 16 l 2,55,56
 522 -20 522 -20 489 -20 c 0,0,1
556 140 m 0,57,58
 652 140 652 140 729 206 c 0,59,60
 808 273 808 273 835 400 c 2,61,-1
 899 699 l 2,62,63
 908 742 908 742 908 778 c 0,64,65
 908 848 908 848 873 892 c 0,66,67
 818 959 818 959 728 959 c 0,68,69
 632 959 632 959 555 893 c 0,70,71
 476 826 476 826 449 699 c 2,72,-1
 385 400 l 2,73,74
 376 357 376 357 376 321 c 0,75,76
 376 251 376 251 411 207 c 0,77,78
 466 140 466 140 556 140 c 0,57,58
1023 439 m 1,79,-1
 1538 806 l 1,80,81
 1530 859 1530 859 1503 893 c 0,82,83
 1448 960 1448 960 1358 960 c 0,84,85
 1262 960 1262 960 1185 894 c 0,86,87
 1106 827 1106 827 1079 700 c 2,88,-1
 1023 439 l 1,79,-1
EndSplineSet
Validated: 1
EndChar

StartChar: eng
Encoding: 331 331 178
Width: 1120
Flags: W
HStem: -40 21G<171 209> 960 160<749.263 901.174> 1120 20G<554.148 592>
VStem: 958 181<636.886 902.214>
DStem2: 100.856 -370 271.161 -370 0.207912 0.978148<510.797 1311.61 1367.49 1405.9> 721.354 -370 901.354 -370 0.207912 0.978148<199.14 1171.99>
LayerCount: 2
Fore
SplineSet
171 -40 m 1,0,-1
 394 1005 l 1,1,-1
 582 1140 l 1,2,-1
 592 1140 l 1,3,-1
 548 933 l 1,4,-1
 760 1084 l 2,5,6
 811 1120 811 1120 845 1120 c 0,7,8
 884 1120 884 1120 921 1107 c 0,9,10
 1017 1073 1017 1073 1072 997 c 0,11,12
 1139 904 1139 904 1139 791 c 0,13,14
 1139 747 1139 747 1129 700 c 2,15,-1
 980 0 l 2,16,17
 901 -370 901 -370 499 -370 c 1,18,-1
 501 -360 l 1,19,20
 747 -249 747 -249 800 0 c 2,21,-1
 949 700 l 2,22,23
 958 743 958 743 958 779 c 0,24,25
 958 849 958 849 923 893 c 0,26,27
 868 960 868 960 778 960 c 0,28,29
 682 960 682 960 605 894 c 0,30,31
 526 827 526 827 499 700 c 2,32,-1
 370 95 l 1,33,-1
 181 -40 l 1,34,-1
 171 -40 l 1,0,-1
EndSplineSet
Validated: 1
EndChar

StartChar: ae
Encoding: 230 230 179
Width: 1620
Flags: W
HStem: -20 148<386.816 544.687 1038.48 1173.85> 612 149<583.197 739.532> 969 151<657.885 822.371 1289.95 1429.95>
VStem: 148 173<194.09 421.131>
DStem2: 983 439 966 325 0.814215 0.580564<0 648.539> 1608 413 1163 16 0.814549 0.580094<-512.916 -52.9168>
LayerCount: 2
Fore
SplineSet
449 -20 m 0,0,1
 414 -20 414 -20 377 -8 c 0,2,3
 293 20 293 20 225 93 c 0,4,5
 148 177 148 177 148 290 c 0,6,7
 148 309 148 309 150 328 c 0,8,9
 156 381 156 381 187 419 c 0,10,11
 219 458 219 458 257 485 c 2,12,-1
 594 725 l 2,13,14
 645 761 645 761 679 761 c 0,15,16
 712 761 712 761 748 748 c 0,17,18
 809 726 809 726 862 673 c 1,19,-1
 865 689 l 2,20,21
 873 734 873 734 873 772 c 0,22,23
 873 846 873 846 843 898 c 0,24,25
 802 969 802 969 690 969 c 0,26,27
 604 969 604 969 515 893 c 1,28,-1
 480 948 l 1,29,-1
 670 1084 l 2,30,31
 720 1120 720 1120 755 1120 c 0,32,33
 795 1120 795 1120 831 1107 c 0,34,35
 926 1074 926 1074 983 986 c 0,36,37
 1012 940 1012 940 1026 890 c 1,38,-1
 1300 1084 l 2,39,40
 1351 1120 1351 1120 1385 1120 c 0,41,42
 1424 1120 1424 1120 1461 1107 c 0,43,44
 1557 1073 1557 1073 1612 997 c 0,45,46
 1664 924 1664 924 1676 831 c 1,47,-1
 966 325 l 1,48,49
 966 321 966 321 966 317 c 0,50,51
 966 248 966 248 1001 207 c 0,52,53
 1057 140 1057 140 1146 140 c 0,54,55
 1227 140 1227 140 1319 206 c 2,56,-1
 1608 413 l 1,57,58
 1597 359 1597 359 1570 322 c 0,59,60
 1548 290 1548 290 1500 256 c 2,61,-1
 1163 16 l 2,62,63
 1112 -20 1112 -20 1079 -20 c 0,64,65
 1041 -20 1041 -20 1004 -7 c 0,66,67
 908 27 908 27 853 103 c 0,68,69
 817 153 817 153 801 206 c 1,70,-1
 533 16 l 2,71,72
 482 -20 482 -20 449 -20 c 0,0,1
513 128 m 0,73,74
 613 128 613 128 695 198 c 0,75,76
 778 268 778 268 800 370 c 0,77,78
 806 399 806 399 806 425 c 0,79,80
 806 492 806 492 766 541 c 0,81,82
 708 612 708 612 614 612 c 0,83,84
 513 612 513 612 432 542 c 0,85,86
 350 472 350 472 328 370 c 0,87,88
 322 341 322 341 321 315 c 0,89,90
 321 248 321 248 361 199 c 0,91,92
 417 128 417 128 513 128 c 0,73,74
983 439 m 1,93,-1
 1498 806 l 1,94,95
 1490 859 1490 859 1463 893 c 0,96,97
 1408 960 1408 960 1318 960 c 0,98,99
 1222 960 1222 960 1145 894 c 0,100,101
 1066 827 1066 827 1039 700 c 2,102,-1
 983 439 l 1,93,-1
EndSplineSet
Validated: 1
EndChar

StartChar: kgreenlandic
Encoding: 312 312 180
Width: 1120
Flags: W
HStem: -40 21G<171 209 791 829.112> 1120 20G<554.148 592 1103.98 1154.62>
VStem: 905 181<393.267 655.214>
DStem2: 171 -40 341.305 -40 0.207912 0.978148<173.424 722.034 777.706 1068.53> 791 -40 971.604 -40 0.207912 0.978148<183.744 582.07> 1132 1140 876 857 0.813906 0.580996<-372.782 0>
LayerCount: 2
Fore
SplineSet
171 -40 m 1,0,-1
 394 1005 l 1,1,-1
 582 1140 l 1,2,-1
 592 1140 l 1,3,-1
 496 686 l 1,4,-1
 1132 1140 l 1,5,-1
 1142 1140 l 1,6,-1
 1183 1075 l 1,7,-1
 876 857 l 1,8,9
 967 823 967 823 1019 750 c 0,10,11
 1086 657 1086 657 1086 544 c 0,12,13
 1086 500 1086 500 1076 453 c 2,14,-1
 1002 103 l 1,15,-1
 801 -40 l 1,16,-1
 791 -40 l 1,17,-1
 896 453 l 2,18,19
 905 495 905 495 905 532 c 0,20,21
 905 603 905 603 870 646 c 0,22,23
 815 713 815 713 726 713 c 0,24,25
 632 713 632 713 553 647 c 0,26,27
 473 581 473 581 446 453 c 2,28,-1
 370 95 l 1,29,-1
 181 -40 l 1,30,-1
 171 -40 l 1,0,-1
EndSplineSet
Validated: 1
EndChar

StartChar: lslash
Encoding: 322 322 181
Width: 766
Flags: W
HStem: -40 21G<289 327> 1120 20G<891.932 949.672> 1530 20G<759.148 797>
DStem2: 126 567 196 506 0.810895 0.585192<21.0659 324.351 675.881 979.165> 289 -40 459.305 -40 0.207912 0.978148<173.424 738.241 872.2 927.939 1061.9 1487.66>
LayerCount: 2
Fore
SplineSet
289 -40 m 1,0,-1
 443 682 l 1,1,-1
 196 506 l 1,2,-1
 186 506 l 1,3,-1
 126 567 l 1,4,-1
 471 813 l 1,5,-1
 599 1415 l 1,6,-1
 787 1550 l 1,7,-1
 797 1550 l 1,8,-1
 673 964 l 1,9,-1
 920 1140 l 1,10,-1
 930 1140 l 1,11,-1
 990 1079 l 1,12,-1
 645 833 l 1,13,-1
 488 95 l 1,14,-1
 299 -40 l 1,15,-1
 289 -40 l 1,0,-1
EndSplineSet
Validated: 1
EndChar

StartChar: multiply
Encoding: 215 215 182
Width: 1173
Flags: W
HStem: 461 586
DStem2: 314 485 498 462 0.771637 0.636064<127.352 420.049 591.026 885.132> 624 1047 428 1024 0.618376 -0.785882<0 236.457 375.405 613.266>
LayerCount: 2
Fore
SplineSet
1175 1032 m 1,0,-1
 1181 1025 l 1,1,-1
 853 755 l 1,2,-1
 1066 485 l 1,3,-1
 1058 478 l 1,4,-1
 871 461 l 1,5,-1
 724 648 l 1,6,-1
 498 462 l 1,7,-1
 320 478 l 1,8,-1
 314 485 l 1,9,-1
 640 754 l 1,10,-1
 428 1024 l 1,11,-1
 436 1031 l 1,12,-1
 624 1047 l 1,13,-1
 770 861 l 1,14,-1
 997 1048 l 1,15,-1
 1175 1032 l 1,0,-1
EndSplineSet
Validated: 1
EndChar

StartChar: divide
Encoding: 247 247 183
Width: 1174
Flags: W
HStem: 679 151<425 1070>
VStem: 550 253<368.812 473.188> 691 254<1036 1139.88>
LayerCount: 2
Fore
SplineSet
274 679 m 1,0,-1
 276 689 l 1,1,-1
 425 830 l 1,2,-1
 1220 830 l 1,3,-1
 1218 820 l 1,4,-1
 1070 679 l 1,5,-1
 274 679 l 1,0,-1
638 295 m 0,6,7
 625 295 625 295 610 301 c 0,8,9
 581 313 581 313 565 342 c 0,10,11
 550 370 550 370 550 398 c 0,12,13
 550 409 550 409 552 419 c 0,14,15
 558 448 558 448 585 467 c 2,16,-1
 677 533 l 2,17,18
 697 547 697 547 715 547 c 0,19,20
 728 547 728 547 743 541 c 0,21,22
 773 528 773 528 788 500 c 128,-1,23
 803 472 803 472 803 444 c 0,24,25
 803 433 803 433 801 423 c 0,26,27
 795 394 795 394 768 375 c 2,28,-1
 676 309 l 2,29,30
 656 295 656 295 638 295 c 0,6,7
857 1214 m 0,31,32
 870 1214 870 1214 885 1208 c 0,33,34
 915 1195 915 1195 930 1167 c 128,-1,35
 945 1139 945 1139 945 1111 c 0,36,37
 945 1100 945 1100 943 1090 c 0,38,39
 937 1061 937 1061 909 1042 c 2,40,-1
 817 976 l 2,41,42
 797 962 797 962 779 962 c 0,43,44
 766 962 766 962 752 968 c 0,45,46
 723 980 723 980 706 1009 c 0,47,48
 691 1036 691 1036 691 1063 c 0,49,50
 691 1075 691 1075 694 1086 c 0,51,52
 700 1115 700 1115 727 1134 c 2,53,-1
 819 1200 l 2,54,55
 839 1214 839 1214 857 1214 c 0,31,32
EndSplineSet
Validated: 1
EndChar

StartChar: germandbls
Encoding: 223 223 184
Width: 1170
Flags: W
HStem: -40 21G<171 209> -20 160<522.488 684.485> 1370 161<837.49 988.087>
VStem: 960 181<436.355 676.271> 1047 180<1062.92 1310>
DStem2: 171 -40 341.305 -40 0.207912 0.978148<173.424 1312.61> 841.475 -40 1021.71 -40 0.207912 0.978148<358.975 603.582> 905 930 924 867 0.815327 0.579<-20.9858 145.581>
LayerCount: 2
Fore
SplineSet
171 -40 m 1,0,-1
 415 1105 l 2,1,2
 427 1160 427 1160 452 1196 c 0,3,4
 474 1229 474 1229 522 1263 c 2,5,-1
 848 1495 l 2,6,7
 899 1531 899 1531 933 1531 c 0,8,9
 972 1531 972 1531 1009 1518 c 0,10,11
 1105 1484 1105 1484 1160 1408 c 0,12,13
 1227 1315 1227 1315 1227 1202 c 0,14,15
 1227 1162 1227 1162 1222 1140 c 16,16,17
 1215 1110 1215 1110 1190 1072 c 0,18,19
 1171 1042 1171 1042 1120 1006 c 2,20,-1
 924 867 l 1,21,22
 1015 846 1015 846 1074 772 c 0,23,24
 1141 690 1141 690 1141 566 c 0,25,26
 1141 523 1141 523 1131 475 c 2,27,-1
 1118 413 l 2,28,29
 1106 357 1106 357 1080 322 c 0,30,31
 1055 288 1055 288 1010 256 c 2,32,-1
 673 16 l 2,33,34
 622 -20 622 -20 589 -20 c 0,35,36
 547 -20 547 -20 519 -13 c 0,37,38
 448 5 448 5 399 43 c 1,39,-1
 561 159 l 1,40,-1
 571 159 l 1,41,42
 609 140 609 140 656 140 c 0,43,44
 752 140 752 140 825 202 c 0,45,46
 908 274 908 274 935 400 c 2,47,-1
 951 474 l 2,48,49
 960 517 960 517 960 553 c 0,50,51
 960 623 960 623 925 667 c 0,52,53
 870 734 870 734 760 734 c 2,54,-1
 629 734 l 1,55,-1
 905 930 l 2,56,57
 1015 1008 1015 1008 1041 1133 c 0,58,59
 1047 1164 1047 1164 1047 1191 c 0,60,61
 1047 1257 1047 1257 1010 1303 c 0,62,63
 955 1370 955 1370 865 1370 c 0,64,65
 764 1370 764 1370 692 1304 c 0,66,67
 612 1231 612 1231 586 1110 c 2,68,-1
 370 95 l 1,69,-1
 181 -40 l 1,70,-1
 171 -40 l 1,0,-1
EndSplineSet
Validated: 1
EndChar

StartChar: Thorn
Encoding: 222 222 185
Width: 1232
Flags: W
HStem: -40 21G<171 209.176> 1109 146<712.5 991.351> 1530 20G<670.95 709>
VStem: 1123 217<733.896 1004.54>
DStem2: 171 -40 371.204 -40 0.207912 0.978148<204.177 357.251 445.415 1463.14>
LayerCount: 2
Fore
SplineSet
171 -40 m 1,0,-1
 476 1391 l 1,1,-1
 699 1550 l 1,2,-1
 709 1550 l 1,3,-1
 455 355 l 1,4,5
 729 401 729 401 894 518 c 0,6,7
 1079 649 1079 649 1116 825 c 0,8,9
 1123 857 1123 857 1123 885 c 0,10,11
 1123 993 1123 993 1023 1049 c 0,12,13
 918 1109 918 1109 732 1109 c 0,14,15
 693 1109 693 1109 651 1106 c 1,16,-1
 856 1252 l 1,17,18
 895 1255 895 1255 930 1255 c 0,19,20
 1131 1255 1131 1255 1251 1133 c 0,21,22
 1340 1041 1340 1041 1340 915 c 0,23,24
 1340 894 1340 894 1338 873 c 0,25,26
 1312 642 1312 642 1013 457 c 0,27,28
 756 298 756 298 434 255 c 1,29,-1
 405 119 l 1,30,-1
 181 -40 l 1,31,-1
 171 -40 l 1,0,-1
EndSplineSet
Validated: 1
EndChar

StartChar: circumflex
Encoding: 710 710 186
Width: 536
Flags: W
HStem: 1210 339
VStem: 306 476
LayerCount: 2
Fore
SplineSet
572 1549 m 1,0,-1
 582 1549 l 1,1,-1
 631 1499 l 1,2,3
 681 1337 681 1337 782 1298 c 1,4,-1
 658 1210 l 1,5,-1
 648 1210 l 1,6,7
 586 1257 586 1257 568 1369 c 1,8,9
 508 1262 508 1262 402 1210 c 1,10,-1
 392 1210 l 1,11,-1
 306 1298 l 1,12,13
 466 1344 466 1344 572 1549 c 1,0,-1
EndSplineSet
Validated: 1
EndChar

StartChar: caron
Encoding: 711 711 187
Width: 536
Flags: W
HStem: 1210 339
VStem: 341 476
LayerCount: 2
Fore
SplineSet
464 1549 m 1,0,-1
 474 1549 l 1,1,2
 534 1504 534 1504 552 1390 c 1,3,4
 599 1501 599 1501 720 1549 c 1,5,-1
 730 1549 l 1,6,-1
 817 1461 l 1,7,8
 656 1415 656 1415 550 1210 c 1,9,-1
 540 1210 l 1,10,-1
 492 1260 l 1,11,12
 442 1422 442 1422 341 1461 c 1,13,-1
 464 1549 l 1,0,-1
EndSplineSet
Validated: 1
EndChar

StartChar: uni02C9
Encoding: 713 713 188
Width: 635
Flags: W
HStem: 1316 115<422 797>
VStem: 310 599
LayerCount: 2
Fore
SplineSet
422 1431 m 1,0,-1
 909 1431 l 1,1,-1
 907 1421 l 1,2,-1
 797 1316 l 1,3,-1
 310 1316 l 1,4,-1
 312 1326 l 1,5,-1
 422 1431 l 1,0,-1
EndSplineSet
Validated: 1
EndChar

StartChar: breve
Encoding: 728 728 189
Width: 530
Flags: W
HStem: 1256 114<477.448 605.386>
VStem: 342 121<1393.32 1490>
LayerCount: 2
Fore
SplineSet
347 1490 m 1,0,-1
 466 1490 l 1,1,2
 463 1474 463 1474 463 1460 c 0,3,4
 463 1428 463 1428 480 1405 c 0,5,6
 505 1370 505 1370 556 1370 c 0,7,8
 606 1370 606 1370 646 1406 c 0,9,10
 688 1444 688 1444 698 1490 c 1,11,-1
 817 1490 l 1,12,13
 808 1447 808 1447 754 1408 c 2,14,-1
 580 1282 l 2,15,16
 544 1256 544 1256 509 1256 c 0,17,18
 485 1256 485 1256 457 1267 c 0,19,20
 401 1290 401 1290 371 1344 c 0,21,22
 342 1395 342 1395 342 1448 c 0,23,24
 342 1469 342 1469 347 1490 c 1,0,-1
EndSplineSet
Validated: 1
EndChar

StartChar: dotaccent
Encoding: 729 729 190
Width: 308
Flags: W
HStem: 1264 252<406.875 492.125>
VStem: 323 253<1337.81 1442.19>
LayerCount: 2
Fore
SplineSet
488 1516 m 0,0,1
 501 1516 501 1516 516 1510 c 0,2,3
 546 1497 546 1497 561 1469 c 128,-1,4
 576 1441 576 1441 576 1413 c 0,5,6
 576 1402 576 1402 574 1392 c 0,7,8
 568 1363 568 1363 541 1344 c 2,9,-1
 449 1278 l 2,10,11
 429 1264 429 1264 411 1264 c 0,12,13
 398 1264 398 1264 383 1270 c 0,14,15
 354 1282 354 1282 338 1311 c 0,16,17
 323 1339 323 1339 323 1367 c 0,18,19
 323 1378 323 1378 325 1388 c 0,20,21
 331 1417 331 1417 358 1436 c 2,22,-1
 450 1502 l 2,23,24
 470 1516 470 1516 488 1516 c 0,0,1
EndSplineSet
Validated: 1
EndChar

